<?xml version="1.0" encoding="UTF-8"?>
<svg xmlns="http://www.w3.org/2000/svg" xmlns:xlink="http://www.w3.org/1999/xlink" width="22" height="22" viewBox="0 0 22 22">
<path fill-rule="nonzero" fill="rgb(0%, 0%, 0%)" fill-opacity="1" d="M 11 20.589844 C 7.539062 20.621094 4.328125 18.78125 2.601562 15.78125 C 0.875 12.78125 0.902344 9.082031 2.667969 6.105469 C 4.4375 3.125 7.671875 1.332031 11.132812 1.410156 C 16.390625 1.496094 20.601562 5.804688 20.5625 11.066406 C 20.527344 16.328125 16.261719 20.578125 11 20.589844 Z M 9.472656 11.5625 C 9.542969 11.632812 9.542969 11.632812 9.605469 11.632812 C 11 12.757812 12.394531 13.820312 13.722656 14.949219 C 13.992188 15.191406 14.28125 15.414062 14.582031 15.613281 C 14.777344 15.746094 15.027344 15.773438 15.246094 15.675781 C 15.460938 15.582031 15.613281 15.382812 15.644531 15.148438 C 15.65625 14.992188 15.632812 14.832031 15.578125 14.683594 L 12.992188 8.511719 C 12.59375 7.582031 12.195312 6.585938 11.800781 5.65625 C 11.742188 5.464844 11.589844 5.316406 11.402344 5.257812 C 11.003906 5.125 10.738281 5.328125 10.539062 5.722656 C 9.144531 8.976562 7.816406 12.296875 6.421875 15.546875 C 6.421875 15.617188 6.355469 15.679688 6.355469 15.746094 L 7.679688 15.746094 C 7.8125 15.746094 7.8125 15.679688 7.878906 15.613281 C 8.144531 15.015625 8.34375 14.355469 8.609375 13.757812 C 8.859375 13.011719 9.144531 12.28125 9.472656 11.5625 Z M 9.472656 11.5625 "/>
<path fill-rule="nonzero" fill="rgb(100%, 100%, 100%)" fill-opacity="1" d="M 9.472656 11.5625 C 9.207031 12.292969 8.875 13.023438 8.609375 13.753906 C 8.34375 14.351562 8.078125 15.015625 7.878906 15.609375 C 7.828125 15.664062 7.753906 15.6875 7.679688 15.679688 L 6.355469 15.679688 C 6.355469 15.609375 6.421875 15.546875 6.421875 15.480469 C 7.816406 12.226562 9.144531 8.910156 10.539062 5.65625 C 10.738281 5.257812 11.003906 5.058594 11.402344 5.191406 C 11.589844 5.25 11.742188 5.398438 11.800781 5.589844 C 12.195312 6.519531 12.59375 7.515625 12.992188 8.445312 L 15.582031 14.617188 C 15.632812 14.8125 15.65625 15.011719 15.652344 15.214844 C 15.617188 15.449219 15.464844 15.648438 15.25 15.742188 C 15.03125 15.839844 14.78125 15.8125 14.589844 15.679688 C 14.289062 15.472656 14 15.253906 13.726562 15.015625 C 12.332031 13.886719 10.9375 12.824219 9.609375 11.695312 C 9.539062 11.5625 9.539062 11.5625 9.472656 11.5625 Z M 11.199219 7.25 C 10.800781 8.3125 10.402344 9.308594 9.9375 10.304688 C 9.867188 10.371094 9.9375 10.4375 10.007812 10.503906 C 11 11.300781 11.996094 12.03125 12.992188 12.824219 C 13.191406 12.957031 13.390625 13.15625 13.589844 13.289062 C 12.792969 11.300781 11.996094 9.308594 11.199219 7.25 Z M 11.199219 7.25 "/>
<path fill-rule="nonzero" fill="rgb(0%, 0%, 0%)" fill-opacity="1" d="M 11.199219 7.25 C 11.996094 9.308594 12.859375 11.300781 13.65625 13.289062 C 13.457031 13.15625 13.257812 12.957031 13.058594 12.824219 C 12.0625 12.027344 11.0625 11.300781 10.070312 10.503906 C 10.003906 10.433594 9.9375 10.433594 10.003906 10.304688 C 10.335938 9.308594 10.734375 8.3125 11.199219 7.25 Z M 11.199219 7.25 "/>
</svg>
