<?xml version="1.0" encoding="UTF-8"?>
<svg xmlns="http://www.w3.org/2000/svg" xmlns:xlink="http://www.w3.org/1999/xlink" width="22" height="22" viewBox="0 0 22 22">
<path fill-rule="nonzero" fill="rgb(100%, 100%, 100%)" fill-opacity="1" d="M 19.296875 4.550781 L 12.355469 0.425781 C 11.523438 -0.0703125 10.5 -0.0703125 9.671875 0.425781 L 2.730469 4.550781 C 1.898438 5.039062 1.390625 5.949219 1.390625 6.9375 L 1.390625 15.179688 C 1.390625 16.164062 1.898438 17.078125 2.730469 17.566406 L 9.671875 21.6875 C 10.085938 21.929688 10.550781 22.054688 11.015625 22.054688 C 11.476562 22.054688 11.933594 21.929688 12.355469 21.6875 L 19.296875 17.566406 C 20.125 17.070312 20.640625 16.164062 20.640625 15.179688 L 20.640625 6.9375 C 20.640625 5.949219 20.125 5.039062 19.296875 4.550781 Z M 19.296875 4.550781 "/>
<path fill-rule="nonzero" fill="rgb(15.686275%, 18.823529%, 21.568627%)" fill-opacity="1" d="M 19.296875 4.550781 L 12.355469 0.425781 C 11.941406 0.179688 11.476562 0.0546875 11.015625 0.0546875 C 10.550781 0.0546875 10.089844 0.179688 9.671875 0.425781 L 2.730469 4.550781 C 1.898438 5.039062 1.390625 5.949219 1.390625 6.9375 L 1.390625 15.179688 C 1.390625 16.164062 1.898438 17.078125 2.730469 17.566406 L 9.671875 21.6875 C 10.085938 21.929688 10.550781 22.054688 11.015625 22.054688 C 11.476562 22.054688 11.933594 21.929688 12.355469 21.6875 L 19.296875 17.566406 C 20.125 17.070312 20.640625 16.164062 20.640625 15.179688 L 20.640625 6.9375 C 20.640625 5.949219 20.125 5.039062 19.296875 4.550781 Z M 9.917969 21.265625 L 2.972656 17.140625 C 2.296875 16.742188 1.875 15.988281 1.875 15.179688 L 1.875 6.9375 C 1.875 6.125 2.296875 5.375 2.972656 4.96875 L 9.917969 0.851562 C 10.25 0.652344 10.628906 0.550781 11.015625 0.550781 C 11.394531 0.550781 11.777344 0.652344 12.105469 0.851562 L 19.050781 4.96875 C 19.625 5.3125 20.007812 5.898438 20.117188 6.5625 C 19.886719 6.070312 19.371094 5.933594 18.765625 6.289062 L 12.195312 10.351562 C 11.375 10.828125 10.773438 11.371094 10.773438 12.355469 L 10.773438 20.449219 C 10.773438 21.039062 11.007812 21.421875 11.378906 21.535156 C 11.257812 21.554688 11.136719 21.570312 11.015625 21.570312 C 10.628906 21.566406 10.246094 21.464844 9.917969 21.265625 Z M 9.917969 21.265625 "/>
<path fill-rule="nonzero" fill="rgb(30.196078%, 65.882353%, 14.509804%)" fill-opacity="1" d="M 17.480469 15.976562 L 15.746094 17.011719 C 15.703125 17.035156 15.667969 17.066406 15.667969 17.121094 L 15.667969 17.578125 C 15.667969 17.632812 15.707031 17.652344 15.746094 17.628906 L 17.503906 16.5625 C 17.550781 16.535156 17.558594 16.484375 17.558594 16.429688 L 17.558594 16.03125 C 17.5625 15.96875 17.523438 15.949219 17.480469 15.976562 Z M 17.480469 15.976562 "/>
<path fill-rule="nonzero" fill="rgb(100%, 100%, 100%)" fill-opacity="1" d="M 13.796875 12.167969 C 13.851562 12.136719 13.902344 12.175781 13.902344 12.25 L 13.90625 12.84375 C 14.15625 12.75 14.371094 12.722656 14.570312 12.765625 C 14.613281 12.78125 14.628906 12.835938 14.613281 12.90625 L 14.484375 13.433594 C 14.472656 13.472656 14.445312 13.511719 14.421875 13.539062 C 14.40625 13.550781 14.398438 13.5625 14.386719 13.5625 C 14.367188 13.574219 14.351562 13.578125 14.335938 13.574219 C 14.246094 13.550781 14.027344 13.507812 13.695312 13.679688 C 13.339844 13.855469 13.21875 14.164062 13.21875 14.390625 C 13.226562 14.660156 13.359375 14.746094 13.847656 14.75 C 14.484375 14.761719 14.765625 15.042969 14.765625 15.6875 C 14.777344 16.324219 14.4375 17 13.917969 17.425781 L 13.929688 18.015625 C 13.929688 18.09375 13.882812 18.171875 13.824219 18.199219 L 13.476562 18.398438 C 13.421875 18.429688 13.371094 18.394531 13.371094 18.320312 L 13.367188 17.738281 C 13.066406 17.859375 12.765625 17.890625 12.566406 17.8125 C 12.53125 17.804688 12.515625 17.75 12.53125 17.6875 L 12.65625 17.148438 C 12.667969 17.105469 12.691406 17.0625 12.722656 17.035156 C 12.734375 17.03125 12.746094 17.019531 12.757812 17.011719 C 12.78125 17 12.792969 17 12.816406 17.007812 C 13.023438 17.078125 13.289062 17.046875 13.546875 16.914062 C 13.875 16.742188 14.09375 16.414062 14.089844 16.082031 C 14.085938 15.777344 13.921875 15.65625 13.527344 15.648438 C 13.023438 15.648438 12.550781 15.550781 12.542969 14.808594 C 12.539062 14.195312 12.855469 13.5625 13.359375 13.160156 L 13.355469 12.5625 C 13.355469 12.484375 13.398438 12.40625 13.457031 12.375 Z M 13.796875 12.167969 "/>
</svg>
