<?xml version="1.0" encoding="UTF-8"?>
<svg xmlns="http://www.w3.org/2000/svg" xmlns:xlink="http://www.w3.org/1999/xlink" width="20px" height="20px" viewBox="0 0 20 20" version="1.1">
<g id="surface1">
<path style=" stroke:none;fill-rule:nonzero;fill:rgb(100%,100%,100%);fill-opacity:1;" d="M 17.542969 4.136719 L 11.230469 0.386719 C 10.476562 -0.0625 9.546875 -0.0625 8.792969 0.386719 L 2.480469 4.136719 C 1.726562 4.582031 1.261719 5.410156 1.261719 6.304688 L 1.261719 13.800781 C 1.261719 14.695312 1.726562 15.523438 2.480469 15.96875 L 8.792969 19.714844 C 9.167969 19.9375 9.589844 20.050781 10.011719 20.050781 C 10.433594 20.050781 10.851562 19.9375 11.230469 19.714844 L 17.542969 15.96875 C 18.296875 15.519531 18.761719 14.695312 18.761719 13.800781 L 18.761719 6.304688 C 18.761719 5.410156 18.296875 4.582031 17.542969 4.136719 Z M 17.542969 4.136719 "/>
<path style=" stroke:none;fill-rule:nonzero;fill:rgb(15.686275%,18.82353%,21.568628%);fill-opacity:1;" d="M 17.542969 4.136719 L 11.230469 0.386719 C 10.855469 0.164062 10.433594 0.0507812 10.011719 0.0507812 C 9.589844 0.0507812 9.171875 0.164062 8.792969 0.386719 L 2.480469 4.136719 C 1.726562 4.582031 1.261719 5.410156 1.261719 6.304688 L 1.261719 13.800781 C 1.261719 14.695312 1.726562 15.523438 2.480469 15.96875 L 8.792969 19.714844 C 9.167969 19.9375 9.589844 20.050781 10.011719 20.050781 C 10.433594 20.050781 10.851562 19.9375 11.230469 19.714844 L 17.542969 15.96875 C 18.296875 15.519531 18.761719 14.695312 18.761719 13.800781 L 18.761719 6.304688 C 18.761719 5.410156 18.296875 4.582031 17.542969 4.136719 Z M 9.015625 19.332031 L 2.703125 15.585938 C 2.085938 15.21875 1.703125 14.535156 1.703125 13.800781 L 1.703125 6.304688 C 1.703125 5.570312 2.085938 4.886719 2.703125 4.519531 L 9.015625 0.773438 C 9.320312 0.59375 9.664062 0.5 10.011719 0.5 C 10.359375 0.5 10.707031 0.59375 11.007812 0.773438 L 17.320312 4.519531 C 17.839844 4.828125 18.191406 5.363281 18.289062 5.964844 C 18.078125 5.519531 17.609375 5.394531 17.058594 5.71875 L 11.085938 9.410156 C 10.339844 9.84375 9.792969 10.335938 9.792969 11.230469 L 9.792969 18.589844 C 9.792969 19.128906 10.007812 19.476562 10.34375 19.578125 C 10.234375 19.597656 10.125 19.609375 10.011719 19.609375 C 9.664062 19.605469 9.316406 19.511719 9.015625 19.332031 Z M 9.015625 19.332031 "/>
<path style=" stroke:none;fill-rule:nonzero;fill:rgb(30.19608%,65.882355%,14.509805%);fill-opacity:1;" d="M 15.890625 14.523438 L 14.316406 15.464844 C 14.273438 15.488281 14.242188 15.515625 14.242188 15.566406 L 14.242188 15.976562 C 14.242188 16.027344 14.277344 16.046875 14.316406 16.023438 L 15.914062 15.054688 C 15.957031 15.03125 15.960938 14.984375 15.960938 14.933594 L 15.960938 14.570312 C 15.964844 14.519531 15.929688 14.5 15.890625 14.523438 Z M 15.890625 14.523438 "/>
<path style=" stroke:none;fill-rule:nonzero;fill:rgb(100%,100%,100%);fill-opacity:1;" d="M 12.542969 11.0625 C 12.59375 11.035156 12.636719 11.070312 12.636719 11.136719 L 12.640625 11.679688 C 12.867188 11.589844 13.066406 11.566406 13.246094 11.605469 C 13.285156 11.617188 13.300781 11.667969 13.285156 11.730469 L 13.164062 12.210938 C 13.15625 12.246094 13.132812 12.285156 13.109375 12.308594 C 13.097656 12.320312 13.089844 12.328125 13.078125 12.332031 C 13.0625 12.339844 13.046875 12.34375 13.03125 12.339844 C 12.949219 12.320312 12.753906 12.277344 12.449219 12.433594 C 12.128906 12.597656 12.015625 12.875 12.019531 13.082031 C 12.023438 13.328125 12.148438 13.40625 12.585938 13.410156 C 13.167969 13.417969 13.421875 13.675781 13.425781 14.261719 C 13.433594 14.839844 13.125 15.457031 12.652344 15.839844 L 12.664062 16.378906 C 12.664062 16.445312 12.621094 16.519531 12.570312 16.542969 L 12.25 16.726562 C 12.199219 16.753906 12.15625 16.722656 12.15625 16.65625 L 12.152344 16.125 C 11.878906 16.238281 11.601562 16.265625 11.425781 16.195312 C 11.390625 16.183594 11.378906 16.132812 11.390625 16.078125 L 11.507812 15.589844 C 11.515625 15.550781 11.539062 15.511719 11.566406 15.488281 C 11.578125 15.480469 11.585938 15.472656 11.597656 15.464844 C 11.617188 15.457031 11.632812 15.453125 11.648438 15.460938 C 11.839844 15.523438 12.082031 15.496094 12.316406 15.375 C 12.613281 15.222656 12.8125 14.921875 12.808594 14.617188 C 12.804688 14.34375 12.65625 14.230469 12.296875 14.226562 C 11.839844 14.226562 11.410156 14.136719 11.402344 13.460938 C 11.398438 12.90625 11.6875 12.328125 12.144531 11.960938 L 12.140625 11.417969 C 12.140625 11.351562 12.179688 11.277344 12.234375 11.25 Z M 12.542969 11.0625 "/>
</g>
</svg>
