<?xml version="1.0" encoding="UTF-8"?>
<svg xmlns="http://www.w3.org/2000/svg" xmlns:xlink="http://www.w3.org/1999/xlink" width="22" height="19.25" viewBox="0 0 22 19.25">
<path fill-rule="nonzero" fill="rgb(0%, 0%, 0%)" fill-opacity="1" d="M 19.550781 5.703125 C 19.503906 5.65625 19.460938 5.609375 19.414062 5.566406 C 19.367188 5.523438 19.320312 5.472656 19.273438 5.429688 C 19.226562 5.382812 19.183594 5.335938 19.136719 5.289062 C 19.089844 5.246094 19.046875 5.199219 19 5.152344 C 18.953125 5.109375 18.910156 5.058594 18.863281 5.015625 C 18.816406 4.972656 18.773438 4.921875 18.726562 4.878906 C 18.679688 4.835938 18.632812 4.785156 18.585938 4.742188 C 19.953125 6.082031 20.734375 7.90625 20.761719 9.816406 C 20.761719 14.375 16.136719 18.082031 10.449219 18.082031 C 7.265625 18.082031 4.417969 16.917969 2.523438 15.09375 L 2.660156 15.230469 L 2.796875 15.371094 L 3.070312 15.644531 L 3.210938 15.78125 L 3.347656 15.917969 L 3.484375 16.058594 C 5.375 17.957031 8.289062 19.179688 11.550781 19.179688 C 17.238281 19.179688 21.863281 15.472656 21.863281 10.929688 C 21.863281 8.988281 21.027344 7.148438 19.550781 5.703125 Z M 19.550781 5.703125 "/>
<path fill-rule="nonzero" fill="rgb(98.431373%, 94.117647%, 87.45098%)" fill-opacity="1" d="M 20.074219 9.816406 C 20.074219 14 15.765625 17.390625 10.449219 17.390625 C 5.132812 17.390625 0.824219 14 0.824219 9.816406 C 0.824219 7.222656 2.476562 4.933594 5.011719 3.574219 C 7.546875 2.214844 9.125 0.824219 10.449219 0.824219 C 11.777344 0.824219 12.910156 1.960938 15.890625 3.574219 C 18.425781 4.933594 20.074219 7.222656 20.074219 9.816406 Z M 20.074219 9.816406 "/>
<path fill-rule="nonzero" fill="rgb(96.470588%, 87.058824%, 80.784314%)" fill-opacity="1" d="M 20.074219 9.816406 C 20.074219 9.28125 20 8.746094 19.855469 8.226562 C 19.105469 17.386719 7.933594 17.824219 3.542969 15.085938 C 5.515625 16.617188 7.953125 17.429688 10.449219 17.390625 C 15.757812 17.390625 20.074219 13.996094 20.074219 9.816406 Z M 20.074219 9.816406 "/>
<path fill-rule="nonzero" fill="rgb(100%, 99.607843%, 98.823529%)" fill-opacity="1" d="M 6.746094 3.070312 C 7.976562 2.335938 9.609375 0.953125 11.214844 0.949219 C 10.96875 0.867188 10.710938 0.828125 10.449219 0.824219 C 9.785156 0.824219 9.074219 1.167969 8.179688 1.6875 C 7.871094 1.867188 7.546875 2.066406 7.207031 2.277344 C 6.566406 2.671875 5.832031 3.121094 5.007812 3.570312 C 2.390625 4.984375 0.824219 7.320312 0.824219 9.816406 C 0.824219 9.925781 0.824219 10.039062 0.824219 10.144531 C 2.492188 4.257812 5.519531 3.808594 6.746094 3.070312 Z M 6.746094 3.070312 "/>
<path fill-rule="evenodd" fill="rgb(80%, 74.509804%, 65.490196%)" fill-opacity="1" d="M 9.65625 1.519531 C 9.664062 2.835938 9.101562 4.085938 8.109375 4.949219 C 8.03125 5.019531 8.09375 5.152344 8.191406 5.113281 C 9.117188 4.753906 10.371094 3.675781 9.84375 1.5 C 9.820312 1.375 9.65625 1.40625 9.65625 1.519531 Z M 10.28125 1.519531 C 10.964844 2.632812 11.125 3.984375 10.726562 5.226562 C 10.691406 5.320312 10.808594 5.402344 10.875 5.324219 C 11.476562 4.554688 12.003906 3.023438 10.429688 1.375 C 10.351562 1.304688 10.226562 1.414062 10.28125 1.507812 Z M 11.042969 1.472656 C 12.105469 2.230469 12.792969 3.410156 12.925781 4.707031 C 12.917969 4.757812 12.953125 4.800781 13 4.808594 C 13.046875 4.816406 13.09375 4.785156 13.105469 4.738281 C 13.355469 3.777344 13.214844 2.140625 11.132812 1.292969 C 11.023438 1.25 10.949219 1.398438 11.042969 1.464844 Z M 5.964844 4.335938 C 7.230469 3.957031 8.277344 3.054688 8.84375 1.859375 C 8.894531 1.761719 9.050781 1.796875 9.027344 1.910156 C 8.550781 4.109375 6.957031 4.566406 5.96875 4.507812 C 5.863281 4.511719 5.867188 4.363281 5.964844 4.335938 Z M 5.964844 4.335938 "/>
<path fill-rule="nonzero" fill="rgb(0%, 0%, 0%)" fill-opacity="1" d="M 10.449219 18.082031 C 4.761719 18.082031 0.136719 14.375 0.136719 9.816406 C 0.136719 7.066406 1.835938 4.5 4.683594 2.964844 C 5.507812 2.523438 6.214844 2.082031 6.84375 1.695312 C 7.191406 1.480469 7.519531 1.277344 7.835938 1.089844 C 8.800781 0.519531 9.625 0.136719 10.449219 0.136719 C 11.273438 0.136719 11.996094 0.46875 12.898438 1 C 13.171875 1.15625 13.449219 1.328125 13.742188 1.515625 C 14.425781 1.9375 15.199219 2.417969 16.214844 2.964844 C 19.0625 4.5 20.761719 7.066406 20.761719 9.816406 C 20.761719 14.375 16.136719 18.082031 10.449219 18.082031 Z M 10.449219 0.824219 C 9.785156 0.824219 9.074219 1.167969 8.179688 1.6875 C 7.871094 1.867188 7.546875 2.066406 7.207031 2.277344 C 6.566406 2.671875 5.832031 3.121094 5.007812 3.570312 C 2.390625 4.984375 0.824219 7.320312 0.824219 9.816406 C 0.824219 13.996094 5.140625 17.394531 10.449219 17.394531 C 15.757812 17.394531 20.074219 13.996094 20.074219 9.816406 C 20.074219 7.320312 18.511719 4.984375 15.890625 3.574219 C 14.851562 3.023438 14.039062 2.507812 13.382812 2.101562 C 13.082031 1.917969 12.808594 1.746094 12.554688 1.59375 C 11.722656 1.101562 11.117188 0.824219 10.449219 0.824219 Z M 10.449219 0.824219 "/>
<path fill-rule="nonzero" fill="rgb(71.764706%, 7.843137%, 13.333333%)" fill-opacity="1" d="M 12.390625 11.824219 C 12.265625 12.332031 11.984375 12.785156 11.585938 13.121094 C 11.285156 13.410156 10.898438 13.59375 10.484375 13.636719 C 10.058594 13.597656 9.660156 13.417969 9.351562 13.121094 C 8.957031 12.78125 8.679688 12.328125 8.558594 11.824219 C 8.550781 11.765625 8.570312 11.703125 8.613281 11.660156 C 8.65625 11.617188 8.71875 11.59375 8.777344 11.601562 L 12.171875 11.601562 C 12.230469 11.597656 12.292969 11.617188 12.335938 11.660156 C 12.375 11.703125 12.398438 11.765625 12.390625 11.824219 Z M 12.390625 11.824219 "/>
<path fill-rule="nonzero" fill="rgb(100%, 38.039216%, 39.215686%)" fill-opacity="1" d="M 9.351562 13.140625 C 9.65625 13.4375 10.058594 13.625 10.484375 13.664062 C 10.90625 13.621094 11.304688 13.4375 11.613281 13.140625 C 11.710938 13.050781 11.804688 12.953125 11.886719 12.847656 C 11.546875 12.460938 11.058594 12.230469 10.539062 12.210938 C 9.984375 12.226562 9.46875 12.511719 9.164062 12.976562 C 9.230469 13.035156 9.285156 13.089844 9.351562 13.140625 Z M 9.351562 13.140625 "/>
<path fill-rule="nonzero" fill="rgb(0%, 0%, 0%)" fill-opacity="1" d="M 9.394531 12.925781 C 9.671875 12.566406 10.09375 12.355469 10.546875 12.351562 C 10.957031 12.363281 11.351562 12.53125 11.644531 12.816406 C 11.710938 12.75 11.769531 12.675781 11.828125 12.605469 C 11.476562 12.273438 11.015625 12.082031 10.53125 12.074219 C 10.011719 12.078125 9.515625 12.316406 9.1875 12.722656 C 9.253906 12.792969 9.320312 12.863281 9.394531 12.925781 Z M 9.394531 12.925781 "/>
<path fill-rule="nonzero" fill="rgb(0%, 0%, 0%)" fill-opacity="1" d="M 10.476562 13.800781 C 10.015625 13.761719 9.585938 13.566406 9.25 13.253906 C 8.824219 12.890625 8.527344 12.40625 8.394531 11.863281 C 8.375 11.765625 8.402344 11.664062 8.46875 11.589844 C 8.542969 11.496094 8.660156 11.445312 8.777344 11.449219 L 12.171875 11.449219 C 12.289062 11.445312 12.40625 11.496094 12.480469 11.589844 C 12.546875 11.664062 12.570312 11.765625 12.550781 11.863281 C 12.421875 12.40625 12.121094 12.890625 11.695312 13.253906 C 11.363281 13.566406 10.933594 13.761719 10.476562 13.800781 Z M 8.777344 11.765625 C 8.734375 11.765625 8.722656 11.785156 8.71875 11.792969 C 8.835938 12.261719 9.097656 12.683594 9.472656 12.992188 C 9.742188 13.261719 10.097656 13.429688 10.476562 13.476562 C 10.851562 13.429688 11.207031 13.265625 11.476562 13 C 11.847656 12.6875 12.109375 12.265625 12.226562 11.796875 C 12.214844 11.78125 12.191406 11.769531 12.171875 11.773438 Z M 8.777344 11.765625 "/>
<path fill-rule="nonzero" fill="rgb(99.607843%, 73.333333%, 81.568627%)" fill-opacity="1" d="M 16.246094 11.050781 C 16.246094 11.570312 15.523438 11.996094 14.636719 11.996094 C 13.746094 11.996094 13.027344 11.570312 13.027344 11.050781 C 13.027344 10.527344 13.746094 10.101562 14.636719 10.101562 C 15.523438 10.101562 16.246094 10.527344 16.246094 11.050781 Z M 16.246094 11.050781 "/>
<path fill-rule="nonzero" fill="rgb(99.607843%, 73.333333%, 81.568627%)" fill-opacity="1" d="M 7.921875 11.050781 C 7.921875 11.570312 7.199219 11.996094 6.3125 11.996094 C 5.421875 11.996094 4.703125 11.570312 4.703125 11.050781 C 4.703125 10.527344 5.421875 10.101562 6.3125 10.101562 C 7.199219 10.101562 7.921875 10.527344 7.921875 11.050781 Z M 7.921875 11.050781 "/>
<path fill-rule="evenodd" fill="rgb(0%, 0%, 0%)" fill-opacity="1" d="M 7.066406 10.671875 C 7.90625 10.671875 8.585938 9.992188 8.585938 9.15625 C 8.585938 8.320312 7.910156 7.640625 7.070312 7.640625 C 6.234375 7.640625 5.554688 8.316406 5.554688 9.15625 C 5.554688 9.992188 6.230469 10.667969 7.066406 10.671875 Z M 13.878906 10.671875 C 14.492188 10.675781 15.050781 10.308594 15.285156 9.742188 C 15.523438 9.175781 15.398438 8.523438 14.964844 8.085938 C 14.53125 7.652344 13.878906 7.519531 13.3125 7.753906 C 12.746094 7.988281 12.375 8.539062 12.375 9.15625 C 12.375 9.988281 13.046875 10.664062 13.878906 10.671875 Z M 13.878906 10.671875 "/>
<path fill-rule="evenodd" fill="rgb(100%, 100%, 100%)" fill-opacity="1" d="M 6.601562 9.25 C 6.832031 9.253906 7.039062 9.113281 7.128906 8.902344 C 7.21875 8.6875 7.167969 8.445312 7.007812 8.28125 C 6.84375 8.117188 6.597656 8.066406 6.386719 8.15625 C 6.171875 8.242188 6.035156 8.453125 6.035156 8.683594 C 6.035156 8.996094 6.285156 9.25 6.601562 9.25 Z M 13.410156 9.25 C 13.640625 9.253906 13.851562 9.113281 13.941406 8.902344 C 14.027344 8.6875 13.980469 8.445312 13.816406 8.28125 C 13.65625 8.117188 13.410156 8.066406 13.199219 8.15625 C 12.984375 8.242188 12.84375 8.453125 12.84375 8.683594 C 12.84375 8.992188 13.09375 9.246094 13.40625 9.25 Z M 13.410156 9.25 "/>
</svg>
