<?xml version="1.0" encoding="UTF-8"?>
<svg xmlns="http://www.w3.org/2000/svg" xmlns:xlink="http://www.w3.org/1999/xlink" width="20px" height="20px" viewBox="0 0 20 20" version="1.1">
<g id="surface1">
<path style=" stroke:none;fill-rule:nonzero;fill:rgb(39.607844%,60.392159%,82.745099%);fill-opacity:1;" d="M 18.03125 4.796875 L 10.484375 0.453125 C 10.359375 0.375 10.1875 0.34375 10 0.34375 C 9.8125 0.34375 9.640625 0.390625 9.515625 0.453125 L 2.015625 4.8125 C 1.75 4.96875 1.5625 5.359375 1.5625 5.65625 L 1.5625 14.359375 C 1.5625 14.53125 1.59375 14.734375 1.71875 14.90625 L 18.40625 5.21875 C 18.3125 5.03125 18.171875 4.890625 18.03125 4.796875 Z M 18.03125 4.796875 "/>
<path style=" stroke:none;fill-rule:nonzero;fill:rgb(1.176471%,34.901962%,61.176473%);fill-opacity:1;" d="M 1.671875 14.890625 C 1.75 15.015625 1.859375 15.125 1.96875 15.1875 L 9.5 19.546875 C 9.625 19.625 9.796875 19.65625 9.984375 19.65625 C 10.171875 19.65625 10.34375 19.609375 10.46875 19.546875 L 17.96875 15.1875 C 18.234375 15.03125 18.421875 14.640625 18.421875 14.34375 L 18.421875 5.640625 C 18.421875 5.5 18.40625 5.34375 18.328125 5.203125 Z M 1.671875 14.890625 "/>
<path style=" stroke:none;fill-rule:nonzero;fill:rgb(100%,100%,100%);fill-opacity:1;" d="M 13.328125 11.890625 C 12.671875 13.046875 11.421875 13.828125 10 13.828125 C 7.890625 13.828125 6.171875 12.109375 6.171875 10 C 6.171875 7.890625 7.890625 6.171875 10 6.171875 C 11.421875 6.171875 12.671875 6.953125 13.328125 8.125 L 15.359375 6.953125 C 14.296875 5.09375 12.296875 3.828125 10 3.828125 C 6.59375 3.828125 3.828125 6.59375 3.828125 10 C 3.828125 13.40625 6.59375 16.171875 10 16.171875 C 12.28125 16.171875 14.28125 14.921875 15.34375 13.078125 Z M 13.328125 11.890625 "/>
</g>
</svg>
