<?xml version="1.0" encoding="UTF-8"?>
<svg xmlns="http://www.w3.org/2000/svg" xmlns:xlink="http://www.w3.org/1999/xlink" width="22" height="22" viewBox="0 0 22 22">
<path fill-rule="nonzero" fill="rgb(39.607843%, 60.392157%, 82.745098%)" fill-opacity="1" d="M 19.835938 5.277344 L 11.53125 0.5 C 11.394531 0.414062 11.207031 0.378906 11 0.378906 C 10.792969 0.378906 10.605469 0.429688 10.46875 0.5 L 2.21875 5.292969 C 1.925781 5.464844 1.71875 5.894531 1.71875 6.222656 L 1.71875 15.796875 C 1.71875 15.984375 1.753906 16.207031 1.890625 16.398438 L 20.246094 5.742188 C 20.144531 5.535156 19.988281 5.378906 19.835938 5.277344 Z M 19.835938 5.277344 "/>
<path fill-rule="nonzero" fill="rgb(1.176471%, 34.901961%, 61.176471%)" fill-opacity="1" d="M 1.839844 16.378906 C 1.925781 16.515625 2.046875 16.636719 2.164062 16.707031 L 10.449219 21.5 C 10.585938 21.585938 10.777344 21.621094 10.984375 21.621094 C 11.1875 21.621094 11.378906 21.570312 11.515625 21.5 L 19.765625 16.707031 C 20.058594 16.535156 20.265625 16.105469 20.265625 15.777344 L 20.265625 6.203125 C 20.265625 6.050781 20.246094 5.878906 20.160156 5.722656 Z M 1.839844 16.378906 "/>
<path fill-rule="nonzero" fill="rgb(100%, 100%, 100%)" fill-opacity="1" d="M 14.660156 13.078125 C 13.9375 14.351562 12.5625 15.210938 11 15.210938 C 8.679688 15.210938 6.789062 13.320312 6.789062 11 C 6.789062 8.679688 8.679688 6.789062 11 6.789062 C 12.5625 6.789062 13.9375 7.648438 14.660156 8.9375 L 16.894531 7.648438 C 15.726562 5.601562 13.527344 4.210938 11 4.210938 C 7.253906 4.210938 4.210938 7.253906 4.210938 11 C 4.210938 14.746094 7.253906 17.789062 11 17.789062 C 13.507812 17.789062 15.710938 16.414062 16.878906 14.386719 Z M 14.660156 13.078125 "/>
</svg>
