<?xml version="1.0" encoding="UTF-8"?>
<svg xmlns="http://www.w3.org/2000/svg" xmlns:xlink="http://www.w3.org/1999/xlink" width="22px" height="22px" viewBox="0 0 22 22" version="1.1">
<g id="surface1">
<path style=" stroke:none;fill-rule:nonzero;fill:rgb(8.235294%,44.705883%,71.372551%);fill-opacity:1;" d="M 3.234375 19.613281 L 1.5 0.234375 L 20.5 0.234375 L 18.765625 19.609375 L 10.984375 21.765625 Z M 3.234375 19.613281 "/>
<path style=" stroke:none;fill-rule:nonzero;fill:rgb(20%,66.274512%,86.274511%);fill-opacity:1;" d="M 11 20.117188 L 17.285156 18.375 L 18.761719 1.820312 L 11 1.820312 Z M 11 20.117188 "/>
<path style=" stroke:none;fill-rule:nonzero;fill:rgb(100%,100%,100%);fill-opacity:1;" d="M 11 8.835938 L 14.144531 8.835938 L 14.367188 6.40625 L 11 6.40625 L 11 4.023438 L 16.960938 4.023438 L 16.90625 4.667969 L 16.320312 11.21875 L 11 11.21875 Z M 11 8.835938 "/>
<path style=" stroke:none;fill-rule:nonzero;fill:rgb(92.156863%,92.156863%,92.156863%);fill-opacity:1;" d="M 11.015625 15.015625 L 11.003906 15.019531 L 8.355469 14.300781 L 8.183594 12.40625 L 5.796875 12.40625 L 6.136719 16.140625 L 11.003906 17.484375 L 11.015625 17.484375 Z M 11.015625 15.015625 "/>
<path style=" stroke:none;fill-rule:nonzero;fill:rgb(100%,100%,100%);fill-opacity:1;" d="M 13.941406 11.117188 L 13.652344 14.300781 L 11.003906 15.015625 L 11.003906 17.484375 L 15.882812 16.140625 L 15.914062 15.738281 L 16.328125 11.117188 Z M 13.941406 11.117188 "/>
<path style=" stroke:none;fill-rule:nonzero;fill:rgb(92.156863%,92.156863%,92.156863%);fill-opacity:1;" d="M 11.007812 4.023438 L 11.007812 6.40625 L 5.265625 6.40625 L 5.222656 5.871094 L 5.109375 4.667969 L 5.054688 4.023438 Z M 11 8.835938 L 11 11.21875 L 8.386719 11.21875 L 8.339844 10.683594 L 8.230469 9.480469 L 8.175781 8.835938 Z M 11 8.835938 "/>
</g>
</svg>
