<?xml version="1.0" encoding="UTF-8"?>
<svg xmlns="http://www.w3.org/2000/svg" xmlns:xlink="http://www.w3.org/1999/xlink" width="20px" height="20px" viewBox="0 0 20 20" version="1.1">
<g id="surface1">
<path style=" stroke:none;fill-rule:nonzero;fill:rgb(8.235294%,44.705883%,71.372551%);fill-opacity:1;" d="M 2.941406 17.832031 L 1.367188 0.210938 L 18.632812 0.210938 L 17.058594 17.828125 L 9.988281 19.789062 Z M 2.941406 17.832031 "/>
<path style=" stroke:none;fill-rule:nonzero;fill:rgb(20%,66.274512%,86.274511%);fill-opacity:1;" d="M 10 18.289062 L 15.710938 16.707031 L 17.054688 1.652344 L 10 1.652344 Z M 10 18.289062 "/>
<path style=" stroke:none;fill-rule:nonzero;fill:rgb(100%,100%,100%);fill-opacity:1;" d="M 10 8.035156 L 12.859375 8.035156 L 13.058594 5.824219 L 10 5.824219 L 10 3.660156 L 15.417969 3.660156 L 15.367188 4.242188 L 14.835938 10.195312 L 10 10.195312 Z M 10 8.035156 "/>
<path style=" stroke:none;fill-rule:nonzero;fill:rgb(92.156863%,92.156863%,92.156863%);fill-opacity:1;" d="M 10.011719 13.648438 L 10.003906 13.652344 L 7.597656 13 L 7.441406 11.277344 L 5.273438 11.277344 L 5.578125 14.671875 L 10.003906 15.898438 L 10.011719 15.898438 Z M 10.011719 13.648438 "/>
<path style=" stroke:none;fill-rule:nonzero;fill:rgb(100%,100%,100%);fill-opacity:1;" d="M 12.675781 10.105469 L 12.414062 13 L 10.003906 13.648438 L 10.003906 15.898438 L 14.4375 14.671875 L 14.46875 14.304688 L 14.84375 10.105469 Z M 12.675781 10.105469 "/>
<path style=" stroke:none;fill-rule:nonzero;fill:rgb(92.156863%,92.156863%,92.156863%);fill-opacity:1;" d="M 10.007812 3.660156 L 10.007812 5.824219 L 4.789062 5.824219 L 4.746094 5.335938 L 4.644531 4.242188 L 4.59375 3.660156 Z M 10 8.035156 L 10 10.195312 L 7.625 10.195312 L 7.582031 9.710938 L 7.480469 8.617188 L 7.429688 8.035156 Z M 10 8.035156 "/>
</g>
</svg>
