<?xml version="1.0" encoding="UTF-8"?>
<svg xmlns="http://www.w3.org/2000/svg" xmlns:xlink="http://www.w3.org/1999/xlink" width="22px" height="22px" viewBox="0 0 22 22" version="1.1">
<g id="surface1">
<path style=" stroke:none;fill-rule:nonzero;fill:rgb(0%,0%,0%);fill-opacity:1;" d="M 5.941406 9.894531 C 6.132812 9.988281 6.324219 9.941406 6.429688 9.777344 C 6.460938 9.722656 6.484375 9.65625 6.484375 9.578125 C 6.484375 9.382812 6.324219 9.21875 6.121094 9.21875 C 6.070312 9.21875 6.023438 9.234375 5.976562 9.253906 C 5.699219 9.378906 5.675781 9.757812 5.941406 9.894531 Z M 5.941406 9.894531 "/>
<path style=" stroke:none;fill-rule:nonzero;fill:rgb(0%,0%,0%);fill-opacity:1;" d="M 2.582031 18.128906 C 2.992188 18.589844 3.410156 19.007812 3.851562 19.40625 L 3.871094 19.417969 C 5.550781 20.828125 7.4375 21.648438 9.671875 21.949219 C 10.160156 22.015625 11.839844 22.015625 12.328125 21.949219 C 14.5625 21.648438 16.449219 20.824219 18.128906 19.417969 C 18.589844 19.007812 19.007812 18.589844 19.40625 18.148438 L 19.417969 18.128906 C 20.824219 16.449219 21.648438 14.5625 21.949219 12.328125 C 22.015625 11.839844 22.015625 10.167969 21.949219 9.671875 C 21.640625 7.4375 20.824219 5.550781 19.417969 3.871094 C 19.007812 3.410156 18.589844 2.992188 18.148438 2.597656 L 18.128906 2.585938 C 16.453125 1.183594 14.546875 0.347656 12.347656 0.0546875 C 12.105469 0.0195312 11.761719 0.0078125 11.121094 0.00390625 C 10.996094 0 10.84375 0 10.695312 0 C 10.503906 0 10.320312 0.00390625 10.132812 0.0078125 C 10.078125 0.015625 9.917969 0.03125 9.765625 0.046875 C 7.652344 0.269531 5.570312 1.164062 3.871094 2.585938 C 3.410156 2.992188 2.992188 3.410156 2.59375 3.855469 L 2.582031 3.871094 C 1.175781 5.550781 0.351562 7.4375 0.0507812 9.671875 C -0.015625 10.167969 -0.015625 11.839844 0.0507812 12.328125 C 0.359375 14.5625 1.175781 16.449219 2.582031 18.128906 Z M 20.078125 13.703125 C 20.082031 12.820312 20.09375 11.929688 20.101562 11.71875 C 20.109375 11.511719 20.113281 10.925781 20.117188 10.414062 C 20.117188 9.792969 20.125 9.488281 20.144531 9.488281 C 20.160156 9.488281 20.214844 9.503906 20.273438 9.523438 L 20.265625 9.523438 L 20.367188 9.570312 L 20.351562 11.808594 C 20.328125 14.660156 20.328125 14.746094 20.21875 14.992188 C 20.054688 15.398438 20.0625 15.476562 20.078125 13.703125 Z M 18.953125 7.996094 C 18.96875 7.996094 19.03125 8.015625 19.09375 8.039062 L 19.085938 8.042969 C 19.183594 8.082031 19.199219 8.09375 19.199219 8.183594 C 19.203125 8.921875 19.183594 10.609375 19.175781 10.683594 C 19.167969 10.707031 19.03125 10.707031 18.972656 10.6875 C 18.933594 10.671875 18.925781 10.53125 18.925781 9.332031 C 18.925781 8.476562 18.9375 7.996094 18.953125 7.996094 Z M 18.902344 16.019531 L 18.910156 14.855469 L 19.007812 14.753906 C 19.042969 14.714844 19.082031 14.679688 19.125 14.65625 L 19.128906 14.65625 C 19.140625 14.65625 19.140625 15.164062 19.128906 15.78125 L 19.109375 16.914062 L 19.042969 17.011719 C 18.890625 17.238281 18.898438 17.285156 18.902344 16.019531 Z M 5.828125 19.5625 C 5.757812 19.523438 5.699219 19.460938 5.710938 19.441406 C 5.710938 19.335938 5.699219 19.234375 5.679688 19.132812 L 5.679688 19.144531 C 5.664062 18.988281 5.636719 18.730469 5.625 18.578125 C 5.617188 18.421875 5.597656 18.132812 5.570312 17.941406 C 5.519531 17.464844 5.519531 17.410156 5.582031 17.410156 C 5.609375 17.410156 5.644531 17.425781 5.664062 17.445312 C 5.6875 17.464844 5.699219 17.53125 5.699219 17.601562 C 5.699219 17.667969 5.726562 18.03125 5.761719 18.410156 C 5.863281 19.453125 5.875 19.589844 5.828125 19.5625 Z M 6.464844 15.003906 C 6.355469 15.003906 6.355469 15.015625 6.320312 14.539062 C 6.285156 14.046875 6.285156 14.058594 6.355469 14.058594 C 6.390625 14.058594 6.433594 14.078125 6.460938 14.089844 C 6.484375 14.121094 6.511719 14.226562 6.53125 14.519531 C 6.578125 15.050781 6.578125 15.003906 6.464844 15.003906 Z M 6.878906 20.109375 C 6.84375 20.089844 6.824219 19.984375 6.792969 19.675781 C 6.738281 19.117188 6.734375 19.140625 6.835938 19.148438 C 6.921875 19.160156 6.925781 19.167969 6.945312 19.265625 C 6.949219 19.324219 6.972656 19.546875 6.976562 19.757812 C 7 20.164062 6.992188 20.195312 6.878906 20.109375 Z M 7.859375 18.132812 C 7.832031 18.144531 7.789062 18.136719 7.78125 18.121094 C 7.761719 18.109375 7.699219 17.503906 7.628906 16.582031 L 7.609375 16.359375 L 7.6875 16.359375 C 7.773438 16.359375 7.78125 16.363281 7.789062 16.5 C 7.808594 16.667969 7.875 17.46875 7.90625 17.847656 C 7.921875 18.101562 7.921875 18.113281 7.859375 18.132812 Z M 8.71875 16.570312 C 8.664062 16.570312 8.664062 16.535156 8.601562 15.765625 C 8.558594 15.164062 8.527344 14.78125 8.492188 14.390625 L 8.511719 14.648438 C 8.488281 14.351562 8.472656 14.109375 8.484375 14.097656 C 8.507812 14.066406 8.589844 14.09375 8.601562 14.132812 C 8.609375 14.160156 8.621094 14.320312 8.632812 14.492188 C 8.640625 14.660156 8.664062 15.050781 8.683594 15.34375 C 8.761719 16.433594 8.765625 16.570312 8.71875 16.570312 Z M 16.597656 19.320312 C 16.570312 19.351562 16.546875 19.367188 16.535156 19.355469 C 16.515625 19.335938 16.484375 15.910156 16.507812 15.886719 C 16.519531 15.878906 16.546875 15.875 16.570312 15.878906 C 16.605469 15.882812 16.617188 16.074219 16.625 17.578125 C 16.640625 19.148438 16.636719 19.265625 16.597656 19.320312 Z M 17.730469 3.503906 C 17.773438 3.539062 17.824219 3.578125 17.847656 3.605469 L 17.84375 3.605469 C 17.878906 3.644531 17.882812 4.234375 17.890625 7.5 C 17.902344 11.257812 17.902344 11.351562 17.855469 11.351562 C 17.8125 11.351562 17.785156 11.339844 17.753906 11.316406 L 17.757812 11.316406 C 17.71875 11.289062 17.710938 10.960938 17.699219 7.753906 C 17.695312 6.289062 17.683594 4.914062 17.664062 3.539062 L 17.664062 3.835938 L 17.652344 3.445312 Z M 16.707031 10.328125 L 16.632812 10.328125 C 16.464844 10.328125 16.46875 10.363281 16.453125 8.832031 L 16.449219 7.429688 L 16.535156 7.429688 C 16.582031 7.429688 16.640625 7.453125 16.664062 7.472656 C 16.703125 7.511719 16.707031 7.679688 16.707031 8.921875 Z M 16.433594 3.046875 C 16.445312 3.011719 16.445312 3.011719 16.554688 3.058594 L 16.644531 3.097656 L 16.667969 3.457031 C 16.675781 3.65625 16.679688 4.078125 16.675781 4.402344 L 16.667969 4.992188 L 16.550781 4.9375 L 16.4375 4.882812 L 16.429688 3.988281 C 16.429688 3.488281 16.429688 3.074219 16.433594 3.046875 Z M 15.246094 4.105469 L 15.324219 4.121094 C 15.363281 4.132812 15.40625 4.152344 15.421875 4.164062 L 15.421875 4.160156 C 15.433594 4.171875 15.449219 4.328125 15.453125 4.503906 C 15.464844 5.101562 15.464844 8.765625 15.453125 8.773438 C 15.449219 8.78125 15.398438 8.769531 15.34375 8.75 L 15.246094 8.703125 Z M 14.175781 6.707031 C 14.179688 6.949219 14.148438 6.996094 14.003906 6.945312 L 13.921875 6.914062 L 13.921875 6.683594 C 13.921875 6.546875 13.914062 6.171875 13.902344 5.839844 L 13.886719 5.242188 L 13.949219 5.242188 C 13.996094 5.246094 14.046875 5.261719 14.089844 5.289062 L 14.085938 5.28125 L 14.164062 5.332031 L 14.164062 5.914062 C 14.167969 6.234375 14.175781 6.59375 14.175781 6.707031 Z M 14.046875 2.5625 C 14.125 2.585938 14.132812 2.597656 14.148438 2.753906 C 14.175781 3.023438 14.164062 4.316406 14.140625 4.316406 C 14.058594 4.316406 13.894531 4.226562 13.882812 4.175781 C 13.871094 3.972656 13.867188 3.734375 13.867188 3.5 C 13.867188 3.4375 13.867188 3.375 13.867188 3.316406 C 13.867188 2.445312 13.855469 2.496094 14.046875 2.5625 Z M 12.554688 1.09375 C 12.566406 1.0625 12.597656 1.058594 12.710938 1.078125 C 12.789062 1.097656 12.855469 1.101562 12.855469 1.105469 L 12.855469 1.113281 C 12.859375 1.113281 12.871094 1.929688 12.875 2.925781 C 12.886719 3.921875 12.90625 4.820312 12.90625 4.914062 C 12.917969 5.019531 12.917969 5.105469 12.898438 5.109375 C 12.875 5.109375 12.855469 5.117188 12.824219 5.117188 C 12.800781 5.117188 12.773438 5.109375 12.753906 5.109375 L 12.757812 5.109375 L 12.632812 5.09375 L 12.613281 4.3125 L 12.582031 3.234375 C 12.5625 2.757812 12.542969 1.132812 12.554688 1.09375 Z M 11.324219 3.367188 L 11.464844 3.382812 C 11.515625 3.386719 11.566406 3.398438 11.617188 3.417969 C 11.632812 3.4375 11.671875 4.742188 11.671875 5.402344 L 11.671875 5.808594 L 11.550781 5.789062 C 11.5 5.78125 11.449219 5.777344 11.40625 5.773438 L 11.414062 5.773438 C 11.40625 5.761719 11.324219 3.761719 11.324219 3.5625 Z M 10.742188 7.957031 Z M 10.042969 0.984375 C 10.085938 0.976562 10.15625 0.964844 10.195312 0.964844 L 10.265625 0.960938 L 10.265625 1.175781 C 10.265625 1.492188 10.292969 2.179688 10.320312 2.832031 C 10.339844 3.148438 10.359375 3.609375 10.363281 3.847656 C 10.394531 4.691406 10.480469 6.90625 10.5 7.101562 L 10.511719 7.300781 L 10.382812 7.289062 C 10.339844 7.285156 10.292969 7.273438 10.246094 7.257812 C 10.226562 7.132812 10.210938 6.992188 10.210938 6.84375 L 10.210938 6.839844 C 10.179688 6.492188 10.09375 4.671875 10.023438 2.839844 L 9.984375 1.59375 L 9.96875 0.992188 Z M 8.796875 2.59375 C 8.847656 2.578125 8.902344 2.5625 8.964844 2.5625 C 9.046875 2.5625 9.046875 2.5625 9.046875 2.6875 C 9.046875 2.765625 9.070312 3.164062 9.09375 3.589844 L 9.148438 4.785156 C 9.171875 5.257812 9.175781 5.242188 8.992188 5.253906 C 8.902344 5.257812 8.902344 5.257812 8.898438 5.117188 C 8.890625 5.046875 8.875 4.808594 8.867188 4.589844 C 8.847656 4.371094 8.816406 3.90625 8.796875 3.546875 C 8.773438 3.195312 8.746094 2.835938 8.734375 2.765625 C 8.71875 2.625 8.71875 2.625 8.796875 2.59375 Z M 7.6875 4.261719 C 7.75 4.226562 7.824219 4.195312 7.902344 4.191406 L 7.90625 4.191406 C 7.921875 4.1875 7.945312 4.242188 7.953125 4.3125 C 7.960938 4.386719 7.976562 4.550781 7.980469 4.6875 L 8.027344 5.359375 C 8.058594 5.828125 8.050781 5.859375 7.898438 5.859375 C 7.816406 5.859375 7.804688 5.851562 7.796875 5.773438 C 7.769531 5.609375 7.671875 4.28125 7.6875 4.261719 Z M 6.445312 2.035156 C 6.53125 1.992188 6.582031 1.980469 6.601562 2.015625 C 6.617188 2.042969 6.742188 3.535156 6.902344 5.484375 C 6.949219 6.140625 7 6.75 7.011719 6.828125 C 7.027344 6.964844 7.019531 6.972656 6.9375 7.027344 C 6.90625 7.046875 6.871094 7.0625 6.828125 7.078125 C 6.820312 7.078125 6.804688 7.007812 6.792969 6.921875 C 6.757812 6.570312 6.613281 4.875 6.511719 3.644531 C 6.449219 2.921875 6.394531 2.273438 6.386719 2.203125 C 6.375 2.082031 6.375 2.078125 6.445312 2.035156 Z M 8.929688 7.980469 C 9.226562 7.933594 9.570312 7.902344 9.917969 7.902344 C 10.203125 7.902344 10.480469 7.921875 10.753906 7.957031 C 11.359375 8.050781 11.890625 8.21875 12.414062 8.492188 C 12.757812 8.664062 12.921875 8.785156 13.300781 9.148438 C 13.859375 9.691406 14.203125 10.15625 14.535156 10.824219 C 15.003906 11.792969 15.191406 12.648438 15.421875 14.949219 C 15.523438 15.980469 15.667969 17.847656 15.691406 18.617188 C 15.703125 18.835938 15.722656 19.203125 15.742188 19.425781 C 15.765625 19.902344 15.804688 19.835938 15.382812 20.039062 C 14.796875 20.328125 14.238281 20.519531 13.503906 20.695312 C 12.597656 20.921875 12.015625 20.988281 11.121094 20.996094 L 10.46875 21 L 10.480469 20.6875 C 10.480469 20.519531 10.492188 20.117188 10.511719 19.8125 C 10.589844 18.300781 10.574219 16.398438 10.46875 15.34375 C 10.414062 14.734375 10.296875 13.996094 10.230469 13.839844 C 10.210938 13.804688 10.277344 13.777344 10.546875 13.679688 C 11.035156 13.511719 11.460938 13.300781 11.523438 13.1875 C 11.640625 12.992188 11.433594 12.703125 11.167969 12.703125 C 11.121094 12.703125 10.984375 12.753906 10.859375 12.816406 C 10.246094 13.089844 9.039062 13.421875 8.335938 13.492188 C 8.160156 13.507812 7.957031 13.511719 7.75 13.511719 C 7.34375 13.511719 6.949219 13.476562 6.566406 13.414062 C 6.285156 13.359375 5.777344 13.167969 5.359375 12.957031 C 4.867188 12.703125 4.570312 12.359375 4.476562 11.960938 C 4.429688 11.742188 4.441406 11.3125 4.507812 11.070312 C 4.574219 10.800781 4.761719 10.414062 4.9375 10.1875 C 5.707031 9.171875 7.292969 8.289062 8.929688 7.980469 Z M 4.4375 5.378906 C 4.535156 5.289062 4.539062 5.289062 4.566406 5.335938 C 4.570312 5.363281 4.621094 5.8125 4.667969 6.332031 L 4.84375 8.285156 L 4.9375 9.285156 L 4.828125 9.386719 L 4.726562 9.492188 L 4.710938 9.28125 C 4.695312 9.160156 4.644531 8.609375 4.589844 8.050781 C 4.53125 7.492188 4.449219 6.6875 4.40625 6.257812 L 4.332031 5.472656 Z M 4.164062 12.90625 C 4.207031 12.957031 4.246094 13.007812 4.277344 13.066406 L 4.277344 13.070312 C 4.292969 13.136719 4.367188 13.871094 4.367188 13.960938 C 4.367188 14.039062 4.277344 14.109375 4.230469 14.0625 C 4.214844 14.046875 4.179688 13.820312 4.15625 13.558594 L 4.085938 12.9375 L 4.070312 12.800781 Z M 3.867188 10.015625 C 3.90625 9.984375 3.960938 9.953125 3.96875 9.964844 C 3.972656 9.96875 3.992188 10.074219 4 10.203125 C 4.019531 10.417969 4.015625 10.4375 3.933594 10.609375 L 3.847656 10.796875 L 3.816406 10.53125 C 3.765625 10.09375 3.765625 10.074219 3.867188 10.015625 Z M 3.847656 17.484375 L 3.855469 17.601562 L 3.796875 17.5625 C 3.75 17.535156 3.71875 17.492188 3.71875 17.441406 C 3.71875 17.433594 3.71875 17.429688 3.71875 17.429688 C 3.71875 17.257812 3.605469 16.140625 3.511719 15.453125 C 3.464844 15.058594 3.421875 14.714844 3.421875 14.683594 C 3.421875 14.625 3.488281 14.605469 3.511719 14.65625 C 3.535156 14.675781 3.636719 15.539062 3.765625 16.722656 C 3.796875 17.082031 3.835938 17.425781 3.847656 17.484375 Z M 3.417969 4.464844 C 3.421875 4.472656 3.453125 4.710938 3.484375 5 L 3.476562 5 L 3.609375 6.332031 C 3.65625 6.777344 3.695312 7.15625 3.695312 7.171875 C 3.695312 7.210938 3.488281 7.316406 3.464844 7.289062 C 3.398438 6.875 3.300781 6.011719 3.210938 5.148438 L 3.179688 4.773438 C 3.179688 4.710938 3.390625 4.433594 3.417969 4.464844 Z M 2.523438 5.675781 C 2.527344 5.6875 2.582031 6.125 2.644531 6.664062 L 2.640625 6.664062 C 2.699219 7.199219 2.855469 8.613281 2.992188 9.8125 C 3.128906 11.007812 3.25 12.164062 3.28125 12.382812 C 3.300781 12.597656 3.335938 12.925781 3.363281 13.113281 C 3.398438 13.425781 3.398438 13.453125 3.355469 13.480469 C 3.285156 13.53125 3.261719 13.527344 3.261719 13.472656 C 3.261719 13.445312 3.234375 13.238281 3.210938 13.015625 C 3.160156 12.648438 3.078125 12.015625 2.894531 10.609375 C 2.859375 10.328125 2.789062 9.757812 2.734375 9.351562 C 2.855469 10.660156 2.734375 9.761719 2.625 8.863281 L 2.398438 6.71875 C 2.351562 6.351562 2.320312 6.023438 2.324219 5.988281 C 2.34375 5.914062 2.507812 5.664062 2.523438 5.675781 Z M 2.214844 11.703125 C 2.285156 11.652344 2.304688 11.679688 2.332031 11.832031 C 2.355469 12.050781 2.542969 13.527344 2.640625 14.25 C 2.785156 15.367188 2.796875 15.523438 2.734375 15.453125 C 2.6875 15.261719 2.644531 14.980469 2.605469 14.691406 L 2.59375 14.625 C 2.171875 11.703125 2.171875 11.726562 2.214844 11.703125 Z M 1.644531 7.421875 C 1.652344 7.355469 1.683594 7.292969 1.714844 7.238281 C 1.726562 7.246094 1.765625 7.507812 1.808594 7.832031 L 1.816406 7.832031 L 1.980469 9.148438 C 2.03125 9.550781 2.097656 10.050781 2.128906 10.257812 L 2.171875 10.636719 L 2.117188 10.6875 C 2.089844 10.710938 2.054688 10.722656 2.046875 10.710938 C 2.03125 10.703125 2.011719 10.589844 1.992188 10.476562 C 1.976562 10.359375 1.875 9.660156 1.769531 8.933594 L 1.578125 7.609375 Z M 1.644531 7.421875 "/>
<path style=" stroke:none;fill-rule:nonzero;fill:rgb(0%,0%,0%);fill-opacity:1;" d="M 7.808594 10.214844 C 8.070312 10.367188 8.402344 10.167969 8.402344 9.859375 C 8.402344 9.558594 8.0625 9.363281 7.808594 9.515625 C 7.695312 9.585938 7.617188 9.722656 7.617188 9.867188 C 7.617188 10.015625 7.695312 10.140625 7.808594 10.210938 Z M 7.808594 10.214844 "/>
</g>
</svg>
