<?xml version="1.0" encoding="UTF-8"?>
<svg xmlns="http://www.w3.org/2000/svg" xmlns:xlink="http://www.w3.org/1999/xlink" width="20px" height="20px" viewBox="0 0 20 20" version="1.1">
<g id="surface1">
<path style=" stroke:none;fill-rule:nonzero;fill:rgb(0%,0%,0%);fill-opacity:1;" d="M 5.398438 8.992188 C 5.574219 9.082031 5.75 9.039062 5.84375 8.886719 C 5.875 8.835938 5.894531 8.777344 5.894531 8.710938 C 5.894531 8.53125 5.75 8.382812 5.566406 8.382812 C 5.519531 8.382812 5.476562 8.394531 5.433594 8.414062 C 5.179688 8.523438 5.160156 8.871094 5.398438 8.992188 Z M 5.398438 8.992188 "/>
<path style=" stroke:none;fill-rule:nonzero;fill:rgb(0%,0%,0%);fill-opacity:1;" d="M 2.347656 16.480469 C 2.71875 16.898438 3.101562 17.28125 3.503906 17.640625 L 3.519531 17.652344 C 5.046875 18.933594 6.761719 19.679688 8.789062 19.953125 C 9.238281 20.015625 10.761719 20.015625 11.210938 19.953125 C 13.238281 19.679688 14.953125 18.929688 16.480469 17.652344 C 16.898438 17.28125 17.28125 16.898438 17.640625 16.496094 L 17.652344 16.480469 C 18.929688 14.953125 19.679688 13.238281 19.953125 11.210938 C 20.015625 10.761719 20.015625 9.242188 19.953125 8.789062 C 19.675781 6.761719 18.929688 5.046875 17.652344 3.519531 C 17.28125 3.101562 16.898438 2.71875 16.496094 2.363281 L 16.480469 2.351562 C 14.957031 1.074219 13.226562 0.316406 11.226562 0.0507812 C 11.007812 0.0195312 10.695312 0.0078125 10.109375 0.00390625 C 9.996094 0 9.859375 0 9.722656 0 C 9.550781 0 9.382812 0.00390625 9.210938 0.0078125 C 9.164062 0.0117188 9.015625 0.0273438 8.878906 0.0390625 C 6.957031 0.242188 5.0625 1.058594 3.519531 2.351562 C 3.101562 2.71875 2.71875 3.101562 2.359375 3.507812 L 2.347656 3.519531 C 1.070312 5.046875 0.320312 6.761719 0.046875 8.792969 C -0.015625 9.242188 -0.015625 10.761719 0.046875 11.210938 C 0.324219 13.238281 1.070312 14.953125 2.347656 16.480469 Z M 18.253906 12.460938 C 18.257812 11.65625 18.269531 10.84375 18.273438 10.652344 C 18.28125 10.464844 18.285156 9.929688 18.289062 9.464844 C 18.289062 8.902344 18.296875 8.625 18.3125 8.625 C 18.328125 8.625 18.378906 8.640625 18.429688 8.660156 L 18.425781 8.660156 L 18.515625 8.699219 L 18.5 10.734375 C 18.476562 13.328125 18.476562 13.40625 18.382812 13.628906 C 18.230469 13.996094 18.238281 14.070312 18.253906 12.460938 Z M 17.230469 7.269531 C 17.242188 7.269531 17.300781 7.289062 17.355469 7.308594 L 17.351562 7.3125 C 17.441406 7.347656 17.453125 7.359375 17.453125 7.441406 C 17.457031 8.113281 17.441406 9.648438 17.429688 9.710938 C 17.425781 9.734375 17.300781 9.734375 17.246094 9.714844 C 17.210938 9.703125 17.207031 9.570312 17.207031 8.484375 C 17.207031 7.707031 17.214844 7.269531 17.230469 7.269531 Z M 17.183594 14.5625 L 17.191406 13.507812 L 17.28125 13.414062 C 17.3125 13.378906 17.347656 13.347656 17.386719 13.324219 L 17.390625 13.324219 C 17.398438 13.324219 17.398438 13.785156 17.390625 14.347656 L 17.371094 15.375 L 17.3125 15.464844 C 17.171875 15.671875 17.179688 15.710938 17.183594 14.5625 Z M 5.300781 17.785156 C 5.234375 17.75 5.179688 17.691406 5.191406 17.675781 C 5.191406 17.578125 5.179688 17.484375 5.164062 17.394531 L 5.164062 17.402344 C 5.148438 17.261719 5.125 17.027344 5.117188 16.886719 C 5.105469 16.746094 5.085938 16.484375 5.066406 16.308594 C 5.019531 15.878906 5.019531 15.828125 5.074219 15.828125 C 5.101562 15.828125 5.132812 15.839844 5.148438 15.859375 C 5.167969 15.878906 5.179688 15.9375 5.179688 16 C 5.179688 16.0625 5.207031 16.394531 5.238281 16.738281 C 5.332031 17.683594 5.339844 17.808594 5.300781 17.785156 Z M 5.878906 13.640625 C 5.777344 13.640625 5.777344 13.648438 5.746094 13.214844 C 5.710938 12.773438 5.710938 12.78125 5.777344 12.78125 C 5.808594 12.78125 5.851562 12.796875 5.871094 12.808594 C 5.898438 12.835938 5.917969 12.933594 5.9375 13.199219 C 5.976562 13.679688 5.980469 13.640625 5.878906 13.640625 Z M 6.253906 18.28125 C 6.222656 18.261719 6.203125 18.167969 6.175781 17.886719 C 6.125 17.378906 6.121094 17.398438 6.214844 17.410156 C 6.289062 17.417969 6.296875 17.425781 6.3125 17.515625 C 6.320312 17.570312 6.335938 17.769531 6.34375 17.960938 C 6.363281 18.332031 6.355469 18.359375 6.253906 18.28125 Z M 7.148438 16.484375 C 7.117188 16.492188 7.082031 16.488281 7.074219 16.476562 C 7.054688 16.460938 7 15.914062 6.933594 15.074219 L 6.917969 14.871094 L 6.992188 14.871094 C 7.066406 14.871094 7.070312 14.875 7.082031 15 C 7.101562 15.152344 7.160156 15.882812 7.1875 16.226562 C 7.199219 16.457031 7.199219 16.464844 7.148438 16.484375 Z M 7.925781 15.066406 C 7.878906 15.066406 7.875 15.03125 7.820312 14.332031 C 7.78125 13.785156 7.753906 13.4375 7.722656 13.085938 L 7.738281 13.316406 C 7.714844 13.046875 7.703125 12.824219 7.710938 12.816406 C 7.734375 12.789062 7.808594 12.8125 7.820312 12.847656 C 7.824219 12.871094 7.835938 13.019531 7.847656 13.175781 C 7.855469 13.328125 7.875 13.679688 7.894531 13.949219 C 7.964844 14.941406 7.96875 15.066406 7.925781 15.066406 Z M 15.085938 17.5625 C 15.0625 17.589844 15.039062 17.605469 15.03125 17.597656 C 15.015625 17.578125 14.988281 14.460938 15.007812 14.445312 C 15.019531 14.433594 15.042969 14.429688 15.066406 14.433594 C 15.097656 14.441406 15.105469 14.613281 15.113281 15.976562 C 15.128906 17.40625 15.125 17.515625 15.085938 17.5625 Z M 16.117188 3.183594 C 16.160156 3.214844 16.203125 3.253906 16.226562 3.277344 L 16.222656 3.277344 C 16.253906 3.3125 16.257812 3.851562 16.265625 6.820312 C 16.273438 10.234375 16.273438 10.320312 16.230469 10.320312 C 16.195312 10.320312 16.167969 10.308594 16.140625 10.289062 L 16.144531 10.289062 C 16.105469 10.261719 16.101562 9.964844 16.089844 7.050781 C 16.085938 5.71875 16.074219 4.46875 16.058594 3.21875 L 16.058594 3.488281 L 16.046875 3.132812 Z M 15.1875 9.386719 L 15.121094 9.386719 C 14.96875 9.386719 14.972656 9.421875 14.960938 8.027344 L 14.953125 6.753906 L 15.03125 6.753906 C 15.074219 6.753906 15.128906 6.773438 15.148438 6.792969 C 15.183594 6.828125 15.1875 6.980469 15.1875 8.109375 Z M 14.941406 2.773438 C 14.949219 2.738281 14.949219 2.738281 15.050781 2.78125 L 15.132812 2.816406 L 15.152344 3.144531 C 15.160156 3.324219 15.164062 3.710938 15.160156 4.003906 L 15.152344 4.539062 L 15.046875 4.488281 L 14.945312 4.441406 L 14.9375 3.625 C 14.933594 3.171875 14.933594 2.792969 14.941406 2.773438 Z M 13.859375 3.730469 L 13.929688 3.746094 C 13.964844 3.757812 14.007812 3.773438 14.019531 3.785156 L 14.019531 3.78125 C 14.03125 3.792969 14.042969 3.933594 14.046875 4.09375 C 14.058594 4.636719 14.058594 7.96875 14.046875 7.976562 C 14.042969 7.984375 14 7.972656 13.949219 7.953125 L 13.859375 7.914062 Z M 12.886719 6.097656 C 12.890625 6.320312 12.863281 6.359375 12.730469 6.3125 L 12.65625 6.285156 L 12.65625 6.074219 C 12.65625 5.953125 12.648438 5.613281 12.636719 5.308594 L 12.625 4.765625 L 12.679688 4.765625 C 12.726562 4.769531 12.769531 4.785156 12.808594 4.808594 L 12.804688 4.804688 L 12.875 4.847656 L 12.878906 5.378906 C 12.882812 5.667969 12.886719 5.992188 12.886719 6.097656 Z M 12.769531 2.328125 C 12.839844 2.351562 12.847656 2.363281 12.863281 2.503906 C 12.886719 2.75 12.878906 3.925781 12.851562 3.925781 C 12.78125 3.925781 12.632812 3.84375 12.621094 3.796875 C 12.609375 3.613281 12.605469 3.394531 12.605469 3.179688 C 12.605469 3.125 12.605469 3.070312 12.605469 3.015625 C 12.605469 2.222656 12.597656 2.269531 12.769531 2.328125 Z M 11.414062 0.992188 C 11.425781 0.964844 11.453125 0.960938 11.554688 0.980469 C 11.628906 0.996094 11.6875 1.003906 11.6875 1.007812 L 11.6875 1.011719 C 11.691406 1.011719 11.699219 1.753906 11.707031 2.660156 C 11.714844 3.566406 11.730469 4.382812 11.734375 4.46875 C 11.742188 4.5625 11.742188 4.640625 11.726562 4.644531 C 11.707031 4.648438 11.6875 4.652344 11.660156 4.652344 C 11.636719 4.652344 11.613281 4.648438 11.59375 4.644531 L 11.597656 4.644531 L 11.484375 4.632812 L 11.464844 3.917969 L 11.4375 2.941406 C 11.417969 2.507812 11.402344 1.027344 11.414062 0.992188 Z M 10.292969 3.058594 L 10.421875 3.074219 C 10.46875 3.078125 10.515625 3.089844 10.558594 3.105469 C 10.574219 3.125 10.609375 4.3125 10.613281 4.914062 L 10.613281 5.28125 L 10.5 5.261719 C 10.453125 5.257812 10.410156 5.253906 10.367188 5.246094 L 10.375 5.246094 C 10.367188 5.238281 10.292969 3.417969 10.292969 3.242188 Z M 9.765625 7.234375 Z M 9.132812 0.894531 C 9.167969 0.886719 9.230469 0.878906 9.269531 0.878906 L 9.335938 0.875 L 9.335938 1.070312 C 9.335938 1.355469 9.355469 1.980469 9.382812 2.574219 C 9.398438 2.863281 9.414062 3.28125 9.421875 3.496094 C 9.449219 4.265625 9.527344 6.277344 9.542969 6.457031 L 9.554688 6.636719 L 9.441406 6.625 C 9.398438 6.621094 9.355469 6.613281 9.316406 6.597656 C 9.296875 6.484375 9.285156 6.355469 9.28125 6.222656 L 9.28125 6.21875 C 9.253906 5.902344 9.179688 4.246094 9.113281 2.582031 L 9.078125 1.449219 L 9.0625 0.902344 Z M 7.996094 2.359375 C 8.042969 2.34375 8.09375 2.332031 8.148438 2.332031 C 8.226562 2.328125 8.226562 2.328125 8.226562 2.445312 C 8.226562 2.511719 8.246094 2.875 8.265625 3.261719 L 8.316406 4.351562 C 8.335938 4.777344 8.339844 4.765625 8.175781 4.773438 C 8.09375 4.777344 8.09375 4.777344 8.089844 4.652344 C 8.082031 4.585938 8.070312 4.371094 8.058594 4.171875 C 8.042969 3.976562 8.015625 3.550781 7.996094 3.226562 C 7.976562 2.902344 7.949219 2.578125 7.941406 2.511719 C 7.929688 2.386719 7.929688 2.382812 7.996094 2.359375 Z M 6.988281 3.875 C 7.046875 3.839844 7.113281 3.816406 7.183594 3.808594 L 7.1875 3.808594 C 7.203125 3.804688 7.222656 3.855469 7.230469 3.921875 C 7.238281 3.988281 7.25 4.136719 7.257812 4.257812 L 7.296875 4.871094 C 7.324219 5.300781 7.320312 5.328125 7.179688 5.328125 C 7.105469 5.328125 7.097656 5.320312 7.085938 5.25 C 7.0625 5.101562 6.976562 3.894531 6.988281 3.875 Z M 5.859375 1.851562 C 5.9375 1.808594 5.984375 1.800781 6 1.835938 C 6.015625 1.855469 6.128906 3.210938 6.273438 4.984375 C 6.320312 5.585938 6.367188 6.136719 6.375 6.207031 C 6.386719 6.332031 6.382812 6.335938 6.304688 6.386719 C 6.277344 6.40625 6.246094 6.421875 6.210938 6.433594 L 6.207031 6.433594 C 6.199219 6.433594 6.183594 6.371094 6.175781 6.292969 C 6.144531 5.972656 6.011719 4.429688 5.917969 3.3125 C 5.863281 2.65625 5.8125 2.066406 5.804688 2.003906 C 5.792969 1.894531 5.796875 1.886719 5.859375 1.851562 Z M 8.117188 7.257812 C 8.386719 7.210938 8.699219 7.183594 9.015625 7.183594 C 9.273438 7.183594 9.527344 7.203125 9.773438 7.234375 C 10.328125 7.320312 10.808594 7.472656 11.285156 7.71875 C 11.597656 7.878906 11.746094 7.988281 12.089844 8.316406 C 12.601562 8.808594 12.914062 9.234375 13.210938 9.839844 C 13.640625 10.722656 13.808594 11.5 14.019531 13.589844 C 14.113281 14.527344 14.242188 16.226562 14.265625 16.925781 C 14.273438 17.125 14.292969 17.457031 14.308594 17.660156 C 14.332031 18.09375 14.367188 18.035156 13.984375 18.21875 C 13.453125 18.476562 12.945312 18.652344 12.273438 18.816406 C 11.453125 19.019531 10.921875 19.082031 10.109375 19.085938 L 9.519531 19.089844 L 9.527344 18.804688 C 9.527344 18.652344 9.539062 18.289062 9.554688 18.007812 C 9.628906 16.636719 9.613281 14.90625 9.519531 13.949219 C 9.464844 13.398438 9.359375 12.726562 9.300781 12.582031 C 9.285156 12.550781 9.34375 12.523438 9.585938 12.4375 C 10.03125 12.285156 10.417969 12.089844 10.476562 11.992188 C 10.582031 11.8125 10.394531 11.550781 10.152344 11.550781 C 10.109375 11.550781 9.984375 11.59375 9.871094 11.648438 C 9.316406 11.898438 8.214844 12.199219 7.578125 12.265625 C 7.417969 12.277344 7.234375 12.285156 7.046875 12.285156 C 6.679688 12.285156 6.320312 12.253906 5.96875 12.195312 C 5.710938 12.148438 5.253906 11.972656 4.871094 11.777344 C 4.425781 11.546875 4.152344 11.238281 4.070312 10.875 C 4.027344 10.675781 4.039062 10.285156 4.097656 10.0625 C 4.160156 9.820312 4.328125 9.464844 4.488281 9.257812 C 5.1875 8.335938 6.632812 7.535156 8.117188 7.257812 Z M 4.035156 4.890625 C 4.121094 4.808594 4.128906 4.808594 4.148438 4.851562 C 4.15625 4.875 4.199219 5.285156 4.242188 5.757812 L 4.402344 7.53125 L 4.488281 8.441406 L 4.390625 8.535156 L 4.296875 8.628906 L 4.28125 8.4375 C 4.269531 8.328125 4.222656 7.828125 4.171875 7.320312 C 4.117188 6.8125 4.042969 6.078125 4.007812 5.6875 L 3.9375 4.976562 Z M 3.785156 11.734375 C 3.824219 11.777344 3.859375 11.824219 3.886719 11.878906 L 3.886719 11.882812 C 3.902344 11.945312 3.972656 12.609375 3.972656 12.691406 C 3.972656 12.761719 3.886719 12.824219 3.847656 12.785156 C 3.832031 12.773438 3.800781 12.5625 3.777344 12.324219 L 3.714844 11.757812 L 3.699219 11.636719 Z M 3.515625 9.101562 C 3.554688 9.074219 3.601562 9.050781 3.609375 9.058594 C 3.613281 9.0625 3.628906 9.160156 3.636719 9.273438 C 3.652344 9.472656 3.648438 9.492188 3.574219 9.648438 L 3.496094 9.816406 L 3.46875 9.570312 C 3.421875 9.179688 3.421875 9.160156 3.515625 9.101562 Z M 3.496094 15.898438 L 3.507812 16.003906 L 3.449219 15.964844 C 3.410156 15.941406 3.382812 15.902344 3.382812 15.855469 C 3.382812 15.851562 3.382812 15.847656 3.382812 15.847656 C 3.382812 15.691406 3.277344 14.671875 3.195312 14.046875 C 3.148438 13.691406 3.113281 13.378906 3.113281 13.351562 C 3.113281 13.296875 3.171875 13.277344 3.195312 13.320312 C 3.210938 13.339844 3.304688 14.128906 3.421875 15.203125 C 3.453125 15.527344 3.488281 15.839844 3.496094 15.898438 Z M 3.105469 4.058594 C 3.113281 4.066406 3.136719 4.285156 3.164062 4.546875 L 3.160156 4.546875 L 3.28125 5.757812 C 3.324219 6.164062 3.359375 6.507812 3.359375 6.523438 C 3.359375 6.554688 3.171875 6.648438 3.148438 6.628906 C 3.089844 6.25 3 5.464844 2.917969 4.679688 L 2.890625 4.339844 C 2.890625 4.28125 3.082031 4.03125 3.105469 4.058594 Z M 2.292969 5.160156 C 2.296875 5.167969 2.347656 5.570312 2.402344 6.058594 L 2.398438 6.058594 C 2.453125 6.542969 2.597656 7.832031 2.71875 8.921875 C 2.84375 10.007812 2.957031 11.058594 2.980469 11.257812 C 3 11.453125 3.035156 11.75 3.054688 11.921875 C 3.089844 12.207031 3.089844 12.226562 3.050781 12.257812 C 2.988281 12.300781 2.964844 12.296875 2.964844 12.246094 C 2.964844 12.222656 2.941406 12.035156 2.917969 11.832031 C 2.871094 11.496094 2.796875 10.925781 2.632812 9.644531 C 2.601562 9.386719 2.535156 8.871094 2.488281 8.5 C 2.597656 9.691406 2.488281 8.875 2.382812 8.054688 L 2.179688 6.109375 C 2.136719 5.773438 2.109375 5.476562 2.113281 5.445312 C 2.132812 5.378906 2.277344 5.148438 2.292969 5.160156 Z M 2.011719 10.636719 C 2.078125 10.59375 2.097656 10.617188 2.117188 10.757812 C 2.140625 10.957031 2.3125 12.296875 2.398438 12.953125 C 2.53125 13.96875 2.542969 14.113281 2.484375 14.050781 C 2.445312 13.875 2.402344 13.617188 2.367188 13.355469 L 2.359375 13.292969 C 1.976562 10.640625 1.976562 10.660156 2.011719 10.636719 Z M 1.492188 6.746094 C 1.503906 6.6875 1.53125 6.632812 1.558594 6.582031 C 1.570312 6.585938 1.605469 6.824219 1.644531 7.117188 L 1.648438 7.117188 L 1.800781 8.316406 C 1.847656 8.679688 1.90625 9.136719 1.933594 9.324219 L 1.976562 9.667969 L 1.925781 9.714844 C 1.898438 9.738281 1.867188 9.746094 1.859375 9.738281 C 1.847656 9.730469 1.828125 9.628906 1.8125 9.523438 C 1.796875 9.414062 1.707031 8.78125 1.609375 8.121094 L 1.433594 6.914062 Z M 1.492188 6.746094 "/>
<path style=" stroke:none;fill-rule:nonzero;fill:rgb(0%,0%,0%);fill-opacity:1;" d="M 7.101562 9.289062 C 7.335938 9.425781 7.636719 9.242188 7.636719 8.960938 C 7.636719 8.691406 7.328125 8.511719 7.101562 8.648438 C 6.996094 8.714844 6.925781 8.835938 6.925781 8.96875 C 6.925781 9.101562 6.996094 9.21875 7.101562 9.285156 Z M 7.101562 9.289062 "/>
</g>
</svg>
