<?xml version="1.0" encoding="UTF-8"?>
<svg xmlns="http://www.w3.org/2000/svg" xmlns:xlink="http://www.w3.org/1999/xlink" width="22" height="16" viewBox="0 0 22 16">
<path fill-rule="nonzero" fill="rgb(0%, 56.862745%, 88.627451%)" fill-opacity="1" d="M 21.753906 6.050781 C 21.691406 6 21.144531 5.574219 19.964844 5.574219 C 19.65625 5.574219 19.34375 5.605469 19.035156 5.65625 C 18.8125 4.074219 17.519531 3.308594 17.46875 3.269531 L 17.152344 3.082031 L 16.949219 3.382812 C 16.695312 3.785156 16.5 4.242188 16.390625 4.707031 C 16.175781 5.605469 16.308594 6.453125 16.757812 7.175781 C 16.21875 7.488281 15.34375 7.558594 15.160156 7.570312 L 0.710938 7.570312 C 0.335938 7.570312 0.03125 7.882812 0.03125 8.265625 C 0.0117188 9.546875 0.222656 10.828125 0.660156 12.039062 C 1.160156 13.363281 1.902344 14.34375 2.859375 14.945312 C 3.9375 15.617188 5.695312 16 7.679688 16 C 8.574219 16 9.46875 15.914062 10.355469 15.75 C 11.585938 15.523438 12.765625 15.085938 13.855469 14.457031 C 14.75 13.929688 15.554688 13.257812 16.234375 12.472656 C 17.386719 11.160156 18.066406 9.691406 18.566406 8.386719 C 18.636719 8.386719 18.699219 8.386719 18.769531 8.386719 C 20.019531 8.386719 20.792969 7.882812 21.21875 7.445312 C 21.503906 7.175781 21.71875 6.84375 21.871094 6.472656 L 21.960938 6.203125 Z M 12.8125 7.144531 L 14.746094 7.144531 C 14.835938 7.144531 14.917969 7.074219 14.917969 6.96875 L 14.917969 5.210938 C 14.917969 5.121094 14.847656 5.035156 14.746094 5.035156 L 12.8125 5.035156 C 12.722656 5.035156 12.640625 5.109375 12.640625 5.210938 L 12.640625 6.96875 C 12.648438 7.074219 12.722656 7.144531 12.8125 7.144531 Z M 10.117188 2.109375 L 12.050781 2.109375 C 12.140625 2.109375 12.222656 2.039062 12.222656 1.933594 L 12.222656 0.175781 C 12.222656 0.0820312 12.140625 0 12.050781 0 L 10.117188 0 C 10.023438 0 9.941406 0.0742188 9.941406 0.175781 L 9.941406 1.933594 C 9.941406 2.027344 10.023438 2.109375 10.117188 2.109375 Z M 10.117188 4.632812 L 12.050781 4.632812 C 12.140625 4.632812 12.222656 4.550781 12.222656 4.457031 L 12.222656 2.699219 C 12.222656 2.605469 12.140625 2.523438 12.050781 2.523438 L 10.117188 2.523438 C 10.023438 2.523438 9.941406 2.59375 9.941406 2.699219 L 9.941406 4.457031 C 9.941406 4.550781 10.023438 4.632812 10.117188 4.632812 Z M 7.441406 4.632812 L 9.375 4.632812 C 9.464844 4.632812 9.546875 4.550781 9.546875 4.457031 L 9.546875 2.699219 C 9.546875 2.605469 9.476562 2.523438 9.375 2.523438 L 7.441406 2.523438 C 7.347656 2.523438 7.265625 2.59375 7.265625 2.699219 L 7.265625 4.457031 C 7.265625 4.550781 7.339844 4.632812 7.441406 4.632812 Z M 4.722656 4.632812 L 6.65625 4.632812 C 6.746094 4.632812 6.828125 4.550781 6.828125 4.457031 L 6.828125 2.699219 C 6.828125 2.605469 6.757812 2.523438 6.65625 2.523438 L 4.722656 2.523438 C 4.632812 2.523438 4.550781 2.59375 4.550781 2.699219 L 4.550781 4.457031 C 4.5625 4.550781 4.632812 4.632812 4.722656 4.632812 Z M 10.117188 7.144531 L 12.050781 7.144531 C 12.140625 7.144531 12.222656 7.074219 12.222656 6.96875 L 12.222656 5.210938 C 12.222656 5.121094 12.152344 5.035156 12.050781 5.035156 L 10.117188 5.035156 C 10.023438 5.035156 9.941406 5.109375 9.941406 5.210938 L 9.941406 6.96875 C 9.941406 7.074219 10.023438 7.144531 10.117188 7.144531 Z M 7.441406 7.144531 L 9.375 7.144531 C 9.464844 7.144531 9.546875 7.074219 9.546875 6.96875 L 9.546875 5.210938 C 9.546875 5.121094 9.476562 5.035156 9.375 5.035156 L 7.441406 5.035156 C 7.347656 5.035156 7.265625 5.109375 7.265625 5.210938 L 7.265625 6.96875 C 7.265625 7.074219 7.339844 7.144531 7.441406 7.144531 Z M 4.722656 7.144531 L 6.65625 7.144531 C 6.746094 7.144531 6.828125 7.074219 6.828125 6.96875 L 6.828125 5.210938 C 6.828125 5.121094 6.757812 5.035156 6.65625 5.035156 L 4.722656 5.035156 C 4.632812 5.035156 4.550781 5.109375 4.550781 5.210938 L 4.550781 6.96875 C 4.5625 7.074219 4.632812 7.144531 4.722656 7.144531 Z M 2.058594 7.144531 L 3.992188 7.144531 C 4.082031 7.144531 4.164062 7.074219 4.164062 6.96875 L 4.164062 5.210938 C 4.164062 5.121094 4.09375 5.035156 3.992188 5.035156 L 2.058594 5.035156 C 1.96875 5.035156 1.886719 5.109375 1.886719 5.210938 L 1.886719 6.96875 C 1.894531 7.074219 1.96875 7.144531 2.058594 7.144531 Z M 2.058594 7.144531 "/>
</svg>
