<?xml version="1.0" encoding="UTF-8"?>
<svg xmlns="http://www.w3.org/2000/svg" xmlns:xlink="http://www.w3.org/1999/xlink" width="22" height="22" viewBox="0 0 22 22">
<path fill-rule="nonzero" fill="rgb(2.352941%, 42.745098%, 64.705882%)" fill-opacity="1" d="M 16.96875 6.238281 L 17.175781 5.925781 L 17.535156 6.144531 L 17.695312 6.257812 C 18.082031 6.554688 18.890625 7.3125 19.066406 8.574219 C 19.371094 8.519531 19.683594 8.492188 19.992188 8.492188 C 20.726562 8.492188 21.21875 8.660156 21.5 8.804688 L 21.644531 8.882812 L 21.738281 8.941406 L 22 9.15625 L 21.910156 9.433594 C 21.769531 9.808594 21.546875 10.152344 21.261719 10.4375 C 20.863281 10.847656 20.164062 11.332031 19.050781 11.394531 L 18.804688 11.402344 L 18.601562 11.402344 C 18.09375 12.746094 17.410156 14.261719 16.261719 15.617188 C 15.582031 16.425781 14.773438 17.117188 13.871094 17.664062 C 12.785156 18.308594 11.601562 18.757812 10.363281 18.996094 C 9.480469 19.167969 8.578125 19.253906 7.679688 19.25 C 5.6875 19.25 3.925781 18.855469 2.84375 18.160156 C 1.875 17.542969 1.132812 16.535156 0.636719 15.167969 C 0.199219 13.917969 -0.015625 12.601562 0 11.277344 C -0.00390625 10.925781 0.25 10.625 0.59375 10.566406 L 0.6875 10.558594 L 15.179688 10.558594 L 15.308594 10.550781 L 15.511719 10.527344 C 15.863281 10.480469 16.402344 10.378906 16.777344 10.15625 C 16.328125 9.410156 16.199219 8.539062 16.410156 7.609375 C 16.496094 7.21875 16.636719 6.84375 16.820312 6.492188 Z M 3.972656 7.953125 L 4.027344 7.960938 C 4.078125 7.980469 4.117188 8.023438 4.132812 8.074219 L 4.144531 8.128906 L 4.144531 9.9375 L 4.132812 9.996094 C 4.117188 10.046875 4.078125 10.089844 4.027344 10.109375 L 3.972656 10.117188 L 2.03125 10.117188 C 1.957031 10.113281 1.894531 10.066406 1.871094 9.996094 L 1.863281 9.941406 L 1.863281 8.128906 L 1.871094 8.074219 C 1.886719 8.019531 1.925781 7.980469 1.980469 7.960938 L 2.03125 7.953125 Z M 6.652344 7.953125 L 6.703125 7.960938 C 6.757812 7.980469 6.796875 8.023438 6.8125 8.074219 L 6.820312 8.128906 L 6.820312 9.9375 L 6.808594 9.996094 C 6.792969 10.046875 6.753906 10.089844 6.703125 10.109375 L 6.648438 10.117188 L 4.707031 10.117188 C 4.632812 10.113281 4.570312 10.066406 4.546875 9.996094 L 4.539062 9.941406 L 4.539062 8.128906 C 4.535156 8.054688 4.582031 7.988281 4.65625 7.960938 L 4.707031 7.953125 Z M 9.367188 7.953125 L 9.421875 7.960938 C 9.472656 7.980469 9.511719 8.023438 9.527344 8.074219 L 9.535156 8.128906 L 9.535156 9.9375 L 9.527344 9.996094 C 9.511719 10.046875 9.472656 10.089844 9.421875 10.109375 L 9.367188 10.117188 L 7.425781 10.117188 C 7.351562 10.113281 7.285156 10.066406 7.265625 9.996094 L 7.257812 9.941406 L 7.257812 8.128906 L 7.265625 8.074219 C 7.28125 8.019531 7.320312 7.980469 7.371094 7.960938 L 7.425781 7.953125 Z M 12.050781 7.953125 L 12.105469 7.960938 C 12.15625 7.980469 12.195312 8.023438 12.210938 8.074219 L 12.222656 8.128906 L 12.222656 9.9375 C 12.222656 10.015625 12.175781 10.082031 12.105469 10.109375 L 12.050781 10.117188 L 10.109375 10.117188 C 10.035156 10.113281 9.972656 10.066406 9.949219 9.996094 L 9.941406 9.941406 L 9.941406 8.128906 L 9.949219 8.074219 C 9.964844 8.019531 10.003906 7.980469 10.058594 7.960938 L 10.113281 7.953125 L 12.054688 7.953125 Z M 14.761719 7.953125 L 14.8125 7.960938 C 14.867188 7.980469 14.90625 8.023438 14.921875 8.074219 L 14.929688 8.128906 L 14.929688 9.9375 C 14.929688 10.015625 14.882812 10.082031 14.8125 10.109375 L 14.757812 10.117188 L 12.816406 10.117188 C 12.742188 10.113281 12.679688 10.066406 12.65625 9.996094 L 12.648438 9.941406 L 12.648438 8.128906 L 12.65625 8.074219 C 12.671875 8.019531 12.710938 7.980469 12.765625 7.960938 L 12.820312 7.953125 Z M 6.648438 5.351562 L 6.703125 5.359375 C 6.753906 5.378906 6.792969 5.421875 6.808594 5.472656 L 6.820312 5.527344 L 6.820312 7.335938 C 6.820312 7.414062 6.773438 7.480469 6.703125 7.507812 L 6.648438 7.515625 L 4.707031 7.515625 C 4.632812 7.515625 4.566406 7.464844 4.546875 7.390625 L 4.539062 7.335938 L 4.539062 5.527344 C 4.539062 5.453125 4.585938 5.386719 4.65625 5.359375 L 4.707031 5.351562 Z M 9.363281 5.351562 L 9.421875 5.359375 C 9.472656 5.378906 9.511719 5.421875 9.527344 5.472656 L 9.535156 5.527344 L 9.535156 7.335938 C 9.535156 7.414062 9.488281 7.480469 9.417969 7.507812 L 9.363281 7.515625 L 7.425781 7.515625 C 7.351562 7.515625 7.285156 7.464844 7.265625 7.390625 L 7.257812 7.335938 L 7.257812 5.527344 L 7.265625 5.472656 C 7.28125 5.421875 7.320312 5.378906 7.371094 5.359375 L 7.425781 5.351562 L 9.367188 5.351562 Z M 12.050781 5.351562 C 12.125 5.351562 12.1875 5.402344 12.210938 5.472656 L 12.222656 5.527344 L 12.222656 7.335938 C 12.222656 7.414062 12.175781 7.480469 12.105469 7.507812 L 12.050781 7.515625 L 10.109375 7.515625 C 10.035156 7.515625 9.96875 7.464844 9.949219 7.390625 L 9.941406 7.335938 L 9.941406 5.527344 L 9.949219 5.472656 C 9.964844 5.421875 10.003906 5.378906 10.058594 5.359375 L 10.113281 5.351562 L 12.054688 5.351562 Z M 12.050781 2.75 C 12.125 2.75 12.1875 2.800781 12.210938 2.871094 L 12.222656 2.925781 L 12.222656 4.734375 C 12.222656 4.8125 12.175781 4.878906 12.105469 4.90625 L 12.050781 4.914062 L 10.109375 4.914062 C 10.035156 4.910156 9.972656 4.863281 9.949219 4.792969 L 9.941406 4.738281 L 9.941406 2.925781 L 9.949219 2.871094 C 9.964844 2.820312 10.003906 2.777344 10.058594 2.757812 L 10.109375 2.75 Z M 12.050781 2.75 "/>
</svg>
