<?xml version="1.0" encoding="UTF-8"?>
<svg xmlns="http://www.w3.org/2000/svg" xmlns:xlink="http://www.w3.org/1999/xlink" width="22px" height="22px" viewBox="0 0 22 22" version="1.1">
<g id="surface1">
<path style=" stroke:none;fill-rule:nonzero;fill:rgb(100%,100%,100%);fill-opacity:1;" d="M 3.300781 0 L 18.699219 0 C 20.523438 0 22 1.476562 22 3.300781 L 22 18.699219 C 22 20.523438 20.523438 22 18.699219 22 L 3.300781 22 C 1.476562 22 0 20.523438 0 18.699219 L 0 3.300781 C 0 1.476562 1.476562 0 3.300781 0 Z M 3.300781 0 "/>
<path style="fill-rule:nonzero;fill:rgb(0%,0%,0%);fill-opacity:1;stroke-width:38;stroke-linecap:butt;stroke-linejoin:miter;stroke:rgb(2.352941%,42.745098%,64.705884%);stroke-opacity:1;stroke-miterlimit:4;" d="M 296.000334 226.000255 L 338.000381 226.000255 M 246.000277 226.000255 L 288.000325 226.000255 M 196.909313 226.000255 L 238.90936 226.000255 M 148.000167 226.000255 L 188.909304 226.000255 M 98.00011 226.000255 L 140.000158 226.000255 M 148.000167 180.000203 L 188.909304 180.000203 M 196.909313 180.000203 L 238.90936 180.000203 M 246.000277 180.000203 L 288.000325 180.000203 M 246.000277 134.000151 L 288.000325 134.000151 " transform="matrix(0.0429687,0,0,0.0429687,0,0)"/>
<path style=" stroke:none;fill-rule:nonzero;fill:rgb(2.352941%,42.745098%,64.705884%);fill-opacity:1;" d="M 20.28125 9.796875 C 20.28125 9.796875 19.507812 9.0625 17.921875 9.328125 C 17.75 8.078125 16.414062 7.34375 16.414062 7.34375 C 16.414062 7.34375 15.171875 8.851562 16.070312 10.53125 C 15.8125 10.65625 15.382812 10.828125 14.734375 10.828125 L 2.921875 10.828125 C 2.703125 11.640625 2.703125 17.0625 8.640625 17.0625 C 12.890625 17.0625 16.070312 15.078125 17.578125 11.46875 C 19.8125 11.640625 20.28125 9.796875 20.28125 9.796875 "/>
</g>
</svg>
