<?xml version="1.0" encoding="UTF-8"?>
<svg xmlns="http://www.w3.org/2000/svg" xmlns:xlink="http://www.w3.org/1999/xlink" width="22" height="22" viewBox="0 0 22 22">
<path fill-rule="nonzero" fill="rgb(28.627451%, 28.627451%, 28.627451%)" fill-opacity="1" d="M 11 0 C 17.074219 0 22 4.925781 22 11 C 22 17.074219 17.074219 22 11 22 C 4.925781 22 0 17.074219 0 11 C 0 4.925781 4.925781 0 11 0 Z M 11 0 "/>
<path fill-rule="nonzero" fill="rgb(100%, 100%, 100%)" fill-opacity="1" d="M 11 1.328125 C 16.339844 1.328125 20.671875 5.660156 20.671875 11 C 20.671875 16.339844 16.339844 20.671875 11 20.671875 C 5.660156 20.671875 1.328125 16.339844 1.328125 11 C 1.328125 5.660156 5.660156 1.328125 11 1.328125 Z M 11 1.328125 "/>
<path fill-rule="nonzero" fill="rgb(28.627451%, 28.627451%, 28.627451%)" fill-opacity="1" d="M 6 11.210938 C 6.023438 12.8125 7.035156 13.46875 8.234375 13.46875 C 8.851562 13.492188 9.46875 13.378906 10.035156 13.132812 L 10.238281 13.984375 C 9.554688 14.28125 8.816406 14.425781 8.070312 14.414062 C 6.070312 14.414062 4.867188 13.066406 4.867188 11.125 C 4.867188 9.1875 6.023438 7.613281 7.933594 7.613281 C 10.050781 7.613281 10.617188 9.46875 10.617188 10.667969 C 10.617188 10.855469 10.601562 11.039062 10.5625 11.222656 Z M 9.472656 10.367188 C 9.472656 9.625 9.160156 8.457031 7.828125 8.457031 C 6.628906 8.457031 6.105469 9.546875 6.011719 10.367188 Z M 9.472656 10.367188 "/>
<path fill-rule="nonzero" fill="rgb(28.627451%, 28.627451%, 28.627451%)" fill-opacity="1" d="M 12.59375 7.746094 L 13.523438 9.132812 C 13.777344 9.496094 13.96875 9.835938 14.183594 10.1875 L 14.210938 10.1875 C 14.425781 9.820312 14.65625 9.472656 14.871094 9.121094 L 15.773438 7.746094 L 17.066406 7.746094 L 14.84375 10.886719 L 17.132812 14.253906 L 15.800781 14.253906 L 14.832031 12.796875 C 14.578125 12.40625 14.359375 12.039062 14.128906 11.652344 L 14.101562 11.652344 C 13.886719 12.058594 13.660156 12.394531 13.417969 12.796875 L 12.472656 14.253906 L 11.167969 14.253906 L 13.484375 10.925781 L 11.277344 7.746094 Z M 12.59375 7.746094 "/>
</svg>
