<?xml version="1.0" encoding="UTF-8"?>
<svg xmlns="http://www.w3.org/2000/svg" xmlns:xlink="http://www.w3.org/1999/xlink" width="22" height="22" viewBox="0 0 22 22">
<path fill-rule="nonzero" fill="rgb(0%, 0%, 0%)" fill-opacity="1" d="M 22 17.039062 C 21.335938 17.289062 20.59375 17.007812 20.261719 16.378906 L 17.101562 12.003906 L 16.640625 11.394531 L 12.972656 16.382812 C 12.664062 16.984375 11.957031 17.261719 11.320312 17.035156 L 16.050781 10.691406 L 11.652344 4.960938 C 12.300781 4.726562 13.03125 4.980469 13.390625 5.570312 L 16.671875 10 L 19.96875 5.589844 C 20.277344 5 20.984375 4.734375 21.605469 4.976562 L 19.898438 7.242188 L 17.585938 10.25 C 17.457031 10.367188 17.382812 10.53125 17.382812 10.707031 C 17.382812 10.878906 17.457031 11.046875 17.585938 11.164062 L 21.992188 17.039062 Z M 0 10.613281 L 0.386719 8.710938 C 1.445312 4.949219 5.757812 3.382812 8.722656 5.710938 C 10.460938 7.078125 10.894531 9.007812 10.808594 11.1875 L 1.023438 11.1875 C 0.863281 15.078125 3.671875 17.425781 7.261719 16.226562 C 8.441406 15.800781 9.332031 14.808594 9.625 13.589844 C 9.816406 12.976562 10.128906 12.875 10.703125 13.050781 C 10.507812 14.558594 9.632812 15.894531 8.328125 16.675781 C 6.148438 17.871094 3.445312 17.527344 1.632812 15.820312 C 0.757812 14.839844 0.230469 13.597656 0.128906 12.285156 C 0.128906 12.070312 0.0546875 11.867188 0.0078125 11.675781 C 0.00390625 11.320312 0 10.964844 0 10.613281 Z M 1.035156 10.347656 L 9.882812 10.347656 C 9.828125 7.53125 8.050781 5.53125 5.675781 5.511719 C 3.035156 5.472656 1.144531 7.429688 1.027344 10.335938 Z M 1.035156 10.347656 "/>
</svg>
