<?xml version="1.0" encoding="UTF-8"?>
<svg xmlns="http://www.w3.org/2000/svg" xmlns:xlink="http://www.w3.org/1999/xlink" width="20px" height="20px" viewBox="0 0 20 20" version="1.1">
<g id="surface1">
<path style=" stroke:none;fill-rule:nonzero;fill:rgb(0.392157%,0.392157%,0.392157%);fill-opacity:1;" d="M 19.949219 15.472656 C 19.226562 15.65625 18.777344 15.480469 18.375 14.878906 L 15.519531 10.925781 L 15.109375 10.378906 L 11.769531 14.890625 C 11.386719 15.433594 10.988281 15.671875 10.277344 15.480469 L 14.550781 9.742188 L 10.570312 4.5625 C 11.257812 4.429688 11.726562 4.496094 12.148438 5.113281 L 15.113281 9.113281 L 18.097656 5.132812 C 18.480469 4.59375 18.890625 4.382812 19.578125 4.585938 L 18.035156 6.628906 L 15.945312 9.347656 C 15.699219 9.65625 15.730469 9.871094 15.960938 10.171875 Z M 0.0546875 9.648438 L 0.402344 7.929688 C 1.355469 4.527344 5.257812 3.113281 7.945312 5.214844 C 9.515625 6.453125 9.90625 8.203125 9.828125 10.160156 L 0.96875 10.160156 C 0.835938 13.6875 3.375 15.8125 6.609375 14.726562 C 7.746094 14.347656 8.414062 13.457031 8.746094 12.347656 C 8.917969 11.789062 9.199219 11.703125 9.722656 11.859375 C 9.453125 13.25 8.851562 14.410156 7.574219 15.140625 C 5.671875 16.226562 2.953125 15.875 1.523438 14.363281 C 0.671875 13.484375 0.320312 12.375 0.160156 11.1875 C 0.136719 10.988281 0.0898438 10.800781 0.0507812 10.613281 C 0.0507812 10.292969 0.0546875 9.96875 0.0546875 9.648438 Z M 0.984375 9.410156 L 8.992188 9.410156 C 8.941406 6.863281 7.351562 5.050781 5.183594 5.035156 C 2.800781 5.015625 1.089844 6.785156 0.984375 9.410156 Z M 0.984375 9.410156 "/>
</g>
</svg>
