<?xml version="1.0" encoding="UTF-8"?>
<svg xmlns="http://www.w3.org/2000/svg" xmlns:xlink="http://www.w3.org/1999/xlink" width="22px" height="22px" viewBox="0 0 22 22" version="1.1">
<g id="surface1">
<path style=" stroke:none;fill-rule:nonzero;fill:rgb(0.392157%,0.392157%,0.392157%);fill-opacity:1;" d="M 21.945312 17.019531 C 21.148438 17.222656 20.65625 17.03125 20.210938 16.367188 L 17.070312 12.015625 L 16.621094 11.414062 L 12.945312 16.378906 C 12.527344 16.976562 12.085938 17.238281 11.304688 17.03125 L 16.003906 10.71875 L 11.625 5.019531 C 12.382812 4.875 12.898438 4.945312 13.359375 5.625 L 16.625 10.023438 L 19.90625 5.644531 C 20.328125 5.054688 20.78125 4.820312 21.535156 5.046875 L 19.835938 7.289062 L 17.539062 10.28125 C 17.269531 10.621094 17.304688 10.859375 17.558594 11.1875 Z M 0.0625 10.609375 L 0.445312 8.71875 C 1.492188 4.980469 5.78125 3.421875 8.738281 5.738281 C 10.46875 7.097656 10.898438 9.023438 10.8125 11.175781 L 1.066406 11.175781 C 0.921875 15.054688 3.710938 17.394531 7.269531 16.203125 C 8.523438 15.78125 9.253906 14.800781 9.621094 13.582031 C 9.8125 12.964844 10.121094 12.875 10.695312 13.046875 C 10.398438 14.574219 9.734375 15.851562 8.332031 16.65625 C 6.238281 17.847656 3.25 17.460938 1.671875 15.796875 C 0.738281 14.832031 0.351562 13.613281 0.175781 12.304688 C 0.152344 12.085938 0.101562 11.878906 0.0546875 11.671875 C 0.0546875 11.324219 0.0625 10.964844 0.0625 10.609375 Z M 1.082031 10.351562 L 9.894531 10.351562 C 9.835938 7.546875 8.085938 5.554688 5.703125 5.539062 C 3.078125 5.515625 1.199219 7.460938 1.082031 10.351562 Z M 1.082031 10.351562 "/>
</g>
</svg>
