<?xml version="1.0" encoding="UTF-8"?>
<svg xmlns="http://www.w3.org/2000/svg" xmlns:xlink="http://www.w3.org/1999/xlink" width="22" height="22" viewBox="0 0 22 22">
<path fill-rule="evenodd" fill="rgb(9.411765%, 8.627451%, 8.627451%)" fill-opacity="1" d="M 11 0.875 C 5.265625 0.875 0.617188 5.527344 0.617188 11.257812 C 0.617188 15.84375 3.59375 19.730469 7.71875 21.105469 C 8.234375 21.203125 8.425781 20.878906 8.425781 20.609375 C 8.425781 20.355469 8.417969 19.542969 8.414062 18.671875 C 5.527344 19.300781 4.914062 17.449219 4.914062 17.449219 C 4.441406 16.253906 3.765625 15.929688 3.765625 15.929688 C 2.820312 15.28125 3.835938 15.300781 3.835938 15.300781 C 4.878906 15.371094 5.429688 16.375 5.429688 16.375 C 6.351562 17.957031 7.855469 17.496094 8.449219 17.234375 C 8.539062 16.5625 8.8125 16.105469 9.105469 15.84375 C 6.804688 15.578125 4.378906 14.691406 4.378906 10.71875 C 4.378906 9.578125 4.78125 8.65625 5.449219 7.925781 C 5.335938 7.664062 4.984375 6.613281 5.546875 5.183594 C 5.546875 5.183594 6.421875 4.902344 8.402344 6.25 C 9.230469 6.015625 10.121094 5.898438 11 5.894531 C 11.878906 5.898438 12.769531 6.015625 13.597656 6.242188 C 15.578125 4.902344 16.453125 5.183594 16.453125 5.183594 C 17.015625 6.613281 16.65625 7.664062 16.550781 7.925781 C 17.21875 8.65625 17.621094 9.578125 17.621094 10.710938 C 17.621094 14.699219 15.195312 15.574219 12.882812 15.832031 C 13.253906 16.15625 13.585938 16.789062 13.585938 17.757812 C 13.585938 19.148438 13.574219 20.265625 13.574219 20.609375 C 13.574219 20.882812 13.765625 21.207031 14.285156 21.101562 C 18.40625 19.730469 21.382812 15.84375 21.382812 11.257812 C 21.382812 5.527344 16.734375 0.875 11 0.875 Z M 11 0.875 "/>
<path fill-rule="nonzero" fill="rgb(9.411765%, 8.627451%, 8.627451%)" fill-opacity="1" d="M 4.550781 15.777344 C 4.53125 15.828125 4.449219 15.847656 4.371094 15.8125 C 4.296875 15.777344 4.257812 15.707031 4.28125 15.65625 C 4.300781 15.601562 4.382812 15.589844 4.460938 15.625 C 4.535156 15.65625 4.574219 15.726562 4.550781 15.777344 Z M 4.96875 16.246094 C 4.921875 16.292969 4.828125 16.273438 4.761719 16.203125 C 4.691406 16.125 4.679688 16.03125 4.730469 15.984375 C 4.78125 15.9375 4.878906 15.957031 4.9375 16.03125 C 5.011719 16.105469 5.023438 16.203125 4.96875 16.246094 Z M 5.378906 16.84375 C 5.320312 16.890625 5.210938 16.847656 5.148438 16.757812 C 5.085938 16.664062 5.085938 16.550781 5.152344 16.507812 C 5.21875 16.464844 5.320312 16.503906 5.382812 16.597656 C 5.449219 16.6875 5.449219 16.796875 5.378906 16.84375 Z M 5.945312 17.425781 C 5.890625 17.484375 5.761719 17.46875 5.675781 17.386719 C 5.585938 17.296875 5.5625 17.183594 5.617188 17.117188 C 5.675781 17.054688 5.796875 17.070312 5.890625 17.15625 C 5.976562 17.242188 6 17.359375 5.945312 17.425781 Z M 6.71875 17.757812 C 6.6875 17.839844 6.578125 17.875 6.460938 17.839844 C 6.339844 17.804688 6.257812 17.710938 6.289062 17.632812 C 6.3125 17.546875 6.429688 17.511719 6.546875 17.546875 C 6.664062 17.582031 6.742188 17.675781 6.71875 17.757812 Z M 7.566406 17.820312 C 7.566406 17.90625 7.464844 17.976562 7.34375 17.976562 C 7.222656 17.980469 7.117188 17.914062 7.117188 17.828125 C 7.117188 17.742188 7.21875 17.671875 7.339844 17.667969 C 7.460938 17.667969 7.566406 17.738281 7.566406 17.820312 Z M 8.355469 17.6875 C 8.371094 17.773438 8.285156 17.855469 8.164062 17.878906 C 8.042969 17.902344 7.933594 17.847656 7.914062 17.769531 C 7.898438 17.683594 7.988281 17.597656 8.109375 17.578125 C 8.230469 17.550781 8.339844 17.601562 8.355469 17.6875 Z M 8.355469 17.6875 "/>
</svg>
