<?xml version="1.0" encoding="UTF-8"?>
<svg xmlns="http://www.w3.org/2000/svg" xmlns:xlink="http://www.w3.org/1999/xlink" width="20px" height="20px" viewBox="0 0 20 20" version="1.1">
<g id="surface1">
<path style=" stroke:none;fill-rule:evenodd;fill:rgb(9.411765%,8.627451%,8.627451%);fill-opacity:1;" d="M 10 0.796875 C 4.789062 0.796875 0.5625 5.023438 0.5625 10.234375 C 0.5625 14.402344 3.269531 17.9375 7.015625 19.1875 C 7.488281 19.273438 7.660156 18.980469 7.660156 18.734375 C 7.660156 18.507812 7.652344 17.765625 7.648438 16.976562 C 5.023438 17.546875 4.46875 15.863281 4.46875 15.863281 C 4.039062 14.773438 3.421875 14.480469 3.421875 14.480469 C 2.566406 13.894531 3.488281 13.910156 3.488281 13.910156 C 4.433594 13.976562 4.933594 14.882812 4.933594 14.882812 C 5.773438 16.324219 7.140625 15.90625 7.679688 15.664062 C 7.761719 15.054688 8.007812 14.640625 8.277344 14.402344 C 6.183594 14.164062 3.980469 13.355469 3.980469 9.742188 C 3.980469 8.710938 4.347656 7.867188 4.953125 7.207031 C 4.851562 6.96875 4.53125 6.011719 5.042969 4.710938 C 5.042969 4.710938 5.835938 4.457031 7.636719 5.679688 C 8.390625 5.46875 9.199219 5.363281 10 5.359375 C 10.800781 5.363281 11.609375 5.46875 12.363281 5.675781 C 14.164062 4.457031 14.957031 4.710938 14.957031 4.710938 C 15.46875 6.011719 15.144531 6.96875 15.046875 7.207031 C 15.652344 7.867188 16.019531 8.710938 16.019531 9.738281 C 16.019531 13.363281 13.8125 14.160156 11.710938 14.394531 C 12.050781 14.6875 12.351562 15.261719 12.351562 16.144531 C 12.351562 17.40625 12.339844 18.421875 12.339844 18.734375 C 12.339844 18.984375 12.511719 19.277344 12.988281 19.183594 C 16.734375 17.9375 19.4375 14.402344 19.4375 10.234375 C 19.4375 5.023438 15.210938 0.796875 10 0.796875 Z M 10 0.796875 "/>
<path style=" stroke:none;fill-rule:nonzero;fill:rgb(9.411765%,8.627451%,8.627451%);fill-opacity:1;" d="M 4.136719 14.34375 C 4.117188 14.390625 4.042969 14.40625 3.976562 14.375 C 3.90625 14.34375 3.871094 14.277344 3.890625 14.230469 C 3.910156 14.183594 3.984375 14.171875 4.054688 14.203125 C 4.121094 14.234375 4.160156 14.296875 4.136719 14.34375 Z M 4.519531 14.769531 C 4.476562 14.8125 4.386719 14.792969 4.328125 14.726562 C 4.265625 14.660156 4.253906 14.574219 4.300781 14.53125 C 4.347656 14.488281 4.433594 14.507812 4.492188 14.574219 C 4.554688 14.640625 4.566406 14.730469 4.519531 14.769531 Z M 4.890625 15.3125 C 4.835938 15.355469 4.738281 15.316406 4.679688 15.234375 C 4.625 15.148438 4.625 15.046875 4.683594 15.007812 C 4.742188 14.96875 4.835938 15.003906 4.894531 15.085938 C 4.953125 15.171875 4.953125 15.273438 4.890625 15.3125 Z M 5.402344 15.839844 C 5.351562 15.898438 5.238281 15.882812 5.160156 15.804688 C 5.078125 15.726562 5.054688 15.621094 5.105469 15.5625 C 5.160156 15.503906 5.269531 15.519531 5.351562 15.597656 C 5.433594 15.675781 5.457031 15.78125 5.402344 15.839844 Z M 6.105469 16.144531 C 6.082031 16.21875 5.976562 16.25 5.871094 16.21875 C 5.761719 16.1875 5.691406 16.101562 5.714844 16.027344 C 5.738281 15.953125 5.84375 15.917969 5.949219 15.949219 C 6.058594 15.984375 6.128906 16.070312 6.105469 16.144531 Z M 6.878906 16.199219 C 6.878906 16.277344 6.789062 16.34375 6.675781 16.34375 C 6.566406 16.347656 6.472656 16.285156 6.472656 16.207031 C 6.472656 16.128906 6.5625 16.066406 6.671875 16.0625 C 6.785156 16.0625 6.878906 16.125 6.878906 16.199219 Z M 7.597656 16.078125 C 7.609375 16.15625 7.53125 16.230469 7.421875 16.253906 C 7.3125 16.273438 7.210938 16.226562 7.195312 16.152344 C 7.179688 16.074219 7.261719 15.996094 7.371094 15.976562 C 7.480469 15.957031 7.582031 16 7.597656 16.078125 Z M 7.597656 16.078125 "/>
</g>
</svg>
