<?xml version="1.0" encoding="UTF-8"?>
<svg xmlns="http://www.w3.org/2000/svg" xmlns:xlink="http://www.w3.org/1999/xlink" width="22" height="22" viewBox="0 0 22 22">
<path fill-rule="nonzero" fill="rgb(98.823529%, 42.745098%, 14.901961%)" fill-opacity="1" d="M 21.761719 12.425781 L 20.554688 8.710938 L 18.15625 1.328125 C 18.03125 0.957031 17.496094 0.957031 17.375 1.328125 L 14.980469 8.710938 L 7.019531 8.710938 L 4.625 1.328125 C 4.503906 0.957031 3.96875 0.957031 3.84375 1.328125 L 1.445312 8.710938 L 0.238281 12.425781 C 0.125 12.765625 0.246094 13.136719 0.535156 13.351562 L 11 20.953125 L 21.464844 13.351562 C 21.753906 13.136719 21.875 12.765625 21.761719 12.425781 "/>
<path fill-rule="nonzero" fill="rgb(88.627451%, 26.27451%, 16.078431%)" fill-opacity="1" d="M 11 20.953125 L 14.980469 8.710938 L 7.019531 8.710938 Z M 11 20.953125 "/>
<path fill-rule="nonzero" fill="rgb(98.823529%, 42.745098%, 14.901961%)" fill-opacity="1" d="M 11 20.953125 L 7.019531 8.710938 L 1.445312 8.710938 Z M 11 20.953125 "/>
<path fill-rule="nonzero" fill="rgb(98.823529%, 63.921569%, 14.901961%)" fill-opacity="1" d="M 1.445312 8.710938 L 0.238281 12.425781 C 0.125 12.765625 0.246094 13.136719 0.535156 13.351562 L 11 20.953125 Z M 1.445312 8.710938 "/>
<path fill-rule="nonzero" fill="rgb(88.627451%, 26.27451%, 16.078431%)" fill-opacity="1" d="M 1.445312 8.710938 L 7.019531 8.710938 L 4.625 1.328125 C 4.503906 0.957031 3.96875 0.957031 3.84375 1.328125 Z M 1.445312 8.710938 "/>
<path fill-rule="nonzero" fill="rgb(98.823529%, 42.745098%, 14.901961%)" fill-opacity="1" d="M 11 20.953125 L 14.980469 8.710938 L 20.554688 8.710938 Z M 11 20.953125 "/>
<path fill-rule="nonzero" fill="rgb(98.823529%, 63.921569%, 14.901961%)" fill-opacity="1" d="M 20.554688 8.710938 L 21.761719 12.425781 C 21.875 12.765625 21.753906 13.136719 21.464844 13.351562 L 11 20.953125 Z M 20.554688 8.710938 "/>
<path fill-rule="nonzero" fill="rgb(88.627451%, 26.27451%, 16.078431%)" fill-opacity="1" d="M 20.554688 8.710938 L 14.980469 8.710938 L 17.375 1.328125 C 17.496094 0.957031 18.03125 0.957031 18.15625 1.328125 Z M 20.554688 8.710938 "/>
</svg>
