<?xml version="1.0" encoding="UTF-8"?>
<svg xmlns="http://www.w3.org/2000/svg" xmlns:xlink="http://www.w3.org/1999/xlink" width="20px" height="20px" viewBox="0 0 20 20" version="1.1">
<g id="surface1">
<path style=" stroke:none;fill-rule:nonzero;fill:rgb(98.823529%,42.745098%,14.901961%);fill-opacity:1;" d="M 19.785156 11.296875 L 18.683594 7.917969 L 16.507812 1.210938 C 16.394531 0.867188 15.90625 0.867188 15.792969 1.210938 L 13.617188 7.917969 L 6.382812 7.917969 L 4.207031 1.210938 C 4.09375 0.867188 3.605469 0.867188 3.492188 1.210938 L 1.316406 7.917969 L 0.214844 11.296875 C 0.117188 11.605469 0.226562 11.945312 0.488281 12.136719 L 10 19.046875 L 19.511719 12.136719 C 19.773438 11.945312 19.882812 11.605469 19.785156 11.296875 "/>
<path style=" stroke:none;fill-rule:nonzero;fill:rgb(88.627452%,26.274511%,16.078432%);fill-opacity:1;" d="M 10 19.046875 L 13.617188 7.917969 L 6.382812 7.917969 Z M 10 19.046875 "/>
<path style=" stroke:none;fill-rule:nonzero;fill:rgb(98.823529%,42.745098%,14.901961%);fill-opacity:1;" d="M 10 19.046875 L 6.382812 7.917969 L 1.316406 7.917969 Z M 10 19.046875 "/>
<path style=" stroke:none;fill-rule:nonzero;fill:rgb(98.823529%,63.921571%,14.901961%);fill-opacity:1;" d="M 1.316406 7.917969 L 0.214844 11.296875 C 0.117188 11.605469 0.226562 11.945312 0.488281 12.136719 L 10 19.046875 Z M 1.316406 7.917969 "/>
<path style=" stroke:none;fill-rule:nonzero;fill:rgb(88.627452%,26.274511%,16.078432%);fill-opacity:1;" d="M 1.316406 7.917969 L 6.382812 7.917969 L 4.207031 1.210938 C 4.09375 0.867188 3.605469 0.867188 3.492188 1.210938 Z M 1.316406 7.917969 "/>
<path style=" stroke:none;fill-rule:nonzero;fill:rgb(98.823529%,42.745098%,14.901961%);fill-opacity:1;" d="M 10 19.046875 L 13.617188 7.917969 L 18.683594 7.917969 Z M 10 19.046875 "/>
<path style=" stroke:none;fill-rule:nonzero;fill:rgb(98.823529%,63.921571%,14.901961%);fill-opacity:1;" d="M 18.683594 7.917969 L 19.785156 11.296875 C 19.882812 11.605469 19.773438 11.945312 19.511719 12.136719 L 10 19.046875 Z M 18.683594 7.917969 "/>
<path style=" stroke:none;fill-rule:nonzero;fill:rgb(88.627452%,26.274511%,16.078432%);fill-opacity:1;" d="M 18.683594 7.917969 L 13.617188 7.917969 L 15.792969 1.210938 C 15.90625 0.867188 16.394531 0.867188 16.507812 1.210938 Z M 18.683594 7.917969 "/>
</g>
</svg>
