<?xml version="1.0" encoding="UTF-8"?>
<svg xmlns="http://www.w3.org/2000/svg" xmlns:xlink="http://www.w3.org/1999/xlink" width="22px" height="22px" viewBox="0 0 22 22" version="1.1">
<defs>
<clipPath id="clip1">
  <path d="M 14.667969 19 L 16.71875 19 L 16.71875 21.121094 L 14.667969 21.121094 Z M 14.667969 19 "/>
</clipPath>
<clipPath id="clip2">
  <path d="M 14.667969 19 L 16.761719 19 L 16.761719 21.828125 L 14.667969 21.828125 Z M 14.667969 19 "/>
</clipPath>
<clipPath id="clip3">
  <path d="M 5 19.359375 L 7.699219 19.359375 L 7.699219 21.828125 L 5 21.828125 Z M 5 19.359375 "/>
</clipPath>
<clipPath id="clip4">
  <path d="M 4.398438 0.171875 L 17.601562 0.171875 L 17.601562 20.898438 L 4.398438 20.898438 Z M 4.398438 0.171875 "/>
</clipPath>
<clipPath id="clip5">
  <path d="M 4.398438 0.171875 L 17.601562 0.171875 L 17.601562 20.953125 L 4.398438 20.953125 Z M 4.398438 0.171875 "/>
</clipPath>
</defs>
<g id="surface1">
<path style=" stroke:none;fill-rule:evenodd;fill:rgb(96.470588%,82.352942%,63.529414%);fill-opacity:1;" d="M 3.625 11.808594 C 3.660156 12.410156 4.261719 12.132812 4.539062 11.945312 C 4.796875 11.757812 4.882812 11.910156 4.898438 11.550781 C 4.914062 11.308594 4.933594 11.085938 4.933594 10.84375 C 4.539062 10.8125 4.109375 10.898438 3.78125 11.136719 C 3.625 11.257812 3.300781 11.652344 3.625 11.808594 "/>
<path style=" stroke:none;fill-rule:nonzero;fill:rgb(0%,0%,0%);fill-opacity:1;" d="M 3.953125 12.238281 C 3.832031 12.238281 3.609375 12.1875 3.574219 11.84375 C 3.472656 11.773438 3.4375 11.6875 3.4375 11.636719 C 3.421875 11.429688 3.644531 11.1875 3.765625 11.101562 C 4.039062 10.898438 4.398438 10.792969 4.777344 10.792969 L 5 10.792969 L 5 10.84375 C 5.019531 11.035156 5 11.222656 4.984375 11.394531 C 4.984375 11.445312 4.984375 11.5 4.96875 11.550781 C 4.949219 11.808594 4.898438 11.84375 4.777344 11.894531 C 4.726562 11.910156 4.675781 11.929688 4.589844 11.996094 C 4.503906 12.046875 4.210938 12.238281 3.953125 12.238281 Z M 4.777344 10.898438 C 4.417969 10.898438 4.089844 11 3.832031 11.1875 C 3.710938 11.273438 3.539062 11.480469 3.558594 11.617188 C 3.558594 11.671875 3.59375 11.722656 3.660156 11.757812 L 3.695312 11.773438 L 3.695312 11.808594 C 3.710938 12.082031 3.851562 12.117188 3.953125 12.117188 C 4.125 12.117188 4.367188 11.996094 4.519531 11.894531 C 4.625 11.824219 4.691406 11.808594 4.742188 11.789062 C 4.828125 11.757812 4.847656 11.757812 4.863281 11.550781 C 4.863281 11.5 4.863281 11.445312 4.882812 11.394531 C 4.898438 11.242188 4.898438 11.070312 4.898438 10.914062 C 4.847656 10.898438 4.8125 10.898438 4.777344 10.898438 Z M 4.777344 10.898438 "/>
<path style=" stroke:none;fill-rule:evenodd;fill:rgb(77.64706%,69.411767%,59.607846%);fill-opacity:1;" d="M 3.625 11.808594 C 3.710938 11.773438 3.816406 11.757812 3.867188 11.671875 "/>
<path style=" stroke:none;fill-rule:nonzero;fill:rgb(0%,0%,0%);fill-opacity:1;" d="M 3.625 11.859375 C 3.609375 11.859375 3.574219 11.84375 3.574219 11.824219 C 3.558594 11.789062 3.574219 11.757812 3.609375 11.757812 C 3.625 11.757812 3.644531 11.738281 3.644531 11.738281 C 3.710938 11.703125 3.78125 11.6875 3.816406 11.636719 C 3.832031 11.617188 3.867188 11.601562 3.902344 11.617188 C 3.917969 11.636719 3.9375 11.671875 3.917969 11.703125 C 3.851562 11.789062 3.765625 11.824219 3.695312 11.84375 L 3.660156 11.859375 Z M 3.625 11.859375 "/>
<path style=" stroke:none;fill-rule:evenodd;fill:rgb(41.568628%,84.313726%,89.803922%);fill-opacity:1;" d="M 5.035156 4.539062 C 2.699219 3.882812 4.433594 0.910156 6.308594 2.132812 Z M 5.035156 4.539062 "/>
<path style=" stroke:none;fill-rule:nonzero;fill:rgb(0%,0%,0%);fill-opacity:1;" d="M 5.070312 4.605469 L 5.019531 4.589844 C 3.816406 4.246094 3.832031 3.386719 3.867188 3.128906 C 3.953125 2.476562 4.570312 1.789062 5.398438 1.789062 C 5.722656 1.789062 6.03125 1.890625 6.34375 2.097656 L 6.394531 2.132812 Z M 5.398438 1.90625 C 4.625 1.90625 4.054688 2.542969 3.96875 3.144531 C 3.882812 3.765625 4.261719 4.246094 5 4.46875 L 6.222656 2.148438 C 5.964844 1.992188 5.6875 1.90625 5.398438 1.90625 Z M 5.398438 1.90625 "/>
<path style=" stroke:none;fill-rule:evenodd;fill:rgb(41.568628%,84.313726%,89.803922%);fill-opacity:1;" d="M 15.398438 1.90625 C 17.238281 0.617188 18.921875 3.539062 16.773438 4.28125 Z M 15.398438 1.90625 "/>
<path style=" stroke:none;fill-rule:nonzero;fill:rgb(0%,0%,0%);fill-opacity:1;" d="M 16.757812 4.347656 L 15.332031 1.890625 L 15.382812 1.855469 C 15.710938 1.632812 16.035156 1.511719 16.363281 1.511719 C 17.152344 1.511719 17.71875 2.164062 17.839844 2.800781 C 17.890625 3.058594 17.945312 3.9375 16.808594 4.3125 Z M 15.484375 1.941406 L 16.808594 4.226562 C 17.480469 3.988281 17.824219 3.472656 17.71875 2.851562 C 17.617188 2.269531 17.085938 1.667969 16.363281 1.667969 C 16.070312 1.648438 15.777344 1.734375 15.484375 1.941406 Z M 15.484375 1.941406 "/>
<g clip-path="url(#clip1)" clip-rule="nonzero">
<path style=" stroke:none;fill-rule:evenodd;fill:rgb(96.470588%,82.352942%,63.529414%);fill-opacity:1;" d="M 15.8125 19.300781 C 16.277344 19.59375 17.136719 20.46875 16.429688 20.898438 C 15.761719 21.519531 15.382812 20.210938 14.78125 20.039062 C 15.039062 19.695312 15.367188 19.371094 15.8125 19.300781 "/>
</g>
<g clip-path="url(#clip2)" clip-rule="nonzero">
<path style=" stroke:none;fill-rule:nonzero;fill:rgb(0%,0%,0%);fill-opacity:1;" d="M 16.070312 21.125 C 15.796875 21.125 15.554688 20.847656 15.347656 20.589844 C 15.160156 20.382812 14.96875 20.160156 14.765625 20.09375 L 14.679688 20.074219 L 14.730469 20.007812 C 14.9375 19.714844 15.28125 19.335938 15.796875 19.25 L 15.8125 19.25 L 15.828125 19.265625 C 16.121094 19.457031 16.757812 19.988281 16.742188 20.488281 C 16.742188 20.675781 16.636719 20.832031 16.449219 20.953125 C 16.328125 21.070312 16.207031 21.125 16.070312 21.125 Z M 14.867188 20.007812 C 15.074219 20.09375 15.246094 20.316406 15.417969 20.503906 C 15.625 20.761719 15.828125 20.984375 16.054688 20.984375 C 16.15625 20.984375 16.257812 20.933594 16.363281 20.832031 L 16.378906 20.832031 C 16.535156 20.726562 16.621094 20.609375 16.621094 20.453125 C 16.621094 20.058594 16.121094 19.558594 15.777344 19.335938 C 15.46875 19.421875 15.160156 19.628906 14.867188 20.007812 Z M 16.429688 20.953125 C 16.414062 20.953125 16.398438 20.933594 16.378906 20.917969 C 16.34375 20.847656 16.3125 20.761719 16.292969 20.695312 C 16.242188 20.554688 16.191406 20.417969 16.085938 20.316406 C 16.070312 20.296875 16.070312 20.265625 16.085938 20.230469 C 16.105469 20.210938 16.140625 20.210938 16.171875 20.230469 C 16.292969 20.351562 16.363281 20.503906 16.414062 20.660156 L 16.5 20.867188 C 16.515625 20.898438 16.5 20.933594 16.484375 20.953125 Z M 16.429688 20.953125 "/>
</g>
<g clip-path="url(#clip3)" clip-rule="nonzero">
<path style=" stroke:none;fill-rule:evenodd;fill:rgb(96.470588%,82.352942%,63.529414%);fill-opacity:1;" d="M 7.425781 20.296875 C 6.875 20.382812 6.566406 20.882812 6.101562 21.140625 C 5.671875 21.398438 5.5 21.054688 5.464844 20.984375 C 5.398438 20.953125 5.398438 21.019531 5.292969 20.917969 C 4.898438 20.28125 5.707031 19.816406 6.136719 19.507812 C 6.738281 19.371094 7.117188 19.886719 7.425781 20.296875 "/>
<path style=" stroke:none;fill-rule:nonzero;fill:rgb(0%,0%,0%);fill-opacity:1;" d="M 5.808594 21.277344 C 5.585938 21.277344 5.464844 21.089844 5.429688 21.019531 L 5.414062 21.019531 C 5.363281 21.019531 5.328125 21.003906 5.257812 20.933594 L 5.257812 20.917969 C 4.882812 20.316406 5.535156 19.851562 5.964844 19.542969 L 6.117188 19.4375 L 6.152344 19.4375 C 6.222656 19.421875 6.273438 19.421875 6.34375 19.421875 C 6.859375 19.421875 7.183594 19.867188 7.460938 20.230469 L 7.546875 20.351562 L 7.441406 20.367188 C 7.117188 20.417969 6.875 20.625 6.632812 20.832031 C 6.480469 20.96875 6.324219 21.089844 6.152344 21.191406 C 6.015625 21.242188 5.914062 21.277344 5.808594 21.277344 Z M 5.429688 20.917969 C 5.449219 20.917969 5.464844 20.917969 5.5 20.933594 L 5.515625 20.933594 L 5.535156 20.953125 C 5.570312 21.003906 5.65625 21.15625 5.828125 21.15625 C 5.914062 21.15625 6 21.125 6.085938 21.070312 C 6.257812 20.984375 6.410156 20.847656 6.546875 20.726562 C 6.773438 20.539062 7.011719 20.332031 7.320312 20.246094 C 7.0625 19.902344 6.753906 19.523438 6.324219 19.523438 C 6.273438 19.523438 6.222656 19.523438 6.171875 19.542969 L 6.03125 19.644531 C 5.585938 19.953125 5.035156 20.351562 5.363281 20.867188 C 5.378906 20.898438 5.398438 20.917969 5.429688 20.917969 Z M 5.464844 21.039062 C 5.429688 21.039062 5.398438 21.003906 5.414062 20.96875 C 5.429688 20.796875 5.515625 20.675781 5.601562 20.539062 C 5.65625 20.46875 5.6875 20.402344 5.722656 20.332031 C 5.742188 20.296875 5.773438 20.296875 5.792969 20.296875 C 5.828125 20.316406 5.828125 20.351562 5.828125 20.367188 C 5.792969 20.453125 5.742188 20.523438 5.6875 20.589844 C 5.601562 20.710938 5.535156 20.8125 5.515625 20.953125 C 5.515625 21.019531 5.5 21.039062 5.464844 21.039062 Z M 5.464844 21.039062 "/>
</g>
<path style=" stroke:none;fill-rule:evenodd;fill:rgb(0%,0%,0%);fill-opacity:1;" d="M 5.140625 3.730469 C 4.828125 3.574219 4.605469 3.351562 4.796875 2.992188 C 4.96875 2.664062 5.292969 2.699219 5.601562 2.851562 Z M 16.292969 3.421875 C 16.601562 3.265625 16.828125 3.042969 16.636719 2.679688 C 16.464844 2.355469 16.140625 2.390625 15.828125 2.542969 Z M 16.292969 3.421875 "/>
<path style=" stroke:none;fill-rule:evenodd;fill:rgb(96.470588%,82.352942%,63.529414%);fill-opacity:1;" d="M 18.40625 11.722656 C 18.375 12.324219 17.773438 12.046875 17.496094 11.859375 C 17.238281 11.671875 17.152344 11.824219 17.136719 11.464844 C 17.117188 11.222656 17.101562 11 17.101562 10.757812 C 17.496094 10.726562 17.925781 10.8125 18.253906 11.050781 C 18.425781 11.1875 18.734375 11.566406 18.40625 11.722656 "/>
<path style=" stroke:none;fill-rule:nonzero;fill:rgb(0%,0%,0%);fill-opacity:1;" d="M 18.097656 12.152344 C 17.839844 12.152344 17.546875 11.960938 17.460938 11.910156 C 17.375 11.859375 17.324219 11.824219 17.273438 11.808594 C 17.136719 11.757812 17.101562 11.722656 17.085938 11.464844 C 17.085938 11.414062 17.085938 11.359375 17.066406 11.308594 C 17.050781 11.136719 17.03125 10.949219 17.050781 10.757812 L 17.050781 10.707031 L 17.273438 10.707031 C 17.652344 10.707031 18.011719 10.8125 18.289062 11.015625 C 18.40625 11.101562 18.632812 11.34375 18.613281 11.550781 C 18.613281 11.617188 18.578125 11.703125 18.476562 11.757812 C 18.441406 12.101562 18.21875 12.152344 18.097656 12.152344 Z M 17.152344 10.828125 C 17.152344 10.984375 17.152344 11.15625 17.171875 11.308594 C 17.171875 11.359375 17.171875 11.414062 17.1875 11.464844 C 17.203125 11.671875 17.222656 11.671875 17.308594 11.703125 C 17.359375 11.722656 17.429688 11.757812 17.53125 11.808594 C 17.6875 11.910156 17.925781 12.03125 18.097656 12.03125 C 18.203125 12.03125 18.339844 11.996094 18.355469 11.722656 L 18.355469 11.6875 L 18.390625 11.671875 C 18.460938 11.636719 18.492188 11.601562 18.492188 11.53125 C 18.511719 11.394531 18.339844 11.1875 18.21875 11.101562 C 17.960938 10.914062 17.617188 10.8125 17.273438 10.8125 C 17.238281 10.828125 17.203125 10.828125 17.152344 10.828125 Z M 17.152344 10.828125 "/>
<path style=" stroke:none;fill-rule:evenodd;fill:rgb(77.64706%,69.411767%,59.607846%);fill-opacity:1;" d="M 18.40625 11.722656 C 18.320312 11.6875 18.21875 11.671875 18.167969 11.585938 "/>
<path style=" stroke:none;fill-rule:nonzero;fill:rgb(0%,0%,0%);fill-opacity:1;" d="M 18.40625 11.789062 L 18.390625 11.789062 L 18.355469 11.773438 C 18.269531 11.738281 18.183594 11.722656 18.132812 11.636719 C 18.117188 11.617188 18.117188 11.566406 18.148438 11.550781 C 18.167969 11.53125 18.21875 11.53125 18.234375 11.566406 C 18.269531 11.617188 18.339844 11.636719 18.40625 11.671875 C 18.425781 11.671875 18.441406 11.6875 18.441406 11.6875 C 18.476562 11.703125 18.492188 11.738281 18.476562 11.757812 C 18.460938 11.773438 18.425781 11.789062 18.40625 11.789062 Z M 18.40625 11.789062 "/>
<g clip-path="url(#clip4)" clip-rule="nonzero">
<path style=" stroke:none;fill-rule:evenodd;fill:rgb(41.568628%,84.313726%,89.803922%);fill-opacity:1;" d="M 10.792969 0.6875 C 13.132812 0.6875 15.3125 1.015625 16.464844 3.265625 C 17.496094 5.773438 17.117188 8.492188 17.289062 11.15625 C 17.429688 13.441406 17.71875 16.070312 16.671875 18.183594 C 15.554688 20.402344 12.769531 20.96875 10.484375 20.882812 C 8.679688 20.8125 6.515625 20.230469 5.484375 18.578125 C 4.296875 16.65625 4.847656 13.785156 4.933594 11.636719 C 5.035156 9.09375 4.246094 6.53125 5.085938 4.054688 C 5.929688 1.460938 8.265625 0.875 10.792969 0.6875 "/>
</g>
<g clip-path="url(#clip5)" clip-rule="nonzero">
<path style=" stroke:none;fill-rule:nonzero;fill:rgb(0%,0%,0%);fill-opacity:1;" d="M 10.878906 20.953125 L 10.449219 20.953125 C 9.746094 20.933594 8.679688 20.8125 7.632812 20.382812 C 6.617188 19.972656 5.878906 19.386719 5.398438 18.613281 C 4.433594 17.050781 4.605469 14.902344 4.761719 12.992188 C 4.796875 12.511719 4.828125 12.066406 4.847656 11.636719 C 4.882812 10.742188 4.8125 9.8125 4.726562 8.9375 C 4.589844 7.320312 4.453125 5.65625 4.984375 4.039062 C 5.398438 2.835938 6.136719 1.976562 7.253906 1.425781 C 8.128906 0.996094 9.210938 0.757812 10.757812 0.636719 C 13.0625 0.617188 15.347656 0.945312 16.5 3.230469 C 17.257812 5.070312 17.257812 7.046875 17.273438 8.953125 C 17.273438 9.675781 17.273438 10.414062 17.324219 11.136719 C 17.34375 11.359375 17.359375 11.585938 17.359375 11.808594 C 17.496094 13.90625 17.652344 16.277344 16.6875 18.203125 C 16.207031 19.179688 15.367188 19.902344 14.214844 20.367188 C 13.285156 20.746094 12.117188 20.953125 10.878906 20.953125 Z M 10.792969 0.738281 C 8.371094 0.929688 6 1.460938 5.121094 4.074219 C 4.589844 5.671875 4.726562 7.320312 4.863281 8.921875 C 4.933594 9.8125 5.019531 10.726562 4.984375 11.636719 C 4.96875 12.066406 4.933594 12.511719 4.898438 12.992188 C 4.742188 14.882812 4.570312 17.015625 5.515625 18.546875 C 5.914062 19.179688 7.183594 20.695312 10.46875 20.8125 L 10.898438 20.8125 C 14.695312 20.8125 16.105469 19.128906 16.621094 18.132812 C 17.566406 16.242188 17.410156 13.871094 17.289062 11.789062 C 17.273438 11.566406 17.257812 11.34375 17.257812 11.121094 C 17.222656 10.398438 17.203125 9.660156 17.203125 8.9375 C 17.1875 7.046875 17.1875 5.070312 16.449219 3.25 C 15.933594 2.234375 15.160156 1.546875 14.09375 1.152344 C 12.992188 0.789062 11.757812 0.738281 10.792969 0.738281 Z M 10.792969 0.738281 "/>
</g>
<path style=" stroke:none;fill-rule:evenodd;fill:rgb(100%,100%,100%);fill-opacity:1;" d="M 11.207031 3.816406 C 11.617188 6.257812 15.605469 5.601562 15.039062 3.144531 C 14.523438 0.945312 11.070312 1.5625 11.207031 3.816406 "/>
<path style=" stroke:none;fill-rule:nonzero;fill:rgb(0%,0%,0%);fill-opacity:1;" d="M 13.097656 5.414062 C 12.324219 5.414062 11.34375 5 11.136719 3.832031 C 11.101562 3.28125 11.273438 2.785156 11.636719 2.40625 C 12.03125 1.976562 12.632812 1.734375 13.25 1.734375 C 13.972656 1.734375 14.832031 2.113281 15.074219 3.164062 C 15.210938 3.746094 15.109375 4.261719 14.78125 4.675781 C 14.421875 5.121094 13.785156 5.414062 13.097656 5.414062 Z M 11.257812 3.816406 C 11.34375 4.296875 11.566406 4.675781 11.929688 4.949219 C 12.238281 5.191406 12.667969 5.3125 13.097656 5.3125 C 13.734375 5.3125 14.351562 5.035156 14.695312 4.605469 C 15.003906 4.226562 15.089844 3.730469 14.96875 3.179688 C 14.746094 2.199219 13.9375 1.855469 13.25 1.855469 C 12.667969 1.855469 12.101562 2.097656 11.722656 2.492188 C 11.394531 2.835938 11.222656 3.300781 11.257812 3.816406 Z M 11.257812 3.816406 "/>
<path style=" stroke:none;fill-rule:evenodd;fill:rgb(100%,100%,100%);fill-opacity:1;" d="M 6.445312 4.210938 C 6.996094 6.324219 10.382812 5.792969 10.261719 3.660156 C 10.105469 1.117188 5.914062 1.597656 6.445312 4.210938 "/>
<path style=" stroke:none;fill-rule:nonzero;fill:rgb(0%,0%,0%);fill-opacity:1;" d="M 8.25 5.621094 C 7.511719 5.621094 6.652344 5.257812 6.375 4.226562 C 6.257812 3.625 6.375 3.078125 6.71875 2.664062 C 7.097656 2.199219 7.71875 1.925781 8.386719 1.925781 C 9.28125 1.925781 10.226562 2.457031 10.296875 3.660156 C 10.328125 4.160156 10.175781 4.605469 9.832031 4.96875 C 9.46875 5.363281 8.867188 5.621094 8.25 5.621094 Z M 8.386719 2.046875 C 7.75 2.046875 7.167969 2.304688 6.804688 2.734375 C 6.480469 3.128906 6.375 3.625 6.496094 4.195312 C 6.738281 5.15625 7.5625 5.5 8.25 5.5 C 8.835938 5.5 9.402344 5.277344 9.761719 4.882812 C 10.070312 4.554688 10.226562 4.125 10.191406 3.660156 C 10.15625 2.921875 9.660156 2.046875 8.386719 2.046875 Z M 8.386719 2.046875 "/>
<path style=" stroke:none;fill-rule:evenodd;fill:rgb(100%,100%,100%);fill-opacity:1;" d="M 11.6875 6.738281 C 11.6875 7.046875 11.757812 7.40625 11.703125 7.75 C 11.617188 7.90625 11.464844 7.921875 11.328125 7.976562 C 11.136719 7.941406 10.984375 7.820312 10.898438 7.648438 C 10.84375 7.269531 10.914062 6.890625 10.929688 6.515625 Z M 11.6875 6.738281 "/>
<path style=" stroke:none;fill-rule:nonzero;fill:rgb(0%,0%,0%);fill-opacity:1;" d="M 11.328125 8.042969 C 11.101562 8.007812 10.929688 7.871094 10.84375 7.683594 C 10.8125 7.40625 10.828125 7.148438 10.84375 6.890625 C 10.863281 6.773438 10.863281 6.652344 10.863281 6.53125 L 10.863281 6.460938 L 11.738281 6.738281 L 11.738281 6.773438 C 11.738281 6.875 11.757812 6.976562 11.757812 7.097656 C 11.773438 7.320312 11.789062 7.5625 11.757812 7.785156 L 11.757812 7.804688 C 11.6875 7.941406 11.566406 7.976562 11.445312 8.027344 C 11.414062 8.007812 11.378906 8.027344 11.328125 8.042969 Z M 10.949219 7.632812 C 11.015625 7.785156 11.15625 7.890625 11.308594 7.921875 C 11.34375 7.90625 11.378906 7.90625 11.394531 7.890625 C 11.5 7.855469 11.585938 7.820312 11.636719 7.734375 C 11.671875 7.527344 11.652344 7.304688 11.636719 7.082031 C 11.636719 6.976562 11.617188 6.875 11.617188 6.789062 L 10.964844 6.582031 C 10.964844 6.6875 10.949219 6.789062 10.949219 6.875 C 10.929688 7.148438 10.914062 7.390625 10.949219 7.632812 Z M 10.949219 7.632812 "/>
<path style=" stroke:none;fill-rule:evenodd;fill:rgb(0%,0%,0%);fill-opacity:1;" d="M 7.957031 3.867188 C 7.957031 4.210938 7.699219 4.484375 7.390625 4.484375 C 7.082031 4.484375 6.824219 4.210938 6.824219 3.867188 C 6.824219 3.523438 7.082031 3.25 7.390625 3.25 C 7.699219 3.25 7.957031 3.523438 7.957031 3.867188 "/>
<path style=" stroke:none;fill-rule:evenodd;fill:rgb(100%,100%,100%);fill-opacity:1;" d="M 7.769531 4.003906 C 7.769531 4.089844 7.699219 4.160156 7.632812 4.160156 C 7.5625 4.160156 7.492188 4.089844 7.492188 4.003906 C 7.492188 3.917969 7.5625 3.851562 7.632812 3.851562 C 7.71875 3.851562 7.769531 3.917969 7.769531 4.003906 "/>
<path style=" stroke:none;fill-rule:evenodd;fill:rgb(0%,0%,0%);fill-opacity:1;" d="M 12.753906 3.710938 C 12.753906 4.054688 12.496094 4.332031 12.1875 4.332031 C 11.875 4.332031 11.617188 4.054688 11.617188 3.710938 C 11.617188 3.367188 11.875 3.09375 12.1875 3.09375 C 12.496094 3.09375 12.753906 3.367188 12.753906 3.710938 "/>
<path style=" stroke:none;fill-rule:evenodd;fill:rgb(100%,100%,100%);fill-opacity:1;" d="M 12.582031 3.851562 C 12.582031 3.9375 12.53125 4.003906 12.445312 4.003906 C 12.375 4.003906 12.304688 3.9375 12.304688 3.851562 C 12.304688 3.765625 12.359375 3.695312 12.445312 3.695312 C 12.511719 3.695312 12.582031 3.765625 12.582031 3.851562 M 10.039062 6.703125 C 9.78125 7.304688 10.175781 8.523438 10.863281 7.632812 C 10.8125 7.253906 10.878906 6.875 10.898438 6.496094 Z M 10.039062 6.703125 "/>
<path style=" stroke:none;fill-rule:nonzero;fill:rgb(0%,0%,0%);fill-opacity:1;" d="M 10.398438 8.007812 C 10.277344 8.007812 10.15625 7.941406 10.070312 7.804688 C 9.882812 7.527344 9.847656 7.011719 9.984375 6.6875 L 10.003906 6.652344 L 10.949219 6.410156 L 10.949219 6.480469 L 10.929688 6.859375 C 10.914062 7.117188 10.898438 7.355469 10.929688 7.613281 L 10.929688 7.632812 L 10.914062 7.648438 C 10.742188 7.890625 10.570312 8.007812 10.398438 8.007812 Z M 10.089844 6.753906 C 9.984375 7.046875 10.019531 7.511719 10.175781 7.734375 C 10.242188 7.835938 10.3125 7.890625 10.398438 7.890625 C 10.519531 7.890625 10.65625 7.785156 10.792969 7.613281 C 10.757812 7.355469 10.777344 7.097656 10.8125 6.859375 L 10.828125 6.566406 Z M 10.089844 6.753906 "/>
<path style=" stroke:none;fill-rule:evenodd;fill:rgb(96.470588%,82.352942%,63.529414%);fill-opacity:1;" d="M 10.125 5.535156 C 9.660156 5.570312 9.28125 6.136719 9.523438 6.566406 C 9.847656 7.148438 10.554688 6.515625 11 6.566406 C 11.515625 6.582031 11.929688 7.117188 12.339844 6.667969 C 12.804688 6.171875 12.132812 5.6875 11.636719 5.464844 Z M 10.125 5.535156 "/>
<path style=" stroke:none;fill-rule:nonzero;fill:rgb(13.725491%,12.156863%,12.54902%);fill-opacity:1;" d="M 11.980469 6.910156 C 11.824219 6.910156 11.671875 6.839844 11.515625 6.773438 C 11.359375 6.703125 11.1875 6.632812 11 6.632812 L 10.949219 6.632812 C 10.8125 6.632812 10.65625 6.6875 10.484375 6.753906 C 10.296875 6.824219 10.105469 6.875 9.933594 6.875 C 9.726562 6.875 9.574219 6.789062 9.46875 6.601562 C 9.351562 6.394531 9.367188 6.152344 9.488281 5.929688 C 9.625 5.671875 9.867188 5.515625 10.125 5.484375 L 11.652344 5.414062 L 11.671875 5.414062 C 12.046875 5.570312 12.476562 5.859375 12.5625 6.203125 C 12.597656 6.375 12.546875 6.546875 12.410156 6.703125 C 12.273438 6.859375 12.132812 6.910156 11.980469 6.910156 Z M 11.015625 6.53125 C 11.207031 6.53125 11.394531 6.617188 11.566406 6.6875 C 11.722656 6.753906 11.859375 6.804688 11.996094 6.804688 C 12.117188 6.804688 12.21875 6.753906 12.324219 6.652344 C 12.445312 6.53125 12.476562 6.394531 12.460938 6.257812 C 12.390625 5.964844 11.980469 5.6875 11.652344 5.550781 L 10.15625 5.621094 C 9.933594 5.636719 9.726562 5.792969 9.609375 6 C 9.503906 6.1875 9.503906 6.394531 9.589844 6.566406 C 9.675781 6.71875 9.78125 6.789062 9.953125 6.789062 C 10.105469 6.789062 10.277344 6.71875 10.449219 6.667969 C 10.640625 6.601562 10.792969 6.546875 10.964844 6.546875 C 10.964844 6.515625 10.984375 6.515625 11.015625 6.53125 Z M 11.015625 6.53125 "/>
<path style=" stroke:none;fill-rule:evenodd;fill:rgb(0%,0%,0%);fill-opacity:1;" d="M 10.070312 5.515625 C 10.039062 4.710938 11.585938 4.605469 11.757812 5.277344 C 11.945312 5.964844 10.140625 6.117188 10.070312 5.515625 "/>
</g>
</svg>
