<?xml version="1.0" encoding="UTF-8"?>
<svg xmlns="http://www.w3.org/2000/svg" xmlns:xlink="http://www.w3.org/1999/xlink" width="20px" height="20px" viewBox="0 0 20 20" version="1.1">
<defs>
<clipPath id="clip1">
  <path d="M 13 17 L 16 17 L 16 19.84375 L 13 19.84375 Z M 13 17 "/>
</clipPath>
<clipPath id="clip2">
  <path d="M 4 17 L 7 17 L 7 19.84375 L 4 19.84375 Z M 4 17 "/>
</clipPath>
<clipPath id="clip3">
  <path d="M 4 0.15625 L 16 0.15625 L 16 19 L 4 19 Z M 4 0.15625 "/>
</clipPath>
<clipPath id="clip4">
  <path d="M 4 0.15625 L 16 0.15625 L 16 19.84375 L 4 19.84375 Z M 4 0.15625 "/>
</clipPath>
</defs>
<g id="surface1">
<path style=" stroke:none;fill-rule:evenodd;fill:rgb(96.470588%,82.352942%,63.529414%);fill-opacity:1;" d="M 3.296875 10.734375 C 3.328125 11.28125 3.875 11.03125 4.125 10.859375 C 4.359375 10.6875 4.4375 10.828125 4.453125 10.5 C 4.46875 10.28125 4.484375 10.078125 4.484375 9.859375 C 4.125 9.828125 3.734375 9.90625 3.4375 10.125 C 3.296875 10.234375 3 10.59375 3.296875 10.734375 "/>
<path style=" stroke:none;fill-rule:nonzero;fill:rgb(0%,0%,0%);fill-opacity:1;" d="M 3.59375 11.125 C 3.484375 11.125 3.28125 11.078125 3.25 10.765625 C 3.15625 10.703125 3.125 10.625 3.125 10.578125 C 3.109375 10.390625 3.3125 10.171875 3.421875 10.09375 C 3.671875 9.90625 4 9.8125 4.34375 9.8125 L 4.546875 9.8125 L 4.546875 9.859375 C 4.5625 10.03125 4.546875 10.203125 4.53125 10.359375 C 4.53125 10.40625 4.53125 10.453125 4.515625 10.5 C 4.5 10.734375 4.453125 10.765625 4.34375 10.8125 C 4.296875 10.828125 4.25 10.84375 4.171875 10.90625 C 4.09375 10.953125 3.828125 11.125 3.59375 11.125 Z M 4.34375 9.90625 C 4.015625 9.90625 3.71875 10 3.484375 10.171875 C 3.375 10.25 3.21875 10.4375 3.234375 10.5625 C 3.234375 10.609375 3.265625 10.65625 3.328125 10.6875 L 3.359375 10.703125 L 3.359375 10.734375 C 3.375 10.984375 3.5 11.015625 3.59375 11.015625 C 3.75 11.015625 3.96875 10.90625 4.109375 10.8125 C 4.203125 10.75 4.265625 10.734375 4.3125 10.71875 C 4.390625 10.6875 4.40625 10.6875 4.421875 10.5 C 4.421875 10.453125 4.421875 10.40625 4.4375 10.359375 C 4.453125 10.21875 4.453125 10.0625 4.453125 9.921875 C 4.40625 9.90625 4.375 9.90625 4.34375 9.90625 Z M 4.34375 9.90625 "/>
<path style=" stroke:none;fill-rule:evenodd;fill:rgb(77.64706%,69.411767%,59.607846%);fill-opacity:1;" d="M 3.296875 10.734375 C 3.375 10.703125 3.46875 10.6875 3.515625 10.609375 "/>
<path style=" stroke:none;fill-rule:nonzero;fill:rgb(0%,0%,0%);fill-opacity:1;" d="M 3.296875 10.78125 C 3.28125 10.78125 3.25 10.765625 3.25 10.75 C 3.234375 10.71875 3.25 10.6875 3.28125 10.6875 C 3.296875 10.6875 3.3125 10.671875 3.3125 10.671875 C 3.375 10.640625 3.4375 10.625 3.46875 10.578125 C 3.484375 10.5625 3.515625 10.546875 3.546875 10.5625 C 3.5625 10.578125 3.578125 10.609375 3.5625 10.640625 C 3.5 10.71875 3.421875 10.75 3.359375 10.765625 L 3.328125 10.78125 Z M 3.296875 10.78125 "/>
<path style=" stroke:none;fill-rule:evenodd;fill:rgb(41.568628%,84.313726%,89.803922%);fill-opacity:1;" d="M 4.578125 4.125 C 2.453125 3.53125 4.03125 0.828125 5.734375 1.9375 Z M 4.578125 4.125 "/>
<path style=" stroke:none;fill-rule:nonzero;fill:rgb(0%,0%,0%);fill-opacity:1;" d="M 4.609375 4.1875 L 4.5625 4.171875 C 3.46875 3.859375 3.484375 3.078125 3.515625 2.84375 C 3.59375 2.25 4.15625 1.625 4.90625 1.625 C 5.203125 1.625 5.484375 1.71875 5.765625 1.90625 L 5.8125 1.9375 Z M 4.90625 1.734375 C 4.203125 1.734375 3.6875 2.3125 3.609375 2.859375 C 3.53125 3.421875 3.875 3.859375 4.546875 4.0625 L 5.65625 1.953125 C 5.421875 1.8125 5.171875 1.734375 4.90625 1.734375 Z M 4.90625 1.734375 "/>
<path style=" stroke:none;fill-rule:evenodd;fill:rgb(41.568628%,84.313726%,89.803922%);fill-opacity:1;" d="M 14 1.734375 C 15.671875 0.5625 17.203125 3.21875 15.25 3.890625 Z M 14 1.734375 "/>
<path style=" stroke:none;fill-rule:nonzero;fill:rgb(0%,0%,0%);fill-opacity:1;" d="M 15.234375 3.953125 L 13.9375 1.71875 L 13.984375 1.6875 C 14.28125 1.484375 14.578125 1.375 14.875 1.375 C 15.59375 1.375 16.109375 1.96875 16.21875 2.546875 C 16.265625 2.78125 16.3125 3.578125 15.28125 3.921875 Z M 14.078125 1.765625 L 15.28125 3.84375 C 15.890625 3.625 16.203125 3.15625 16.109375 2.59375 C 16.015625 2.0625 15.53125 1.515625 14.875 1.515625 C 14.609375 1.5 14.34375 1.578125 14.078125 1.765625 Z M 14.078125 1.765625 "/>
<g clip-path="url(#clip1)" clip-rule="nonzero">
<path style=" stroke:none;fill-rule:evenodd;fill:rgb(96.470588%,82.352942%,63.529414%);fill-opacity:1;" d="M 14.375 17.546875 C 14.796875 17.8125 15.578125 18.609375 14.9375 19 C 14.328125 19.5625 13.984375 18.375 13.4375 18.21875 C 13.671875 17.90625 13.96875 17.609375 14.375 17.546875 "/>
<path style=" stroke:none;fill-rule:nonzero;fill:rgb(0%,0%,0%);fill-opacity:1;" d="M 14.609375 19.203125 C 14.359375 19.203125 14.140625 18.953125 13.953125 18.71875 C 13.78125 18.53125 13.609375 18.328125 13.421875 18.265625 L 13.34375 18.25 L 13.390625 18.1875 C 13.578125 17.921875 13.890625 17.578125 14.359375 17.5 L 14.375 17.5 L 14.390625 17.515625 C 14.65625 17.6875 15.234375 18.171875 15.21875 18.625 C 15.21875 18.796875 15.125 18.9375 14.953125 19.046875 C 14.84375 19.15625 14.734375 19.203125 14.609375 19.203125 Z M 13.515625 18.1875 C 13.703125 18.265625 13.859375 18.46875 14.015625 18.640625 C 14.203125 18.875 14.390625 19.078125 14.59375 19.078125 C 14.6875 19.078125 14.78125 19.03125 14.875 18.9375 L 14.890625 18.9375 C 15.03125 18.84375 15.109375 18.734375 15.109375 18.59375 C 15.109375 18.234375 14.65625 17.78125 14.34375 17.578125 C 14.0625 17.65625 13.78125 17.84375 13.515625 18.1875 Z M 14.9375 19.046875 C 14.921875 19.046875 14.90625 19.03125 14.890625 19.015625 C 14.859375 18.953125 14.828125 18.875 14.8125 18.8125 C 14.765625 18.6875 14.71875 18.5625 14.625 18.46875 C 14.609375 18.453125 14.609375 18.421875 14.625 18.390625 C 14.640625 18.375 14.671875 18.375 14.703125 18.390625 C 14.8125 18.5 14.875 18.640625 14.921875 18.78125 L 15 18.96875 C 15.015625 19 15 19.03125 14.984375 19.046875 Z M 14.9375 19.046875 "/>
</g>
<g clip-path="url(#clip2)" clip-rule="nonzero">
<path style=" stroke:none;fill-rule:evenodd;fill:rgb(96.470588%,82.352942%,63.529414%);fill-opacity:1;" d="M 6.75 18.453125 C 6.25 18.53125 5.96875 18.984375 5.546875 19.21875 C 5.15625 19.453125 5 19.140625 4.96875 19.078125 C 4.90625 19.046875 4.90625 19.109375 4.8125 19.015625 C 4.453125 18.4375 5.1875 18.015625 5.578125 17.734375 C 6.125 17.609375 6.46875 18.078125 6.75 18.453125 "/>
<path style=" stroke:none;fill-rule:nonzero;fill:rgb(0%,0%,0%);fill-opacity:1;" d="M 5.28125 19.34375 C 5.078125 19.34375 4.96875 19.171875 4.9375 19.109375 L 4.921875 19.109375 C 4.875 19.109375 4.84375 19.09375 4.78125 19.03125 L 4.78125 19.015625 C 4.4375 18.46875 5.03125 18.046875 5.421875 17.765625 L 5.5625 17.671875 L 5.59375 17.671875 C 5.65625 17.65625 5.703125 17.65625 5.765625 17.65625 C 6.234375 17.65625 6.53125 18.0625 6.78125 18.390625 L 6.859375 18.5 L 6.765625 18.515625 C 6.46875 18.5625 6.25 18.75 6.03125 18.9375 C 5.890625 19.0625 5.75 19.171875 5.59375 19.265625 C 5.46875 19.3125 5.375 19.34375 5.28125 19.34375 Z M 4.9375 19.015625 C 4.953125 19.015625 4.96875 19.015625 5 19.03125 L 5.015625 19.03125 L 5.03125 19.046875 C 5.0625 19.09375 5.140625 19.234375 5.296875 19.234375 C 5.375 19.234375 5.453125 19.203125 5.53125 19.15625 C 5.6875 19.078125 5.828125 18.953125 5.953125 18.84375 C 6.15625 18.671875 6.375 18.484375 6.65625 18.40625 C 6.421875 18.09375 6.140625 17.75 5.75 17.75 C 5.703125 17.75 5.65625 17.75 5.609375 17.765625 L 5.484375 17.859375 C 5.078125 18.140625 4.578125 18.5 4.875 18.96875 C 4.890625 19 4.90625 19.015625 4.9375 19.015625 Z M 4.96875 19.125 C 4.9375 19.125 4.90625 19.09375 4.921875 19.0625 C 4.9375 18.90625 5.015625 18.796875 5.09375 18.671875 C 5.140625 18.609375 5.171875 18.546875 5.203125 18.484375 C 5.21875 18.453125 5.25 18.453125 5.265625 18.453125 C 5.296875 18.46875 5.296875 18.5 5.296875 18.515625 C 5.265625 18.59375 5.21875 18.65625 5.171875 18.71875 C 5.09375 18.828125 5.03125 18.921875 5.015625 19.046875 C 5.015625 19.109375 5 19.125 4.96875 19.125 Z M 4.96875 19.125 "/>
</g>
<path style=" stroke:none;fill-rule:evenodd;fill:rgb(0%,0%,0%);fill-opacity:1;" d="M 4.671875 3.390625 C 4.390625 3.25 4.1875 3.046875 4.359375 2.71875 C 4.515625 2.421875 4.8125 2.453125 5.09375 2.59375 Z M 14.8125 3.109375 C 15.09375 2.96875 15.296875 2.765625 15.125 2.4375 C 14.96875 2.140625 14.671875 2.171875 14.390625 2.3125 Z M 14.8125 3.109375 "/>
<path style=" stroke:none;fill-rule:evenodd;fill:rgb(96.470588%,82.352942%,63.529414%);fill-opacity:1;" d="M 16.734375 10.65625 C 16.703125 11.203125 16.15625 10.953125 15.90625 10.78125 C 15.671875 10.609375 15.59375 10.75 15.578125 10.421875 C 15.5625 10.203125 15.546875 10 15.546875 9.78125 C 15.90625 9.75 16.296875 9.828125 16.59375 10.046875 C 16.75 10.171875 17.03125 10.515625 16.734375 10.65625 "/>
<path style=" stroke:none;fill-rule:nonzero;fill:rgb(0%,0%,0%);fill-opacity:1;" d="M 16.453125 11.046875 C 16.21875 11.046875 15.953125 10.875 15.875 10.828125 C 15.796875 10.78125 15.75 10.75 15.703125 10.734375 C 15.578125 10.6875 15.546875 10.65625 15.53125 10.421875 C 15.53125 10.375 15.53125 10.328125 15.515625 10.28125 C 15.5 10.125 15.484375 9.953125 15.5 9.78125 L 15.5 9.734375 L 15.703125 9.734375 C 16.046875 9.734375 16.375 9.828125 16.625 10.015625 C 16.734375 10.09375 16.9375 10.3125 16.921875 10.5 C 16.921875 10.5625 16.890625 10.640625 16.796875 10.6875 C 16.765625 11 16.5625 11.046875 16.453125 11.046875 Z M 15.59375 9.84375 C 15.59375 9.984375 15.59375 10.140625 15.609375 10.28125 C 15.609375 10.328125 15.609375 10.375 15.625 10.421875 C 15.640625 10.609375 15.65625 10.609375 15.734375 10.640625 C 15.78125 10.65625 15.84375 10.6875 15.9375 10.734375 C 16.078125 10.828125 16.296875 10.9375 16.453125 10.9375 C 16.546875 10.9375 16.671875 10.90625 16.6875 10.65625 L 16.6875 10.625 L 16.71875 10.609375 C 16.78125 10.578125 16.8125 10.546875 16.8125 10.484375 C 16.828125 10.359375 16.671875 10.171875 16.5625 10.09375 C 16.328125 9.921875 16.015625 9.828125 15.703125 9.828125 C 15.671875 9.84375 15.640625 9.84375 15.59375 9.84375 Z M 15.59375 9.84375 "/>
<path style=" stroke:none;fill-rule:evenodd;fill:rgb(77.64706%,69.411767%,59.607846%);fill-opacity:1;" d="M 16.734375 10.65625 C 16.65625 10.625 16.5625 10.609375 16.515625 10.53125 "/>
<path style=" stroke:none;fill-rule:nonzero;fill:rgb(0%,0%,0%);fill-opacity:1;" d="M 16.734375 10.71875 L 16.71875 10.71875 L 16.6875 10.703125 C 16.609375 10.671875 16.53125 10.65625 16.484375 10.578125 C 16.46875 10.5625 16.46875 10.515625 16.5 10.5 C 16.515625 10.484375 16.5625 10.484375 16.578125 10.515625 C 16.609375 10.5625 16.671875 10.578125 16.734375 10.609375 C 16.75 10.609375 16.765625 10.625 16.765625 10.625 C 16.796875 10.640625 16.8125 10.671875 16.796875 10.6875 C 16.78125 10.703125 16.75 10.71875 16.734375 10.71875 Z M 16.734375 10.71875 "/>
<g clip-path="url(#clip3)" clip-rule="nonzero">
<path style=" stroke:none;fill-rule:evenodd;fill:rgb(41.568628%,84.313726%,89.803922%);fill-opacity:1;" d="M 9.8125 0.625 C 11.9375 0.625 13.921875 0.921875 14.96875 2.96875 C 15.90625 5.25 15.5625 7.71875 15.71875 10.140625 C 15.84375 12.21875 16.109375 14.609375 15.15625 16.53125 C 14.140625 18.546875 11.609375 19.0625 9.53125 18.984375 C 7.890625 18.921875 5.921875 18.390625 4.984375 16.890625 C 3.90625 15.140625 4.40625 12.53125 4.484375 10.578125 C 4.578125 8.265625 3.859375 5.9375 4.625 3.6875 C 5.390625 1.328125 7.515625 0.796875 9.8125 0.625 "/>
</g>
<g clip-path="url(#clip4)" clip-rule="nonzero">
<path style=" stroke:none;fill-rule:nonzero;fill:rgb(0%,0%,0%);fill-opacity:1;" d="M 9.890625 19.046875 L 9.5 19.046875 C 8.859375 19.03125 7.890625 18.921875 6.9375 18.53125 C 6.015625 18.15625 5.34375 17.625 4.90625 16.921875 C 4.03125 15.5 4.1875 13.546875 4.328125 11.8125 C 4.359375 11.375 4.390625 10.96875 4.40625 10.578125 C 4.4375 9.765625 4.375 8.921875 4.296875 8.125 C 4.171875 6.65625 4.046875 5.140625 4.53125 3.671875 C 4.90625 2.578125 5.578125 1.796875 6.59375 1.296875 C 7.390625 0.90625 8.375 0.6875 9.78125 0.578125 C 11.875 0.5625 13.953125 0.859375 15 2.9375 C 15.6875 4.609375 15.6875 6.40625 15.703125 8.140625 C 15.703125 8.796875 15.703125 9.46875 15.75 10.125 C 15.765625 10.328125 15.78125 10.53125 15.78125 10.734375 C 15.90625 12.640625 16.046875 14.796875 15.171875 16.546875 C 14.734375 17.4375 13.96875 18.09375 12.921875 18.515625 C 12.078125 18.859375 11.015625 19.046875 9.890625 19.046875 Z M 9.8125 0.671875 C 7.609375 0.84375 5.453125 1.328125 4.65625 3.703125 C 4.171875 5.15625 4.296875 6.65625 4.421875 8.109375 C 4.484375 8.921875 4.5625 9.75 4.53125 10.578125 C 4.515625 10.96875 4.484375 11.375 4.453125 11.8125 C 4.3125 13.53125 4.15625 15.46875 5.015625 16.859375 C 5.375 17.4375 6.53125 18.8125 9.515625 18.921875 L 9.90625 18.921875 C 13.359375 18.921875 14.640625 17.390625 15.109375 16.484375 C 15.96875 14.765625 15.828125 12.609375 15.71875 10.71875 C 15.703125 10.515625 15.6875 10.3125 15.6875 10.109375 C 15.65625 9.453125 15.640625 8.78125 15.640625 8.125 C 15.625 6.40625 15.625 4.609375 14.953125 2.953125 C 14.484375 2.03125 13.78125 1.40625 12.8125 1.046875 C 11.8125 0.71875 10.6875 0.671875 9.8125 0.671875 Z M 9.8125 0.671875 "/>
</g>
<path style=" stroke:none;fill-rule:evenodd;fill:rgb(100%,100%,100%);fill-opacity:1;" d="M 10.1875 3.46875 C 10.5625 5.6875 14.1875 5.09375 13.671875 2.859375 C 13.203125 0.859375 10.0625 1.421875 10.1875 3.46875 "/>
<path style=" stroke:none;fill-rule:nonzero;fill:rgb(0%,0%,0%);fill-opacity:1;" d="M 11.90625 4.921875 C 11.203125 4.921875 10.3125 4.546875 10.125 3.484375 C 10.09375 2.984375 10.25 2.53125 10.578125 2.1875 C 10.9375 1.796875 11.484375 1.578125 12.046875 1.578125 C 12.703125 1.578125 13.484375 1.921875 13.703125 2.875 C 13.828125 3.40625 13.734375 3.875 13.4375 4.25 C 13.109375 4.65625 12.53125 4.921875 11.90625 4.921875 Z M 10.234375 3.46875 C 10.3125 3.90625 10.515625 4.25 10.84375 4.5 C 11.125 4.71875 11.515625 4.828125 11.90625 4.828125 C 12.484375 4.828125 13.046875 4.578125 13.359375 4.1875 C 13.640625 3.84375 13.71875 3.390625 13.609375 2.890625 C 13.40625 2 12.671875 1.6875 12.046875 1.6875 C 11.515625 1.6875 11 1.90625 10.65625 2.265625 C 10.359375 2.578125 10.203125 3 10.234375 3.46875 Z M 10.234375 3.46875 "/>
<path style=" stroke:none;fill-rule:evenodd;fill:rgb(100%,100%,100%);fill-opacity:1;" d="M 5.859375 3.828125 C 6.359375 5.75 9.4375 5.265625 9.328125 3.328125 C 9.1875 1.015625 5.375 1.453125 5.859375 3.828125 "/>
<path style=" stroke:none;fill-rule:nonzero;fill:rgb(0%,0%,0%);fill-opacity:1;" d="M 7.5 5.109375 C 6.828125 5.109375 6.046875 4.78125 5.796875 3.84375 C 5.6875 3.296875 5.796875 2.796875 6.109375 2.421875 C 6.453125 2 7.015625 1.75 7.625 1.75 C 8.4375 1.75 9.296875 2.234375 9.359375 3.328125 C 9.390625 3.78125 9.25 4.1875 8.9375 4.515625 C 8.609375 4.875 8.0625 5.109375 7.5 5.109375 Z M 7.625 1.859375 C 7.046875 1.859375 6.515625 2.09375 6.1875 2.484375 C 5.890625 2.84375 5.796875 3.296875 5.90625 3.8125 C 6.125 4.6875 6.875 5 7.5 5 C 8.03125 5 8.546875 4.796875 8.875 4.4375 C 9.15625 4.140625 9.296875 3.75 9.265625 3.328125 C 9.234375 2.65625 8.78125 1.859375 7.625 1.859375 Z M 7.625 1.859375 "/>
<path style=" stroke:none;fill-rule:evenodd;fill:rgb(100%,100%,100%);fill-opacity:1;" d="M 10.625 6.125 C 10.625 6.40625 10.6875 6.734375 10.640625 7.046875 C 10.5625 7.1875 10.421875 7.203125 10.296875 7.25 C 10.125 7.21875 9.984375 7.109375 9.90625 6.953125 C 9.859375 6.609375 9.921875 6.265625 9.9375 5.921875 Z M 10.625 6.125 "/>
<path style=" stroke:none;fill-rule:nonzero;fill:rgb(0%,0%,0%);fill-opacity:1;" d="M 10.296875 7.3125 C 10.09375 7.28125 9.9375 7.15625 9.859375 6.984375 C 9.828125 6.734375 9.84375 6.5 9.859375 6.265625 C 9.875 6.15625 9.875 6.046875 9.875 5.9375 L 9.875 5.875 L 10.671875 6.125 L 10.671875 6.15625 C 10.671875 6.25 10.6875 6.34375 10.6875 6.453125 C 10.703125 6.65625 10.71875 6.875 10.6875 7.078125 L 10.6875 7.09375 C 10.625 7.21875 10.515625 7.25 10.40625 7.296875 C 10.375 7.28125 10.34375 7.296875 10.296875 7.3125 Z M 9.953125 6.9375 C 10.015625 7.078125 10.140625 7.171875 10.28125 7.203125 C 10.3125 7.1875 10.34375 7.1875 10.359375 7.171875 C 10.453125 7.140625 10.53125 7.109375 10.578125 7.03125 C 10.609375 6.84375 10.59375 6.640625 10.578125 6.4375 C 10.578125 6.34375 10.5625 6.25 10.5625 6.171875 L 9.96875 5.984375 C 9.96875 6.078125 9.953125 6.171875 9.953125 6.25 C 9.9375 6.5 9.921875 6.71875 9.953125 6.9375 Z M 9.953125 6.9375 "/>
<path style=" stroke:none;fill-rule:evenodd;fill:rgb(0%,0%,0%);fill-opacity:1;" d="M 7.234375 3.515625 C 7.234375 3.828125 7 4.078125 6.71875 4.078125 C 6.4375 4.078125 6.203125 3.828125 6.203125 3.515625 C 6.203125 3.203125 6.4375 2.953125 6.71875 2.953125 C 7 2.953125 7.234375 3.203125 7.234375 3.515625 "/>
<path style=" stroke:none;fill-rule:evenodd;fill:rgb(100%,100%,100%);fill-opacity:1;" d="M 7.0625 3.640625 C 7.0625 3.71875 7 3.78125 6.9375 3.78125 C 6.875 3.78125 6.8125 3.71875 6.8125 3.640625 C 6.8125 3.5625 6.875 3.5 6.9375 3.5 C 7.015625 3.5 7.0625 3.5625 7.0625 3.640625 "/>
<path style=" stroke:none;fill-rule:evenodd;fill:rgb(0%,0%,0%);fill-opacity:1;" d="M 11.59375 3.375 C 11.59375 3.6875 11.359375 3.9375 11.078125 3.9375 C 10.796875 3.9375 10.5625 3.6875 10.5625 3.375 C 10.5625 3.0625 10.796875 2.8125 11.078125 2.8125 C 11.359375 2.8125 11.59375 3.0625 11.59375 3.375 "/>
<path style=" stroke:none;fill-rule:evenodd;fill:rgb(100%,100%,100%);fill-opacity:1;" d="M 11.4375 3.5 C 11.4375 3.578125 11.390625 3.640625 11.3125 3.640625 C 11.25 3.640625 11.1875 3.578125 11.1875 3.5 C 11.1875 3.421875 11.234375 3.359375 11.3125 3.359375 C 11.375 3.359375 11.4375 3.421875 11.4375 3.5 M 9.125 6.09375 C 8.890625 6.640625 9.25 7.75 9.875 6.9375 C 9.828125 6.59375 9.890625 6.25 9.90625 5.90625 Z M 9.125 6.09375 "/>
<path style=" stroke:none;fill-rule:nonzero;fill:rgb(0%,0%,0%);fill-opacity:1;" d="M 9.453125 7.28125 C 9.34375 7.28125 9.234375 7.21875 9.15625 7.09375 C 8.984375 6.84375 8.953125 6.375 9.078125 6.078125 L 9.09375 6.046875 L 9.953125 5.828125 L 9.953125 5.890625 L 9.9375 6.234375 C 9.921875 6.46875 9.90625 6.6875 9.9375 6.921875 L 9.9375 6.9375 L 9.921875 6.953125 C 9.765625 7.171875 9.609375 7.28125 9.453125 7.28125 Z M 9.171875 6.140625 C 9.078125 6.40625 9.109375 6.828125 9.25 7.03125 C 9.3125 7.125 9.375 7.171875 9.453125 7.171875 C 9.5625 7.171875 9.6875 7.078125 9.8125 6.921875 C 9.78125 6.6875 9.796875 6.453125 9.828125 6.234375 L 9.84375 5.96875 Z M 9.171875 6.140625 "/>
<path style=" stroke:none;fill-rule:evenodd;fill:rgb(96.470588%,82.352942%,63.529414%);fill-opacity:1;" d="M 9.203125 5.03125 C 8.78125 5.0625 8.4375 5.578125 8.65625 5.96875 C 8.953125 6.5 9.59375 5.921875 10 5.96875 C 10.46875 5.984375 10.84375 6.46875 11.21875 6.0625 C 11.640625 5.609375 11.03125 5.171875 10.578125 4.96875 Z M 9.203125 5.03125 "/>
<path style=" stroke:none;fill-rule:nonzero;fill:rgb(13.725491%,12.156863%,12.54902%);fill-opacity:1;" d="M 10.890625 6.28125 C 10.75 6.28125 10.609375 6.21875 10.46875 6.15625 C 10.328125 6.09375 10.171875 6.03125 10 6.03125 L 9.953125 6.03125 C 9.828125 6.03125 9.6875 6.078125 9.53125 6.140625 C 9.359375 6.203125 9.1875 6.25 9.03125 6.25 C 8.84375 6.25 8.703125 6.171875 8.609375 6 C 8.5 5.8125 8.515625 5.59375 8.625 5.390625 C 8.75 5.15625 8.96875 5.015625 9.203125 4.984375 L 10.59375 4.921875 L 10.609375 4.921875 C 10.953125 5.0625 11.34375 5.328125 11.421875 5.640625 C 11.453125 5.796875 11.40625 5.953125 11.28125 6.09375 C 11.15625 6.234375 11.03125 6.28125 10.890625 6.28125 Z M 10.015625 5.9375 C 10.1875 5.9375 10.359375 6.015625 10.515625 6.078125 C 10.65625 6.140625 10.78125 6.1875 10.90625 6.1875 C 11.015625 6.1875 11.109375 6.140625 11.203125 6.046875 C 11.3125 5.9375 11.34375 5.8125 11.328125 5.6875 C 11.265625 5.421875 10.890625 5.171875 10.59375 5.046875 L 9.234375 5.109375 C 9.03125 5.125 8.84375 5.265625 8.734375 5.453125 C 8.640625 5.625 8.640625 5.8125 8.71875 5.96875 C 8.796875 6.109375 8.890625 6.171875 9.046875 6.171875 C 9.1875 6.171875 9.34375 6.109375 9.5 6.0625 C 9.671875 6 9.8125 5.953125 9.96875 5.953125 C 9.96875 5.921875 9.984375 5.921875 10.015625 5.9375 Z M 10.015625 5.9375 "/>
<path style=" stroke:none;fill-rule:evenodd;fill:rgb(0%,0%,0%);fill-opacity:1;" d="M 9.15625 5.015625 C 9.125 4.28125 10.53125 4.1875 10.6875 4.796875 C 10.859375 5.421875 9.21875 5.5625 9.15625 5.015625 "/>
</g>
</svg>
