<?xml version="1.0" encoding="UTF-8"?>
<svg xmlns="http://www.w3.org/2000/svg" xmlns:xlink="http://www.w3.org/1999/xlink" width="22" height="22" viewBox="0 0 22 22">
<path fill-rule="nonzero" fill="rgb(54.901961%, 77.254902%, 90.588235%)" fill-opacity="1" d="M 19.679688 2.9375 C 20.332031 4.289062 18.34375 4.433594 18.449219 5.035156 C 18.632812 6.125 18.507812 7.738281 18.363281 9.328125 C 18.117188 12.019531 20.128906 18.464844 15.933594 21.058594 C 15.144531 21.550781 13.265625 21.820312 11.414062 21.863281 L 11.398438 21.863281 C 9.546875 21.820312 7.414062 21.550781 6.625 21.058594 C 2.4375 18.464844 4.449219 12.019531 4.210938 9.328125 C 4.058594 7.738281 3.929688 6.125 4.125 5.035156 C 4.226562 4.433594 2.242188 4.296875 2.894531 2.9375 C 3.453125 1.773438 4.839844 2.804688 5.1875 2.4375 C 6.964844 0.59375 9.121094 0.101562 10.820312 0.0585938 L 11.753906 0.0585938 C 13.445312 0.144531 15.601562 0.601562 17.386719 2.4375 C 17.734375 2.804688 19.109375 1.773438 19.679688 2.9375 Z M 10.480469 9.996094 C 10.402344 10.03125 10.277344 10.863281 10.667969 10.90625 C 10.929688 10.933594 11.652344 11.015625 11.820312 10.90625 C 12.152344 10.695312 12.117188 10.183594 11.933594 10.058594 C 11.617188 9.851562 10.566406 9.957031 10.480469 9.996094 Z M 8.320312 3.761719 C 7.449219 3.660156 5.976562 4.476562 5.757812 6.210938 C 5.519531 8.011719 7.644531 9.792969 9.679688 8.011719 C 10.777344 7.050781 11.160156 4.09375 8.320312 3.761719 Z M 14.234375 3.761719 C 11.398438 4.09375 11.78125 7.050781 12.875 8.011719 C 14.914062 9.792969 17.039062 8.011719 16.800781 6.210938 C 16.585938 4.476562 15.117188 3.660156 14.234375 3.761719 Z M 14.234375 3.761719 "/>
<path fill-rule="nonzero" fill="rgb(72.156863%, 57.647059%, 49.803922%)" fill-opacity="1" d="M 11.285156 8.238281 C 11.820312 8.164062 13.105469 8.773438 13.019531 9.496094 C 12.917969 10.335938 9.714844 10.449219 9.546875 9.445312 C 9.445312 8.832031 9.925781 8.441406 11.285156 8.238281 Z M 18.515625 15.007812 C 18.25 15 18.082031 14.652344 18.082031 14.441406 C 18.082031 14.058594 18.132812 13.609375 18.414062 13.414062 C 18.992188 13.011719 19.449219 15.019531 18.515625 15.007812 Z M 4.050781 15.007812 C 3.117188 15.019531 3.574219 13.011719 4.152344 13.414062 C 4.433594 13.609375 4.484375 14.058594 4.484375 14.441406 C 4.484375 14.652344 4.3125 15 4.050781 15.007812 Z M 16.738281 21.167969 C 16.910156 21.414062 16.917969 21.582031 16.648438 21.710938 C 15.609375 22.1875 14.683594 21.550781 15.03125 21.371094 C 15.773438 20.996094 16.230469 20.410156 16.738281 21.167969 Z M 5.824219 21.253906 C 6.335938 20.496094 6.792969 21.082031 7.53125 21.457031 C 7.878906 21.632812 6.953125 22.273438 5.917969 21.796875 C 5.648438 21.667969 5.65625 21.5 5.824219 21.253906 Z M 5.824219 21.253906 "/>
<path fill-rule="nonzero" fill="rgb(0%, 0%, 0%)" fill-opacity="1" d="M 18.089844 3.144531 C 18.132812 2.964844 18.574219 2.878906 18.820312 3.183594 C 19.117188 3.550781 18.386719 4.050781 18.355469 3.847656 C 18.269531 3.296875 18.039062 3.320312 18.089844 3.144531 Z M 4.472656 3.144531 C 4.523438 3.320312 4.296875 3.296875 4.210938 3.847656 C 4.175781 4.050781 3.445312 3.550781 3.742188 3.183594 C 3.980469 2.878906 4.421875 2.964844 4.472656 3.144531 Z M 14.429688 7.28125 C 13.894531 7.28125 13.460938 6.847656 13.460938 6.3125 C 13.460938 5.777344 13.894531 5.34375 14.429688 5.34375 C 14.964844 5.34375 15.398438 5.777344 15.398438 6.3125 C 15.398438 6.847656 14.964844 7.28125 14.429688 7.28125 Z M 14.175781 6.199219 C 14.34375 6.199219 14.480469 6.0625 14.480469 5.894531 C 14.480469 5.726562 14.34375 5.589844 14.175781 5.589844 C 14.003906 5.589844 13.867188 5.726562 13.867188 5.894531 C 13.867188 6.0625 14.003906 6.199219 14.175781 6.199219 Z M 10.410156 8.648438 C 10.515625 8.257812 10.871094 8.128906 11.160156 8.121094 C 11.898438 8.101562 12.179688 8.503906 12.203125 8.816406 C 12.253906 9.351562 10.183594 9.480469 10.410156 8.648438 Z M 8.136719 7.28125 C 7.601562 7.28125 7.167969 6.847656 7.167969 6.3125 C 7.167969 5.777344 7.601562 5.34375 8.136719 5.34375 C 8.671875 5.34375 9.105469 5.777344 9.105469 6.3125 C 9.105469 6.847656 8.671875 7.28125 8.136719 7.28125 Z M 8.390625 6.199219 C 8.558594 6.199219 8.695312 6.0625 8.695312 5.894531 C 8.695312 5.726562 8.558594 5.589844 8.390625 5.589844 C 8.222656 5.589844 8.085938 5.726562 8.085938 5.894531 C 8.085938 6.0625 8.222656 6.199219 8.390625 6.199219 Z M 8.390625 6.199219 "/>
</svg>
