<?xml version="1.0" encoding="UTF-8"?>
<svg xmlns="http://www.w3.org/2000/svg" xmlns:xlink="http://www.w3.org/1999/xlink" width="22" height="22" viewBox="0 0 22 22">
<path fill-rule="nonzero" fill="rgb(83.529412%, 4.705882%, 17.647059%)" fill-opacity="1" d="M 22 11 C 22 17.074219 17.074219 22 11 22 C 4.925781 22 0 17.074219 0 11 C 0 4.925781 4.925781 0 11 0 C 17.074219 0 22 4.925781 22 11 Z M 22 11 "/>
<path fill-rule="nonzero" fill="rgb(100%, 100%, 100%)" fill-opacity="1" d="M 17.664062 11.242188 C 17.796875 11.21875 17.921875 11.164062 18.027344 11.082031 C 18.125 10.980469 18.171875 10.839844 18.164062 10.699219 C 18.164062 10.585938 18.128906 10.472656 18.074219 10.375 C 17.984375 10.222656 17.824219 10.128906 17.648438 10.121094 L 17.5625 10.121094 L 17.355469 10.113281 L 16.433594 10.113281 C 16.378906 10.113281 16.355469 10.136719 16.355469 10.191406 L 16.355469 11.808594 C 16.355469 11.867188 16.378906 11.890625 16.433594 11.890625 L 16.675781 11.890625 C 16.730469 11.890625 16.753906 11.867188 16.753906 11.808594 L 16.753906 11.273438 L 17.046875 11.273438 C 17.113281 11.28125 17.175781 11.304688 17.222656 11.347656 L 17.6875 11.816406 C 17.730469 11.859375 17.785156 11.886719 17.847656 11.890625 L 18.203125 11.890625 C 18.257812 11.890625 18.273438 11.855469 18.234375 11.816406 Z M 17.605469 10.894531 L 16.753906 10.894531 L 16.753906 10.488281 L 17.605469 10.488281 C 17.691406 10.496094 17.753906 10.570312 17.753906 10.660156 L 17.753906 10.71875 C 17.753906 10.8125 17.691406 10.882812 17.605469 10.894531 Z M 15.980469 11.511719 L 14.660156 11.511719 L 14.660156 11.179688 L 15.714844 11.179688 C 15.769531 11.179688 15.792969 11.15625 15.792969 11.097656 L 15.792969 10.90625 C 15.792969 10.851562 15.769531 10.824219 15.714844 10.824219 L 14.660156 10.824219 L 14.660156 10.492188 L 15.980469 10.492188 C 16.039062 10.492188 16.0625 10.46875 16.0625 10.414062 L 16.0625 10.191406 C 16.0625 10.136719 16.039062 10.113281 15.980469 10.113281 L 14.332031 10.113281 C 14.277344 10.113281 14.253906 10.136719 14.253906 10.191406 L 14.253906 11.8125 C 14.253906 11.867188 14.277344 11.890625 14.332031 11.890625 L 15.980469 11.890625 C 16.039062 11.890625 16.0625 11.867188 16.0625 11.8125 L 16.0625 11.59375 C 16.0625 11.535156 16.035156 11.511719 15.980469 11.511719 Z M 13.960938 10.695312 C 13.960938 10.582031 13.929688 10.472656 13.871094 10.375 C 13.78125 10.21875 13.617188 10.121094 13.441406 10.109375 L 12.230469 10.109375 C 12.171875 10.109375 12.148438 10.132812 12.148438 10.191406 L 12.148438 11.808594 C 12.148438 11.863281 12.171875 11.886719 12.230469 11.886719 L 12.488281 11.886719 C 12.542969 11.886719 12.570312 11.867188 12.570312 11.808594 L 12.570312 10.488281 L 13.269531 10.488281 C 13.421875 10.488281 13.566406 10.585938 13.566406 10.738281 L 13.566406 11.808594 C 13.566406 11.867188 13.589844 11.890625 13.644531 11.890625 L 13.882812 11.890625 C 13.9375 11.890625 13.960938 11.867188 13.960938 11.808594 Z M 11.78125 11.5 L 10.640625 11.5 L 11.78125 10.496094 C 11.828125 10.460938 11.855469 10.410156 11.863281 10.347656 L 11.863281 10.191406 C 11.863281 10.132812 11.839844 10.109375 11.78125 10.109375 L 10.128906 10.109375 C 10.070312 10.109375 10.046875 10.132812 10.046875 10.191406 L 10.046875 10.410156 C 10.046875 10.46875 10.070312 10.492188 10.128906 10.492188 L 11.1875 10.492188 L 10.125 11.488281 C 10.078125 11.523438 10.046875 11.574219 10.042969 11.636719 L 10.042969 11.808594 C 10.042969 11.867188 10.066406 11.890625 10.125 11.890625 L 11.777344 11.890625 C 11.832031 11.890625 11.855469 11.867188 11.855469 11.808594 L 11.855469 11.578125 C 11.859375 11.523438 11.835938 11.5 11.78125 11.5 Z M 9.675781 10.109375 L 8.027344 10.109375 C 7.972656 10.109375 7.945312 10.132812 7.945312 10.191406 L 7.945312 10.410156 C 7.945312 10.46875 7.96875 10.492188 8.027344 10.492188 L 8.648438 10.492188 L 8.648438 11.808594 C 8.648438 11.867188 8.671875 11.890625 8.730469 11.890625 L 8.992188 11.890625 C 9.050781 11.890625 9.074219 11.867188 9.074219 11.808594 L 9.074219 10.492188 L 9.679688 10.492188 C 9.734375 10.492188 9.757812 10.46875 9.757812 10.410156 L 9.757812 10.191406 C 9.757812 10.136719 9.734375 10.109375 9.675781 10.109375 Z M 7.574219 11.511719 L 6.257812 11.511719 L 6.257812 11.179688 L 7.3125 11.179688 C 7.367188 11.179688 7.390625 11.15625 7.390625 11.097656 L 7.390625 10.90625 C 7.390625 10.851562 7.371094 10.824219 7.3125 10.824219 L 6.257812 10.824219 L 6.257812 10.492188 L 7.574219 10.492188 C 7.632812 10.492188 7.65625 10.46875 7.65625 10.414062 L 7.65625 10.191406 C 7.65625 10.136719 7.632812 10.113281 7.574219 10.113281 L 5.929688 10.113281 C 5.875 10.113281 5.851562 10.136719 5.851562 10.191406 L 5.851562 11.8125 C 5.851562 11.867188 5.875 11.890625 5.929688 11.890625 L 7.574219 11.890625 C 7.632812 11.890625 7.65625 11.867188 7.65625 11.8125 L 7.65625 11.59375 C 7.65625 11.535156 7.632812 11.511719 7.574219 11.511719 Z M 5.472656 10.109375 L 5.226562 10.109375 C 5.167969 10.109375 5.144531 10.132812 5.144531 10.191406 L 5.144531 10.820312 L 4.15625 10.820312 L 4.15625 10.191406 C 4.15625 10.132812 4.132812 10.109375 4.074219 10.109375 L 3.824219 10.109375 C 3.769531 10.109375 3.746094 10.132812 3.746094 10.191406 L 3.746094 11.808594 C 3.746094 11.867188 3.769531 11.890625 3.824219 11.890625 L 4.074219 11.890625 C 4.132812 11.890625 4.15625 11.867188 4.15625 11.808594 L 4.15625 11.167969 L 5.148438 11.167969 L 5.148438 11.808594 C 5.148438 11.867188 5.171875 11.890625 5.226562 11.890625 L 5.476562 11.890625 C 5.53125 11.890625 5.554688 11.867188 5.554688 11.808594 L 5.554688 10.191406 C 5.554688 10.136719 5.53125 10.109375 5.472656 10.109375 Z M 5.472656 10.109375 "/>
</svg>
