<?xml version="1.0" encoding="UTF-8"?>
<svg xmlns="http://www.w3.org/2000/svg" xmlns:xlink="http://www.w3.org/1999/xlink" width="20px" height="20px" viewBox="0 0 20 20" version="1.1">
<g id="surface1">
<path style=" stroke:none;fill-rule:nonzero;fill:rgb(89.019608%,30.980393%,14.901961%);fill-opacity:1;" d="M 2.773438 17.96875 L 1.171875 0 L 18.789062 0 L 17.1875 17.96875 L 9.960938 20 "/>
<path style=" stroke:none;fill-rule:nonzero;fill:rgb(93.725491%,39.607844%,16.470589%);fill-opacity:1;" d="M 10 18.4375 L 15.820312 16.835938 L 17.1875 1.445312 L 10 1.445312 "/>
<path style=" stroke:none;fill-rule:nonzero;fill:rgb(92.156863%,92.156863%,92.156863%);fill-opacity:1;" d="M 10 8.125 L 7.070312 8.125 L 6.875 5.859375 L 10 5.859375 L 10 3.671875 L 4.453125 3.671875 L 5.039062 10.351562 L 10 10.351562 Z M 9.960938 13.867188 L 7.5 13.203125 L 7.34375 11.445312 L 5.15625 11.445312 L 5.429688 14.921875 L 9.960938 16.171875 Z M 9.960938 13.867188 "/>
<path style=" stroke:none;fill-rule:nonzero;fill:rgb(100%,100%,100%);fill-opacity:1;" d="M 9.960938 8.125 L 9.960938 10.351562 L 12.695312 10.351562 L 12.421875 13.203125 L 9.960938 13.867188 L 9.960938 16.171875 L 14.492188 14.921875 L 15.117188 8.125 Z M 9.960938 3.671875 L 9.960938 5.859375 L 15.3125 5.859375 L 15.507812 3.671875 Z M 9.960938 3.671875 "/>
</g>
</svg>
