<?xml version="1.0" encoding="UTF-8"?>
<svg xmlns="http://www.w3.org/2000/svg" xmlns:xlink="http://www.w3.org/1999/xlink" width="22" height="22" viewBox="0 0 22 22">
<path fill-rule="nonzero" fill="rgb(89.019608%, 30.980392%, 14.901961%)" fill-opacity="1" d="M 3.046875 19.765625 L 1.289062 0 L 20.671875 0 L 18.90625 19.765625 L 10.953125 22 "/>
<path fill-rule="nonzero" fill="rgb(93.72549%, 39.607843%, 16.470588%)" fill-opacity="1" d="M 11 20.28125 L 17.40625 18.515625 L 18.90625 1.59375 L 11 1.59375 "/>
<path fill-rule="nonzero" fill="rgb(92.156863%, 92.156863%, 92.156863%)" fill-opacity="1" d="M 11 8.9375 L 7.78125 8.9375 L 7.5625 6.445312 L 11 6.445312 L 11 4.039062 L 4.898438 4.039062 L 5.546875 11.390625 L 11 11.390625 Z M 10.953125 15.25 L 8.25 14.523438 L 8.078125 12.59375 L 5.671875 12.59375 L 5.96875 16.414062 L 10.953125 17.789062 Z M 10.953125 15.25 "/>
<path fill-rule="nonzero" fill="rgb(100%, 100%, 100%)" fill-opacity="1" d="M 10.953125 8.9375 L 10.953125 11.390625 L 13.96875 11.390625 L 13.664062 14.523438 L 10.953125 15.25 L 10.953125 17.789062 L 15.9375 16.414062 L 16.625 8.9375 Z M 10.953125 4.039062 L 10.953125 6.445312 L 16.84375 6.445312 L 17.0625 4.039062 Z M 10.953125 4.039062 "/>
</svg>
