<?xml version="1.0" encoding="UTF-8"?>
<svg xmlns="http://www.w3.org/2000/svg" xmlns:xlink="http://www.w3.org/1999/xlink" width="20px" height="20px" viewBox="0 0 20 20" version="1.1">
<g id="surface1">
<path style=" stroke:none;fill-rule:nonzero;fill:rgb(0%,59.215689%,53.725493%);fill-opacity:1;" d="M 12.441406 2.085938 L 12.441406 5.84375 L 16.667969 16.6875 C 16.667969 16.6875 17.957031 19.335938 14.269531 19.984375 L 5.855469 19.984375 C 5.855469 19.984375 2.421875 19.625 3.242188 16.902344 L 7.679688 5.84375 L 7.679688 2.085938 Z M 12.441406 2.085938 "/>
<path style=" stroke:none;fill-rule:nonzero;fill:rgb(0.784314%,30.588236%,25.490198%);fill-opacity:1;" d="M 12.53125 1.648438 L 7.46875 1.648438 C 7.058594 1.648438 6.722656 1.285156 6.722656 0.832031 C 6.722656 0.382812 7.058594 0.015625 7.46875 0.015625 L 12.53125 0.015625 C 12.945312 0.015625 13.277344 0.382812 13.277344 0.832031 C 13.277344 1.285156 12.945312 1.648438 12.53125 1.648438 Z M 12.53125 1.648438 "/>
<path style=" stroke:none;fill-rule:nonzero;fill:rgb(100%,100%,100%);fill-opacity:1;" d="M 11.195312 8.222656 C 11.738281 8.222656 12.183594 8.753906 12.183594 9.410156 C 12.183594 10.066406 11.738281 10.597656 11.195312 10.597656 C 10.652344 10.597656 10.207031 10.066406 10.207031 9.410156 C 10.210938 8.753906 10.652344 8.222656 11.195312 8.222656 Z M 11.195312 8.222656 "/>
<path style=" stroke:none;fill-rule:nonzero;fill:rgb(100%,100%,100%);fill-opacity:1;" d="M 9 10.304688 C 9 10.855469 8.625 11.304688 8.167969 11.304688 C 7.707031 11.304688 7.335938 10.855469 7.335938 10.304688 C 7.335938 9.75 7.707031 9.300781 8.167969 9.300781 C 8.625 9.300781 9 9.75 9 10.304688 Z M 9 10.304688 "/>
<path style=" stroke:none;fill-rule:nonzero;fill:rgb(0.784314%,30.588236%,25.490198%);fill-opacity:1;" d="M 12.816406 5.59375 L 12.816406 3.808594 C 12.816406 3.808594 15.085938 3.308594 16.21875 5.945312 C 16.21875 5.941406 14.453125 7.230469 12.816406 5.59375 Z M 12.816406 5.59375 "/>
<path style=" stroke:none;fill-rule:nonzero;fill:rgb(0.784314%,30.588236%,25.490198%);fill-opacity:1;" d="M 7.265625 5.59375 L 7.265625 3.808594 C 7.265625 3.808594 5 3.308594 3.867188 5.945312 C 3.867188 5.941406 5.632812 7.230469 7.265625 5.59375 Z M 7.265625 5.59375 "/>
<path style=" stroke:none;fill-rule:nonzero;fill:rgb(100%,100%,100%);fill-opacity:1;" d="M 14.179688 12.992188 C 10.496094 11.847656 7.398438 12.460938 5.882812 12.925781 L 4.355469 16.601562 C 3.667969 18.792969 6.539062 19.082031 6.539062 19.082031 L 13.5625 19.082031 C 16.644531 18.5625 15.566406 16.425781 15.566406 16.425781 Z M 14.179688 12.992188 "/>
<path style=" stroke:none;fill-rule:nonzero;fill:rgb(0.784314%,30.588236%,25.490198%);fill-opacity:1;" d="M 8.871094 14.355469 C 8.871094 14.753906 8.335938 15.074219 7.679688 15.074219 C 7.023438 15.074219 6.492188 14.753906 6.492188 14.355469 C 6.492188 13.957031 7.023438 13.636719 7.679688 13.636719 C 8.335938 13.636719 8.871094 13.957031 8.871094 14.355469 Z M 8.871094 14.355469 "/>
<path style=" stroke:none;fill-rule:nonzero;fill:rgb(0.784314%,30.588236%,25.490198%);fill-opacity:1;" d="M 13.097656 14.355469 C 13.097656 14.753906 12.566406 15.074219 11.910156 15.074219 C 11.253906 15.074219 10.722656 14.753906 10.722656 14.355469 C 10.722656 13.957031 11.253906 13.636719 11.910156 13.636719 C 12.566406 13.636719 13.097656 13.957031 13.097656 14.355469 Z M 13.097656 14.355469 "/>
</g>
</svg>
