<?xml version="1.0" encoding="UTF-8"?>
<svg xmlns="http://www.w3.org/2000/svg" xmlns:xlink="http://www.w3.org/1999/xlink" width="22px" height="22px" viewBox="0 0 22 22" version="1.1">
<g id="surface1">
<path style=" stroke:none;fill-rule:nonzero;fill:rgb(0%,59.215689%,53.725493%);fill-opacity:1;" d="M 13.683594 2.296875 L 13.683594 6.429688 L 18.335938 18.355469 C 18.335938 18.355469 19.75 21.265625 15.695312 21.984375 L 6.441406 21.984375 C 6.441406 21.984375 2.664062 21.585938 3.5625 18.59375 L 8.449219 6.429688 L 8.449219 2.296875 Z M 13.683594 2.296875 "/>
<path style=" stroke:none;fill-rule:nonzero;fill:rgb(0.784314%,30.588236%,25.490198%);fill-opacity:1;" d="M 13.785156 1.816406 L 8.214844 1.816406 C 7.765625 1.816406 7.394531 1.414062 7.394531 0.914062 C 7.394531 0.417969 7.765625 0.015625 8.214844 0.015625 L 13.785156 0.015625 C 14.238281 0.015625 14.605469 0.417969 14.605469 0.914062 C 14.605469 1.414062 14.238281 1.816406 13.785156 1.816406 Z M 13.785156 1.816406 "/>
<path style=" stroke:none;fill-rule:nonzero;fill:rgb(100%,100%,100%);fill-opacity:1;" d="M 12.3125 9.042969 C 12.910156 9.042969 13.402344 9.628906 13.402344 10.351562 C 13.402344 11.070312 12.910156 11.65625 12.3125 11.65625 C 11.71875 11.65625 11.226562 11.070312 11.226562 10.351562 C 11.234375 9.628906 11.71875 9.042969 12.3125 9.042969 Z M 12.3125 9.042969 "/>
<path style=" stroke:none;fill-rule:nonzero;fill:rgb(100%,100%,100%);fill-opacity:1;" d="M 9.898438 11.335938 C 9.898438 11.941406 9.488281 12.4375 8.984375 12.4375 C 8.476562 12.4375 8.070312 11.941406 8.070312 11.335938 C 8.070312 10.726562 8.476562 10.230469 8.984375 10.230469 C 9.488281 10.230469 9.898438 10.726562 9.898438 11.335938 Z M 9.898438 11.335938 "/>
<path style=" stroke:none;fill-rule:nonzero;fill:rgb(0.784314%,30.588236%,25.490198%);fill-opacity:1;" d="M 14.097656 6.152344 L 14.097656 4.191406 C 14.097656 4.191406 16.597656 3.640625 17.839844 6.539062 C 17.839844 6.535156 15.898438 7.953125 14.097656 6.152344 Z M 14.097656 6.152344 "/>
<path style=" stroke:none;fill-rule:nonzero;fill:rgb(0.784314%,30.588236%,25.490198%);fill-opacity:1;" d="M 7.992188 6.152344 L 7.992188 4.191406 C 7.992188 4.191406 5.5 3.640625 4.25 6.539062 C 4.25 6.535156 6.195312 7.953125 7.992188 6.152344 Z M 7.992188 6.152344 "/>
<path style=" stroke:none;fill-rule:nonzero;fill:rgb(100%,100%,100%);fill-opacity:1;" d="M 15.59375 14.292969 C 11.546875 13.03125 8.140625 13.703125 6.46875 14.21875 L 4.792969 18.265625 C 4.035156 20.671875 7.191406 20.988281 7.191406 20.988281 L 14.917969 20.988281 C 18.308594 20.417969 17.121094 18.066406 17.121094 18.066406 Z M 15.59375 14.292969 "/>
<path style=" stroke:none;fill-rule:nonzero;fill:rgb(0.784314%,30.588236%,25.490198%);fill-opacity:1;" d="M 9.757812 15.792969 C 9.757812 16.226562 9.171875 16.582031 8.449219 16.582031 C 7.726562 16.582031 7.144531 16.226562 7.144531 15.792969 C 7.144531 15.351562 7.726562 15 8.449219 15 C 9.171875 15 9.757812 15.351562 9.757812 15.792969 Z M 9.757812 15.792969 "/>
<path style=" stroke:none;fill-rule:nonzero;fill:rgb(0.784314%,30.588236%,25.490198%);fill-opacity:1;" d="M 14.40625 15.792969 C 14.40625 16.226562 13.820312 16.582031 13.101562 16.582031 C 12.378906 16.582031 11.792969 16.226562 11.792969 15.792969 C 11.792969 15.351562 12.378906 15 13.101562 15 C 13.820312 15 14.40625 15.351562 14.40625 15.792969 Z M 14.40625 15.792969 "/>
</g>
</svg>
