<?xml version="1.0" encoding="UTF-8"?>
<svg xmlns="http://www.w3.org/2000/svg" xmlns:xlink="http://www.w3.org/1999/xlink" width="20px" height="20px" viewBox="0 0 20 20" version="1.1">
<g id="surface1">
<path style=" stroke:none;fill-rule:nonzero;fill:rgb(94.117647%,85.882354%,30.980393%);fill-opacity:1;" d="M 0.21875 0.21875 L 19.78125 0.21875 L 19.78125 19.78125 L 0.21875 19.78125 Z M 0.21875 0.21875 "/>
<path style=" stroke:none;fill-rule:nonzero;fill:rgb(19.607843%,20%,18.82353%);fill-opacity:1;" d="M 18.179688 15.113281 C 18.035156 14.222656 17.453125 13.472656 15.730469 12.773438 C 15.132812 12.5 14.464844 12.300781 14.265625 11.847656 C 14.195312 11.585938 14.183594 11.433594 14.230469 11.277344 C 14.359375 10.757812 14.976562 10.59375 15.46875 10.742188 C 15.785156 10.851562 16.082031 11.09375 16.265625 11.480469 C 17.109375 10.933594 17.105469 10.9375 17.695312 10.5625 C 17.480469 10.230469 17.363281 10.074219 17.222656 9.929688 C 16.714844 9.363281 16.023438 9.074219 14.917969 9.09375 L 14.339844 9.167969 C 13.789062 9.308594 13.261719 9.597656 12.953125 9.988281 C 12.027344 11.039062 12.292969 12.875 13.417969 13.632812 C 14.53125 14.464844 16.160156 14.65625 16.367188 15.433594 C 16.570312 16.390625 15.667969 16.699219 14.769531 16.585938 C 14.109375 16.449219 13.738281 16.113281 13.339844 15.503906 C 12.609375 15.925781 12.609375 15.925781 11.855469 16.359375 C 12.035156 16.75 12.222656 16.925781 12.519531 17.265625 C 13.9375 18.703125 17.484375 18.632812 18.121094 16.457031 C 18.144531 16.382812 18.316406 15.882812 18.179688 15.113281 Z M 10.851562 9.210938 L 9.023438 9.210938 L 9.015625 13.941406 C 9.015625 14.945312 9.070312 15.867188 8.90625 16.152344 C 8.636719 16.707031 7.945312 16.636719 7.628906 16.53125 C 7.304688 16.371094 7.140625 16.148438 6.953125 15.828125 C 6.902344 15.738281 6.863281 15.667969 6.847656 15.660156 L 5.359375 16.574219 C 5.609375 17.082031 5.972656 17.519531 6.4375 17.808594 C 7.136719 18.226562 8.074219 18.355469 9.054688 18.128906 C 9.691406 17.941406 10.242188 17.558594 10.53125 16.972656 C 10.945312 16.203125 10.855469 15.273438 10.851562 14.246094 C 10.863281 12.570312 10.851562 10.890625 10.851562 9.210938 Z M 10.851562 9.210938 "/>
</g>
</svg>
