<?xml version="1.0" encoding="UTF-8"?>
<svg xmlns="http://www.w3.org/2000/svg" xmlns:xlink="http://www.w3.org/1999/xlink" width="22px" height="22px" viewBox="0 0 22 22" version="1.1">
<g id="surface1">
<path style=" stroke:none;fill-rule:nonzero;fill:rgb(94.117647%,85.882354%,30.980393%);fill-opacity:1;" d="M 0.242188 0.242188 L 21.757812 0.242188 L 21.757812 21.757812 L 0.242188 21.757812 Z M 0.242188 0.242188 "/>
<path style=" stroke:none;fill-rule:nonzero;fill:rgb(19.607843%,20%,18.82353%);fill-opacity:1;" d="M 20 16.625 C 19.835938 15.644531 19.199219 14.820312 17.304688 14.046875 C 16.644531 13.75 15.914062 13.53125 15.691406 13.03125 C 15.613281 12.746094 15.601562 12.578125 15.65625 12.40625 C 15.796875 11.832031 16.472656 11.652344 17.015625 11.8125 C 17.363281 11.933594 17.6875 12.203125 17.890625 12.628906 C 18.820312 12.027344 18.816406 12.03125 19.46875 11.617188 C 19.230469 11.253906 19.097656 11.082031 18.945312 10.925781 C 18.386719 10.296875 17.628906 9.984375 16.410156 10.003906 L 15.773438 10.085938 C 15.171875 10.242188 14.589844 10.554688 14.25 10.984375 C 13.230469 12.140625 13.523438 14.164062 14.761719 15 C 15.984375 15.914062 17.773438 16.121094 18 16.976562 C 18.226562 18.03125 17.234375 18.371094 16.246094 18.246094 C 15.519531 18.09375 15.109375 17.722656 14.675781 17.054688 C 13.871094 17.515625 13.871094 17.515625 13.042969 17.996094 C 13.238281 18.425781 13.445312 18.617188 13.769531 18.992188 C 15.332031 20.574219 19.234375 20.5 19.933594 18.101562 C 19.957031 18.019531 20.148438 17.46875 20 16.625 Z M 11.933594 10.132812 L 9.921875 10.132812 L 9.917969 15.335938 C 9.917969 16.4375 9.976562 17.457031 9.796875 17.769531 C 9.5 18.375 8.738281 18.300781 8.390625 18.183594 C 8.03125 18.007812 7.855469 17.765625 7.648438 17.410156 C 7.59375 17.3125 7.546875 17.234375 7.53125 17.226562 L 5.894531 18.234375 C 6.171875 18.789062 6.570312 19.269531 7.082031 19.589844 C 7.851562 20.046875 8.882812 20.191406 9.960938 19.941406 C 10.660156 19.734375 11.269531 19.316406 11.585938 18.667969 C 12.039062 17.824219 11.941406 16.796875 11.933594 15.671875 C 11.949219 13.824219 11.933594 11.980469 11.933594 10.132812 Z M 11.933594 10.132812 "/>
</g>
</svg>
