<?xml version="1.0" encoding="UTF-8"?>
<svg xmlns="http://www.w3.org/2000/svg" xmlns:xlink="http://www.w3.org/1999/xlink" width="22" height="22" viewBox="0 0 22 22">
<defs>
<linearGradient id="linear-pattern-0" gradientUnits="userSpaceOnUse" x1="24.200001" y1="47.592999" x2="25.627001" y2="0" gradientTransform="matrix(0.458333, 0, 0, 0.458333, 0, 0)">
<stop offset="0" stop-color="rgb(45.490196%, 79.607843%, 19.607843%)" stop-opacity="1"/>
<stop offset="1" stop-color="rgb(67.058824%, 92.156863%, 41.960784%)" stop-opacity="1"/>
</linearGradient>
</defs>
<path fill-rule="nonzero" fill="url(#linear-pattern-0)" d="M 22 11 C 22 17.074219 17.074219 22 11 22 C 4.925781 22 0 17.074219 0 11 C 0 4.925781 4.925781 0 11 0 C 17.074219 0 22 4.925781 22 11 Z M 22 11 "/>
<path fill-rule="nonzero" fill="rgb(15.686275%, 23.921569%, 8.627451%)" fill-opacity="1" d="M 14.210938 4.582031 C 14.210938 4.582031 13.15625 5.609375 12.015625 6.019531 C 3.558594 9.078125 7.125 15.039062 7.242188 15.058594 C 7.242188 15.058594 7.714844 14.234375 8.355469 13.761719 C 12.417969 10.773438 13.246094 7.335938 13.246094 7.335938 C 13.246094 7.335938 12.332031 11.472656 8.71875 14.050781 C 7.917969 14.617188 7.378906 16.015625 7.148438 17.417969 C 7.148438 17.417969 7.714844 17.1875 7.957031 17.125 C 8.054688 16.507812 8.253906 15.914062 8.589844 15.382812 C 13.640625 15.984375 15.296875 11.914062 15.511719 10.492188 C 16.023438 7.136719 14.210938 4.582031 14.210938 4.582031 "/>
</svg>
