<?xml version="1.0" encoding="UTF-8"?>
<svg xmlns="http://www.w3.org/2000/svg" xmlns:xlink="http://www.w3.org/1999/xlink" width="20px" height="20px" viewBox="0 0 20 20" version="1.1">
<g id="surface1">
<path style=" stroke:none;fill-rule:nonzero;fill:rgb(51.372552%,80.392158%,16.078432%);fill-opacity:1;" d="M 17.621094 4.738281 L 10.730469 0.738281 C 10.296875 0.492188 9.730469 0.492188 9.292969 0.738281 L 2.328125 4.738281 C 1.878906 4.996094 1.5625 5.484375 1.5625 6 L 1.5625 13.992188 C 1.5625 14.511719 1.886719 14.996094 2.335938 15.253906 L 4.175781 16.300781 C 5.054688 16.734375 5.367188 16.734375 5.765625 16.734375 C 7.070312 16.734375 7.8125 15.945312 7.8125 14.574219 L 7.8125 6.683594 C 7.8125 6.570312 7.753906 6.40625 7.644531 6.40625 L 6.765625 6.40625 C 6.65625 6.40625 6.40625 6.570312 6.40625 6.683594 L 6.40625 14.574219 C 6.40625 15.179688 5.855469 15.785156 4.828125 15.273438 L 2.925781 14.175781 C 2.859375 14.140625 2.8125 14.066406 2.8125 13.992188 L 2.8125 6 C 2.8125 5.925781 2.898438 5.851562 2.964844 5.8125 L 9.90625 1.816406 C 9.972656 1.78125 10.066406 1.78125 10.132812 1.816406 L 16.988281 5.8125 C 17.054688 5.851562 17.03125 5.921875 17.03125 6 L 17.03125 13.992188 C 17.03125 14.066406 17.058594 14.140625 16.996094 14.179688 L 10.105469 18.175781 C 10.046875 18.210938 9.972656 18.210938 9.910156 18.175781 L 8.144531 17.121094 C 8.089844 17.089844 8.027344 17.078125 7.976562 17.109375 C 7.484375 17.386719 7.394531 17.421875 6.933594 17.582031 C 6.816406 17.621094 6.652344 17.691406 6.996094 17.882812 L 9.308594 19.253906 C 9.53125 19.378906 9.78125 19.445312 10.035156 19.445312 C 10.289062 19.445312 10.542969 19.378906 10.761719 19.253906 L 17.621094 15.253906 C 18.070312 14.992188 18.28125 14.511719 18.28125 13.992188 L 18.28125 6 C 18.28125 5.484375 18.070312 5 17.621094 4.738281 Z M 12.171875 12.726562 C 10.339844 12.726562 9.9375 12.21875 9.804688 11.308594 C 9.789062 11.210938 9.703125 11.09375 9.605469 11.09375 L 8.707031 11.09375 C 8.597656 11.09375 8.507812 11.226562 8.507812 11.339844 C 8.507812 12.503906 9.144531 13.917969 12.171875 13.917969 C 14.367188 13.917969 15.625 13.066406 15.625 11.558594 C 15.625 10.0625 14.613281 9.667969 12.488281 9.386719 C 10.335938 9.105469 10.117188 8.960938 10.117188 8.457031 C 10.117188 8.042969 10.304688 7.488281 11.894531 7.488281 C 13.316406 7.488281 13.84375 7.792969 14.058594 8.75 C 14.078125 8.839844 14.160156 8.90625 14.253906 8.90625 L 15.152344 8.90625 C 15.207031 8.90625 15.257812 8.882812 15.296875 8.84375 C 15.335938 8.800781 15.355469 8.75 15.351562 8.691406 C 15.210938 7.039062 14.113281 6.269531 11.894531 6.269531 C 9.921875 6.269531 8.746094 7.105469 8.746094 8.5 C 8.746094 10.015625 9.914062 10.433594 11.808594 10.621094 C 14.078125 10.84375 14.253906 11.175781 14.253906 11.621094 C 14.253906 12.394531 13.632812 12.726562 12.171875 12.726562 Z M 12.171875 12.726562 "/>
</g>
</svg>
