<?xml version="1.0" encoding="UTF-8"?>
<svg xmlns="http://www.w3.org/2000/svg" xmlns:xlink="http://www.w3.org/1999/xlink" width="22px" height="22px" viewBox="0 0 22 22" version="1.1">
<g id="surface1">
<path style=" stroke:none;fill-rule:nonzero;fill:rgb(51.372552%,80.392158%,16.078432%);fill-opacity:1;" d="M 19.382812 5.210938 L 11.804688 0.8125 C 11.328125 0.542969 10.703125 0.542969 10.222656 0.8125 L 2.5625 5.210938 C 2.066406 5.496094 1.71875 6.03125 1.71875 6.601562 L 1.71875 15.394531 C 1.71875 15.964844 2.078125 16.496094 2.570312 16.777344 L 4.59375 17.929688 C 5.5625 18.40625 5.90625 18.40625 6.34375 18.40625 C 7.78125 18.40625 8.59375 17.539062 8.59375 16.03125 L 8.59375 7.351562 C 8.59375 7.226562 8.527344 7.046875 8.40625 7.046875 L 7.441406 7.046875 C 7.320312 7.046875 7.046875 7.226562 7.046875 7.351562 L 7.046875 16.03125 C 7.046875 16.699219 6.441406 17.363281 5.3125 16.796875 L 3.21875 15.59375 C 3.144531 15.554688 3.09375 15.472656 3.09375 15.394531 L 3.09375 6.601562 C 3.09375 6.515625 3.191406 6.433594 3.261719 6.394531 L 10.898438 1.996094 C 10.96875 1.960938 11.070312 1.960938 11.144531 1.996094 L 18.6875 6.394531 C 18.761719 6.433594 18.734375 6.515625 18.734375 6.601562 L 18.734375 15.394531 C 18.734375 15.472656 18.765625 15.554688 18.695312 15.59375 L 11.117188 19.992188 C 11.050781 20.035156 10.96875 20.035156 10.898438 19.992188 L 8.957031 18.835938 C 8.898438 18.800781 8.832031 18.785156 8.773438 18.820312 C 8.234375 19.125 8.132812 19.164062 7.628906 19.339844 C 7.496094 19.382812 7.320312 19.460938 7.695312 19.667969 L 10.242188 21.179688 C 10.484375 21.316406 10.757812 21.386719 11.039062 21.386719 C 11.316406 21.386719 11.597656 21.316406 11.839844 21.179688 L 19.382812 16.777344 C 19.875 16.492188 20.109375 15.964844 20.109375 15.394531 L 20.109375 6.601562 C 20.109375 6.03125 19.875 5.5 19.382812 5.210938 Z M 13.390625 13.996094 C 11.375 13.996094 10.929688 13.441406 10.78125 12.441406 C 10.765625 12.328125 10.671875 12.203125 10.566406 12.203125 L 9.578125 12.203125 C 9.457031 12.203125 9.355469 12.347656 9.355469 12.476562 C 9.355469 13.753906 10.058594 15.3125 13.390625 15.3125 C 15.804688 15.3125 17.1875 14.371094 17.1875 12.714844 C 17.1875 11.070312 16.074219 10.636719 13.734375 10.328125 C 11.371094 10.015625 11.125 9.859375 11.125 9.300781 C 11.125 8.847656 11.335938 8.234375 13.082031 8.234375 C 14.648438 8.234375 15.226562 8.574219 15.464844 9.625 C 15.484375 9.726562 15.574219 9.796875 15.679688 9.796875 L 16.667969 9.796875 C 16.726562 9.796875 16.78125 9.769531 16.828125 9.726562 C 16.871094 9.679688 16.890625 9.625 16.890625 9.558594 C 16.734375 7.742188 15.523438 6.894531 13.082031 6.894531 C 10.914062 6.894531 9.621094 7.816406 9.621094 9.351562 C 9.621094 11.015625 10.902344 11.476562 12.992188 11.683594 C 15.484375 11.929688 15.679688 12.292969 15.679688 12.785156 C 15.679688 13.632812 15 13.996094 13.390625 13.996094 Z M 13.390625 13.996094 "/>
</g>
</svg>
