<?xml version="1.0" encoding="UTF-8"?>
<svg xmlns="http://www.w3.org/2000/svg" xmlns:xlink="http://www.w3.org/1999/xlink" width="20px" height="19px" viewBox="0 0 20 19" version="1.1">
<g id="surface1">
<path style=" stroke:none;fill-rule:nonzero;fill:rgb(57.647061%,83.529413%,0%);fill-opacity:1;" d="M 4.710938 11.574219 L 1.109375 11.574219 C 1.113281 11.589844 1.113281 11.609375 1.113281 11.625 C 1.113281 11.65625 1.117188 11.691406 1.117188 11.722656 C 1.121094 11.738281 1.121094 11.75 1.121094 11.765625 C 1.125 11.804688 1.128906 11.839844 1.132812 11.878906 C 1.132812 11.886719 1.132812 11.894531 1.132812 11.90625 C 1.136719 11.945312 1.144531 11.988281 1.148438 12.03125 C 1.148438 12.035156 1.148438 12.039062 1.148438 12.042969 C 1.15625 12.085938 1.160156 12.132812 1.167969 12.175781 C 1.167969 12.175781 1.167969 12.179688 1.167969 12.179688 C 1.210938 12.457031 1.273438 12.734375 1.355469 13.003906 C 1.367188 13.046875 1.382812 13.089844 1.394531 13.132812 C 1.398438 13.136719 1.398438 13.136719 1.398438 13.140625 C 1.398438 13.144531 1.398438 13.144531 1.402344 13.148438 C 1.414062 13.1875 1.425781 13.222656 1.441406 13.261719 C 1.445312 13.273438 1.445312 13.28125 1.449219 13.289062 C 1.460938 13.324219 1.476562 13.355469 1.488281 13.390625 C 1.492188 13.40625 1.5 13.417969 1.503906 13.433594 C 1.515625 13.460938 1.527344 13.488281 1.539062 13.515625 C 1.546875 13.535156 1.554688 13.554688 1.5625 13.578125 C 1.574219 13.597656 1.582031 13.617188 1.589844 13.640625 C 1.601562 13.667969 1.613281 13.691406 1.625 13.71875 C 1.632812 13.734375 1.640625 13.75 1.648438 13.765625 C 1.664062 13.796875 1.675781 13.828125 1.691406 13.855469 C 1.699219 13.867188 1.703125 13.878906 1.707031 13.886719 C 1.726562 13.921875 1.742188 13.957031 1.761719 13.992188 C 1.765625 13.996094 1.765625 14.003906 1.769531 14.007812 C 1.789062 14.046875 1.8125 14.085938 1.832031 14.125 C 1.835938 14.125 1.835938 14.128906 1.835938 14.128906 C 1.839844 14.136719 1.84375 14.144531 1.851562 14.152344 L 4.925781 12.359375 L 4.9375 12.351562 C 4.8125 12.105469 4.738281 11.839844 4.710938 11.574219 Z M 4.710938 11.574219 "/>
<path style=" stroke:none;fill-rule:nonzero;fill:rgb(30.19608%,35.294119%,19.215687%);fill-opacity:1;" d="M 5.59375 13.175781 L 5.585938 13.183594 L 3.050781 15.640625 C 3.0625 15.652344 3.078125 15.664062 3.089844 15.675781 C 3.113281 15.695312 3.136719 15.714844 3.164062 15.734375 C 3.175781 15.746094 3.1875 15.757812 3.199219 15.765625 C 3.226562 15.792969 3.257812 15.816406 3.285156 15.839844 C 3.292969 15.84375 3.300781 15.851562 3.308594 15.855469 C 3.347656 15.886719 3.382812 15.914062 3.421875 15.945312 C 3.457031 15.972656 3.492188 16 3.53125 16.023438 C 3.53125 16.027344 3.53125 16.027344 3.535156 16.027344 C 3.6875 16.140625 3.84375 16.242188 4.007812 16.339844 C 4.015625 16.34375 4.019531 16.34375 4.023438 16.347656 C 4.054688 16.367188 4.085938 16.382812 4.117188 16.402344 L 4.175781 16.433594 C 4.195312 16.445312 4.210938 16.453125 4.230469 16.464844 C 4.261719 16.480469 4.296875 16.5 4.328125 16.515625 C 4.335938 16.515625 4.339844 16.519531 4.34375 16.523438 C 4.4375 16.570312 4.527344 16.613281 4.625 16.652344 L 4.714844 16.441406 L 5.988281 13.441406 L 5.992188 13.433594 C 5.855469 13.359375 5.722656 13.273438 5.59375 13.175781 Z M 5.59375 13.175781 "/>
<path style=" stroke:none;fill-rule:nonzero;fill:rgb(41.960785%,64.313728%,22.745098%);fill-opacity:1;" d="M 5.332031 12.929688 C 5.304688 12.902344 5.277344 12.871094 5.253906 12.839844 C 5.230469 12.8125 5.207031 12.785156 5.1875 12.757812 C 5.164062 12.726562 5.140625 12.695312 5.117188 12.660156 C 5.09375 12.628906 5.070312 12.59375 5.050781 12.5625 L 1.972656 14.359375 C 2.019531 14.433594 2.070312 14.507812 2.121094 14.582031 C 2.121094 14.582031 2.121094 14.585938 2.125 14.589844 C 2.128906 14.59375 2.128906 14.597656 2.128906 14.597656 C 2.132812 14.597656 2.132812 14.597656 2.132812 14.601562 C 2.136719 14.605469 2.140625 14.609375 2.144531 14.617188 C 2.199219 14.695312 2.253906 14.769531 2.308594 14.84375 C 2.3125 14.84375 2.3125 14.847656 2.3125 14.847656 C 2.316406 14.851562 2.316406 14.851562 2.316406 14.851562 C 2.34375 14.882812 2.367188 14.917969 2.390625 14.949219 C 2.394531 14.953125 2.398438 14.957031 2.402344 14.960938 C 2.429688 14.992188 2.453125 15.023438 2.480469 15.054688 C 2.488281 15.0625 2.496094 15.070312 2.5 15.078125 C 2.523438 15.105469 2.550781 15.132812 2.574219 15.160156 C 2.585938 15.175781 2.597656 15.1875 2.605469 15.199219 C 2.628906 15.222656 2.648438 15.246094 2.671875 15.265625 C 2.683594 15.28125 2.695312 15.292969 2.707031 15.304688 C 2.710938 15.3125 2.71875 15.316406 2.722656 15.324219 C 2.738281 15.339844 2.753906 15.355469 2.769531 15.371094 C 2.777344 15.378906 2.785156 15.382812 2.789062 15.390625 C 2.816406 15.417969 2.847656 15.449219 2.875 15.476562 L 5.414062 13.015625 C 5.386719 12.988281 5.359375 12.960938 5.332031 12.929688 Z M 5.332031 12.929688 "/>
<path style=" stroke:none;fill-rule:nonzero;fill:rgb(30.19608%,35.294119%,19.215687%);fill-opacity:1;" d="M 8.699219 13.171875 C 8.667969 13.195312 8.640625 13.214844 8.613281 13.238281 L 8.617188 13.246094 L 10.46875 16.222656 C 10.554688 16.167969 10.640625 16.113281 10.722656 16.054688 C 10.902344 15.925781 11.074219 15.789062 11.242188 15.640625 L 8.707031 13.183594 Z M 8.699219 13.171875 "/>
<path style=" stroke:none;fill-rule:nonzero;fill:rgb(57.647061%,83.529413%,0%);fill-opacity:1;" d="M 10.199219 16.25 L 10.136719 16.148438 L 8.410156 13.367188 C 8.375 13.390625 8.339844 13.40625 8.304688 13.425781 C 8.265625 13.445312 8.230469 13.460938 8.195312 13.480469 C 7.863281 13.632812 7.503906 13.710938 7.144531 13.710938 C 6.90625 13.710938 6.671875 13.675781 6.445312 13.609375 C 6.40625 13.601562 6.367188 13.585938 6.328125 13.570312 C 6.289062 13.558594 6.25 13.546875 6.214844 13.53125 L 4.941406 16.53125 L 4.890625 16.648438 L 4.847656 16.746094 L 4.847656 16.75 C 4.851562 16.75 4.851562 16.75 4.855469 16.753906 C 4.859375 16.753906 4.863281 16.753906 4.867188 16.757812 C 4.867188 16.757812 4.871094 16.757812 4.871094 16.757812 C 4.898438 16.769531 4.929688 16.777344 4.960938 16.789062 C 5 16.804688 5.035156 16.820312 5.074219 16.832031 C 5.09375 16.839844 5.113281 16.847656 5.132812 16.855469 C 5.53125 16.992188 5.945312 17.085938 6.363281 17.140625 C 6.382812 17.140625 6.398438 17.144531 6.414062 17.144531 C 6.429688 17.148438 6.449219 17.148438 6.464844 17.152344 C 6.496094 17.15625 6.53125 17.160156 6.5625 17.160156 L 6.585938 17.164062 C 6.625 17.167969 6.667969 17.171875 6.707031 17.171875 C 6.71875 17.175781 6.734375 17.175781 6.746094 17.175781 C 6.78125 17.179688 6.816406 17.179688 6.851562 17.183594 C 6.871094 17.183594 6.894531 17.183594 6.914062 17.183594 C 6.941406 17.183594 6.96875 17.1875 7 17.1875 C 7.039062 17.1875 7.078125 17.1875 7.117188 17.1875 C 7.128906 17.1875 7.136719 17.1875 7.148438 17.1875 C 7.480469 17.1875 7.816406 17.164062 8.148438 17.109375 C 8.15625 17.105469 8.160156 17.105469 8.167969 17.105469 C 8.199219 17.101562 8.234375 17.09375 8.269531 17.085938 C 8.292969 17.082031 8.3125 17.078125 8.332031 17.074219 C 8.351562 17.070312 8.371094 17.066406 8.394531 17.0625 C 8.425781 17.058594 8.460938 17.050781 8.496094 17.042969 C 8.5 17.039062 8.507812 17.039062 8.511719 17.039062 C 9.019531 16.925781 9.503906 16.746094 9.960938 16.515625 C 9.992188 16.5 10.023438 16.480469 10.050781 16.464844 C 10.085938 16.445312 10.121094 16.425781 10.15625 16.40625 C 10.183594 16.394531 10.207031 16.382812 10.230469 16.367188 C 10.234375 16.367188 10.234375 16.367188 10.234375 16.367188 L 10.230469 16.359375 L 10.234375 16.367188 C 10.238281 16.363281 10.238281 16.363281 10.238281 16.363281 C 10.246094 16.359375 10.253906 16.355469 10.261719 16.347656 Z M 5.597656 9.503906 C 5.625 9.480469 5.652344 9.460938 5.683594 9.441406 L 5.675781 9.429688 L 3.824219 6.453125 C 3.738281 6.507812 3.652344 6.5625 3.570312 6.621094 C 3.390625 6.75 3.21875 6.886719 3.050781 7.039062 L 5.585938 9.492188 Z M 5.597656 9.503906 "/>
<path style=" stroke:none;fill-rule:nonzero;fill:rgb(30.19608%,35.294119%,19.215687%);fill-opacity:1;" d="M 2.875 7.203125 C 2.847656 7.230469 2.820312 7.257812 2.789062 7.285156 C 2.761719 7.316406 2.734375 7.34375 2.707031 7.371094 C 2.523438 7.566406 2.351562 7.769531 2.195312 7.988281 C 2.1875 7.996094 2.179688 8.007812 2.171875 8.019531 C 2.152344 8.042969 2.136719 8.066406 2.121094 8.09375 C 2.101562 8.117188 2.085938 8.144531 2.066406 8.167969 C 2.0625 8.179688 2.054688 8.1875 2.050781 8.199219 C 1.464844 9.082031 1.152344 10.089844 1.109375 11.101562 C 1.109375 11.140625 1.109375 11.179688 1.109375 11.21875 C 1.105469 11.257812 1.105469 11.300781 1.105469 11.339844 L 4.695312 11.339844 C 4.695312 11.300781 4.699219 11.261719 4.703125 11.21875 C 4.703125 11.179688 4.707031 11.140625 4.710938 11.101562 C 4.757812 10.648438 4.9375 10.207031 5.25 9.835938 C 5.277344 9.804688 5.304688 9.777344 5.332031 9.75 C 5.359375 9.71875 5.386719 9.6875 5.414062 9.660156 Z M 10.285156 6.335938 C 10.28125 6.335938 10.273438 6.332031 10.269531 6.328125 C 10.238281 6.3125 10.207031 6.292969 10.175781 6.273438 C 10.15625 6.265625 10.136719 6.253906 10.121094 6.242188 C 10.101562 6.234375 10.082031 6.222656 10.0625 6.214844 C 10.03125 6.195312 10 6.179688 9.964844 6.164062 C 9.960938 6.160156 9.957031 6.15625 9.949219 6.15625 C 9.738281 6.046875 9.523438 5.953125 9.300781 5.871094 C 9.296875 5.871094 9.292969 5.867188 9.285156 5.867188 C 9.238281 5.847656 9.1875 5.832031 9.140625 5.816406 C 8.75 5.683594 8.34375 5.589844 7.929688 5.539062 L 7.878906 5.53125 C 7.863281 5.527344 7.847656 5.527344 7.828125 5.523438 C 7.796875 5.523438 7.765625 5.519531 7.730469 5.515625 C 7.722656 5.515625 7.714844 5.511719 7.703125 5.511719 C 7.667969 5.507812 7.628906 5.507812 7.589844 5.503906 L 7.542969 5.5 C 7.511719 5.5 7.476562 5.496094 7.445312 5.496094 C 7.425781 5.492188 7.40625 5.492188 7.390625 5.492188 L 7.390625 8.980469 C 7.574219 8.996094 7.757812 9.035156 7.9375 9.09375 L 10.585938 6.527344 C 10.488281 6.460938 10.386719 6.398438 10.285156 6.335938 Z M 10.285156 6.335938 "/>
<path style=" stroke:none;fill-rule:nonzero;fill:rgb(41.960785%,64.313728%,22.745098%);fill-opacity:1;" d="M 7.027344 5.488281 C 6.984375 5.492188 6.945312 5.492188 6.902344 5.492188 C 6.648438 5.503906 6.394531 5.527344 6.144531 5.566406 C 6.140625 5.570312 6.132812 5.570312 6.128906 5.570312 C 6.09375 5.578125 6.058594 5.582031 6.023438 5.589844 C 6.003906 5.59375 5.984375 5.597656 5.960938 5.601562 C 5.941406 5.605469 5.921875 5.609375 5.902344 5.613281 C 5.867188 5.621094 5.832031 5.628906 5.800781 5.636719 C 5.792969 5.636719 5.785156 5.636719 5.78125 5.640625 C 5.277344 5.753906 4.789062 5.929688 4.332031 6.160156 C 4.300781 6.175781 4.273438 6.195312 4.242188 6.210938 C 4.207031 6.230469 4.171875 6.25 4.136719 6.269531 C 4.109375 6.285156 4.082031 6.296875 4.058594 6.3125 C 4.058594 6.3125 4.054688 6.3125 4.054688 6.3125 C 4.054688 6.3125 4.050781 6.3125 4.050781 6.316406 C 4.042969 6.320312 4.035156 6.324219 4.03125 6.328125 L 4.09375 6.429688 L 5.882812 9.308594 C 5.917969 9.289062 5.953125 9.269531 5.992188 9.25 C 6.027344 9.230469 6.0625 9.214844 6.097656 9.195312 C 6.351562 9.082031 6.625 9.007812 6.902344 8.980469 C 6.945312 8.976562 6.984375 8.972656 7.023438 8.96875 C 7.066406 8.96875 7.105469 8.964844 7.148438 8.964844 L 7.148438 5.488281 C 7.105469 5.488281 7.066406 5.488281 7.027344 5.488281 Z M 7.027344 5.488281 "/>
<path style=" stroke:none;fill-rule:nonzero;fill:rgb(30.19608%,35.294119%,19.215687%);fill-opacity:1;" d="M 13.179688 11.050781 C 13.179688 11.019531 13.175781 10.988281 13.175781 10.957031 C 13.175781 10.941406 13.171875 10.925781 13.171875 10.910156 C 13.167969 10.875 13.167969 10.835938 13.164062 10.800781 C 13.160156 10.789062 13.160156 10.78125 13.160156 10.773438 C 13.15625 10.730469 13.152344 10.6875 13.144531 10.648438 C 13.144531 10.644531 13.144531 10.640625 13.144531 10.636719 L 13.144531 10.632812 C 13.140625 10.589844 13.132812 10.546875 13.125 10.5 L 13.125 10.496094 C 13.085938 10.21875 13.023438 9.945312 12.941406 9.675781 C 12.941406 9.671875 12.9375 9.671875 12.9375 9.667969 C 12.925781 9.628906 12.914062 9.585938 12.898438 9.542969 C 12.898438 9.539062 12.894531 9.53125 12.894531 9.527344 C 12.878906 9.488281 12.867188 9.453125 12.855469 9.414062 L 12.84375 9.382812 C 12.832031 9.351562 12.820312 9.320312 12.808594 9.289062 C 12.800781 9.273438 12.792969 9.257812 12.789062 9.242188 C 12.777344 9.214844 12.765625 9.1875 12.757812 9.160156 C 12.746094 9.140625 12.738281 9.121094 12.730469 9.097656 C 12.722656 9.078125 12.710938 9.058594 12.703125 9.035156 C 12.691406 9.011719 12.679688 8.984375 12.667969 8.957031 C 12.660156 8.941406 12.652344 8.925781 12.644531 8.914062 C 12.632812 8.882812 12.617188 8.851562 12.601562 8.820312 C 12.597656 8.808594 12.589844 8.800781 12.585938 8.789062 C 12.570312 8.753906 12.550781 8.71875 12.53125 8.683594 C 12.53125 8.679688 12.527344 8.671875 12.523438 8.667969 C 12.503906 8.628906 12.480469 8.589844 12.460938 8.550781 C 12.460938 8.550781 12.460938 8.550781 12.457031 8.546875 C 12.355469 8.363281 12.238281 8.179688 12.113281 8.007812 L 9.464844 10.574219 C 9.523438 10.746094 9.5625 10.925781 9.582031 11.101562 L 13.183594 11.101562 C 13.183594 11.085938 13.183594 11.066406 13.179688 11.050781 Z M 13.179688 11.050781 "/>
<path style=" stroke:none;fill-rule:nonzero;fill:rgb(41.960785%,64.313728%,22.745098%);fill-opacity:1;" d="M 9.597656 11.339844 C 9.597656 11.378906 9.59375 11.417969 9.589844 11.457031 C 9.589844 11.496094 9.589844 11.535156 9.585938 11.574219 C 9.539062 12.027344 9.359375 12.46875 9.042969 12.839844 C 9.015625 12.871094 8.988281 12.898438 8.960938 12.929688 C 8.933594 12.957031 8.910156 12.988281 8.878906 13.015625 L 11.417969 15.476562 C 11.449219 15.449219 11.476562 15.417969 11.503906 15.390625 C 11.53125 15.363281 11.558594 15.332031 11.585938 15.304688 C 11.773438 15.109375 11.945312 14.902344 12.101562 14.6875 C 12.109375 14.679688 12.113281 14.671875 12.121094 14.660156 C 12.136719 14.636719 12.15625 14.609375 12.175781 14.582031 C 12.191406 14.558594 12.207031 14.535156 12.222656 14.511719 C 12.230469 14.5 12.238281 14.488281 12.246094 14.476562 C 12.828125 13.589844 13.140625 12.585938 13.183594 11.574219 C 13.183594 11.535156 13.183594 11.496094 13.1875 11.457031 C 13.1875 11.417969 13.1875 11.378906 13.1875 11.339844 Z M 9.597656 11.339844 "/>
<path style=" stroke:none;fill-rule:nonzero;fill:rgb(25.882354%,25.490198%,26.274511%);fill-opacity:1;" d="M 14.253906 4.453125 C 13.597656 3.816406 12.53125 3.816406 11.875 4.453125 C 11.351562 4.960938 11.246094 5.71875 11.558594 6.328125 L 7.894531 9.878906 C 7.265625 9.578125 6.480469 9.679688 5.957031 10.1875 C 5.300781 10.824219 5.300781 11.855469 5.957031 12.492188 C 6.613281 13.125 7.679688 13.125 8.335938 12.492188 C 8.859375 11.984375 8.964844 11.222656 8.652344 10.613281 L 12.316406 7.066406 C 12.949219 7.367188 13.730469 7.265625 14.253906 6.757812 C 14.910156 6.121094 14.910156 5.089844 14.253906 4.453125 Z M 14.253906 4.453125 "/>
</g>
</svg>
