<?xml version="1.0" encoding="UTF-8"?>
<svg xmlns="http://www.w3.org/2000/svg" xmlns:xlink="http://www.w3.org/1999/xlink" width="22" height="22" viewBox="0 0 22 22">
<path fill-rule="nonzero" fill="rgb(57.647059%, 83.529412%, 0%)" fill-opacity="1" d="M 5.183594 13.402344 L 1.21875 13.402344 C 1.222656 13.421875 1.222656 13.441406 1.222656 13.460938 C 1.222656 13.496094 1.230469 13.539062 1.230469 13.574219 C 1.234375 13.59375 1.234375 13.605469 1.234375 13.625 C 1.234375 13.667969 1.238281 13.710938 1.242188 13.753906 C 1.242188 13.765625 1.242188 13.769531 1.242188 13.785156 C 1.253906 13.832031 1.257812 13.882812 1.265625 13.933594 C 1.265625 13.9375 1.265625 13.9375 1.265625 13.941406 C 1.273438 13.996094 1.277344 14.046875 1.285156 14.097656 C 1.285156 14.097656 1.285156 14.105469 1.285156 14.105469 C 1.335938 14.421875 1.402344 14.746094 1.492188 15.054688 C 1.507812 15.109375 1.519531 15.15625 1.535156 15.207031 C 1.539062 15.210938 1.539062 15.210938 1.539062 15.214844 C 1.539062 15.222656 1.539062 15.222656 1.542969 15.222656 C 1.554688 15.269531 1.566406 15.3125 1.582031 15.355469 C 1.585938 15.371094 1.585938 15.378906 1.597656 15.386719 C 1.609375 15.429688 1.621094 15.464844 1.636719 15.503906 C 1.644531 15.523438 1.648438 15.539062 1.652344 15.554688 C 1.664062 15.585938 1.683594 15.621094 1.691406 15.652344 C 1.703125 15.671875 1.710938 15.695312 1.71875 15.722656 C 1.730469 15.742188 1.738281 15.765625 1.75 15.796875 C 1.757812 15.828125 1.773438 15.851562 1.789062 15.886719 C 1.792969 15.902344 1.804688 15.917969 1.816406 15.9375 C 1.828125 15.972656 1.839844 16.011719 1.859375 16.042969 C 1.871094 16.058594 1.875 16.070312 1.878906 16.082031 C 1.898438 16.121094 1.917969 16.160156 1.941406 16.203125 C 1.945312 16.207031 1.945312 16.214844 1.945312 16.222656 C 1.964844 16.261719 1.992188 16.3125 2.011719 16.355469 C 2.023438 16.355469 2.023438 16.359375 2.023438 16.359375 C 2.027344 16.367188 2.03125 16.378906 2.035156 16.386719 L 5.417969 14.3125 L 5.429688 14.300781 C 5.296875 14.019531 5.210938 13.710938 5.183594 13.402344 Z M 5.183594 13.402344 "/>
<path fill-rule="nonzero" fill="rgb(30.196078%, 35.294118%, 19.215686%)" fill-opacity="1" d="M 6.15625 15.257812 L 6.148438 15.265625 L 3.355469 18.113281 C 3.367188 18.121094 3.382812 18.136719 3.402344 18.148438 C 3.425781 18.171875 3.449219 18.199219 3.476562 18.21875 C 3.492188 18.234375 3.507812 18.246094 3.519531 18.253906 C 3.546875 18.289062 3.582031 18.316406 3.613281 18.339844 C 3.621094 18.34375 3.628906 18.355469 3.640625 18.359375 C 3.683594 18.394531 3.71875 18.425781 3.765625 18.464844 C 3.800781 18.492188 3.84375 18.527344 3.882812 18.550781 C 3.882812 18.558594 3.882812 18.558594 3.886719 18.558594 C 4.054688 18.6875 4.226562 18.808594 4.40625 18.921875 C 4.414062 18.921875 4.417969 18.921875 4.429688 18.925781 C 4.460938 18.953125 4.496094 18.972656 4.53125 18.992188 L 4.589844 19.027344 C 4.613281 19.042969 4.632812 19.050781 4.652344 19.0625 C 4.691406 19.082031 4.726562 19.105469 4.757812 19.125 C 4.773438 19.125 4.777344 19.128906 4.78125 19.132812 C 4.882812 19.183594 4.980469 19.234375 5.085938 19.28125 L 5.1875 19.039062 L 6.585938 15.566406 L 6.59375 15.554688 C 6.441406 15.46875 6.292969 15.371094 6.15625 15.257812 Z M 6.15625 15.257812 "/>
<path fill-rule="nonzero" fill="rgb(41.960784%, 64.313725%, 22.745098%)" fill-opacity="1" d="M 5.863281 14.96875 C 5.835938 14.9375 5.808594 14.902344 5.777344 14.867188 C 5.753906 14.835938 5.726562 14.800781 5.703125 14.769531 C 5.679688 14.734375 5.65625 14.699219 5.632812 14.660156 C 5.601562 14.625 5.574219 14.582031 5.554688 14.542969 L 2.167969 16.625 C 2.222656 16.710938 2.273438 16.796875 2.332031 16.882812 C 2.332031 16.882812 2.332031 16.890625 2.335938 16.894531 C 2.339844 16.898438 2.339844 16.902344 2.339844 16.902344 C 2.34375 16.902344 2.34375 16.902344 2.34375 16.910156 C 2.351562 16.914062 2.351562 16.917969 2.355469 16.925781 C 2.417969 17.015625 2.480469 17.101562 2.542969 17.1875 C 2.546875 17.1875 2.546875 17.191406 2.546875 17.191406 C 2.546875 17.199219 2.546875 17.199219 2.546875 17.199219 C 2.578125 17.234375 2.605469 17.273438 2.632812 17.308594 C 2.632812 17.3125 2.640625 17.320312 2.644531 17.324219 C 2.675781 17.359375 2.695312 17.394531 2.730469 17.433594 C 2.738281 17.441406 2.746094 17.449219 2.75 17.457031 C 2.777344 17.492188 2.804688 17.519531 2.832031 17.550781 C 2.847656 17.570312 2.855469 17.585938 2.867188 17.601562 C 2.890625 17.628906 2.914062 17.652344 2.9375 17.675781 C 2.953125 17.691406 2.960938 17.707031 2.976562 17.71875 C 2.984375 17.730469 2.992188 17.734375 2.996094 17.742188 C 3.011719 17.761719 3.027344 17.777344 3.042969 17.800781 C 3.058594 17.804688 3.0625 17.808594 3.066406 17.820312 C 3.097656 17.855469 3.128906 17.890625 3.164062 17.921875 L 5.953125 15.070312 C 5.925781 15.039062 5.898438 15.007812 5.863281 14.96875 Z M 5.863281 14.96875 "/>
<path fill-rule="nonzero" fill="rgb(30.196078%, 35.294118%, 19.215686%)" fill-opacity="1" d="M 9.570312 15.25 C 9.535156 15.28125 9.507812 15.300781 9.472656 15.328125 L 9.480469 15.335938 L 11.515625 18.785156 C 11.613281 18.71875 11.703125 18.660156 11.792969 18.589844 C 11.996094 18.441406 12.183594 18.285156 12.367188 18.113281 L 9.574219 15.265625 Z M 9.570312 15.25 "/>
<path fill-rule="nonzero" fill="rgb(57.647059%, 83.529412%, 0%)" fill-opacity="1" d="M 11.222656 18.816406 L 11.152344 18.699219 L 9.25 15.480469 C 9.210938 15.503906 9.175781 15.523438 9.136719 15.542969 C 9.09375 15.566406 9.054688 15.585938 9.011719 15.609375 C 8.648438 15.785156 8.253906 15.878906 7.855469 15.878906 C 7.59375 15.878906 7.335938 15.832031 7.085938 15.757812 C 7.046875 15.746094 7.007812 15.730469 6.960938 15.714844 C 6.914062 15.699219 6.875 15.6875 6.839844 15.667969 L 5.433594 19.144531 L 5.382812 19.277344 L 5.332031 19.390625 L 5.332031 19.394531 C 5.335938 19.394531 5.335938 19.394531 5.339844 19.402344 C 5.34375 19.402344 5.347656 19.402344 5.355469 19.40625 C 5.355469 19.40625 5.359375 19.40625 5.359375 19.40625 C 5.390625 19.417969 5.425781 19.425781 5.460938 19.4375 C 5.5 19.457031 5.535156 19.476562 5.582031 19.492188 C 5.601562 19.496094 5.621094 19.507812 5.644531 19.519531 C 6.085938 19.675781 6.539062 19.78125 6.996094 19.847656 C 7.019531 19.847656 7.039062 19.851562 7.054688 19.851562 C 7.074219 19.855469 7.097656 19.855469 7.113281 19.863281 C 7.144531 19.863281 7.1875 19.867188 7.21875 19.867188 L 7.246094 19.871094 C 7.289062 19.878906 7.335938 19.882812 7.378906 19.882812 C 7.390625 19.886719 7.40625 19.886719 7.421875 19.886719 C 7.460938 19.890625 7.496094 19.890625 7.535156 19.898438 C 7.558594 19.898438 7.582031 19.898438 7.601562 19.898438 C 7.636719 19.898438 7.664062 19.902344 7.703125 19.902344 C 7.742188 19.902344 7.789062 19.902344 7.832031 19.902344 C 7.839844 19.902344 7.851562 19.902344 7.867188 19.902344 C 8.230469 19.902344 8.597656 19.871094 8.964844 19.8125 C 8.96875 19.804688 8.972656 19.804688 8.988281 19.804688 C 9.019531 19.800781 9.054688 19.792969 9.097656 19.78125 C 9.121094 19.78125 9.140625 19.777344 9.164062 19.769531 C 9.183594 19.765625 9.207031 19.761719 9.230469 19.753906 C 9.269531 19.75 9.308594 19.746094 9.347656 19.734375 C 9.351562 19.730469 9.355469 19.730469 9.363281 19.730469 C 9.917969 19.597656 10.453125 19.390625 10.960938 19.125 C 10.992188 19.105469 11.027344 19.082031 11.054688 19.0625 C 11.097656 19.042969 11.136719 19.019531 11.171875 18.996094 C 11.203125 18.980469 11.226562 18.972656 11.253906 18.953125 C 11.257812 18.953125 11.257812 18.953125 11.257812 18.953125 L 11.253906 18.941406 L 11.257812 18.953125 C 11.261719 18.945312 11.261719 18.945312 11.261719 18.945312 C 11.269531 18.941406 11.277344 18.9375 11.289062 18.925781 Z M 6.15625 11.003906 C 6.1875 10.980469 6.21875 10.953125 6.253906 10.929688 L 6.242188 10.917969 L 4.207031 7.472656 C 4.113281 7.535156 4.019531 7.597656 3.925781 7.664062 C 3.726562 7.816406 3.539062 7.976562 3.355469 8.152344 L 6.148438 10.988281 Z M 6.15625 11.003906 "/>
<path fill-rule="nonzero" fill="rgb(30.196078%, 35.294118%, 19.215686%)" fill-opacity="1" d="M 3.164062 8.339844 C 3.128906 8.371094 3.101562 8.40625 3.066406 8.4375 C 3.039062 8.472656 3.007812 8.503906 2.976562 8.535156 C 2.777344 8.761719 2.585938 8.996094 2.414062 9.25 C 2.40625 9.261719 2.398438 9.269531 2.390625 9.285156 C 2.371094 9.3125 2.351562 9.339844 2.332031 9.371094 C 2.308594 9.398438 2.296875 9.433594 2.269531 9.457031 C 2.265625 9.46875 2.261719 9.480469 2.253906 9.492188 C 1.613281 10.515625 1.269531 11.683594 1.21875 12.855469 C 1.21875 12.902344 1.21875 12.945312 1.21875 12.988281 C 1.214844 13.035156 1.214844 13.082031 1.214844 13.132812 L 5.164062 13.132812 C 5.164062 13.082031 5.167969 13.042969 5.171875 12.988281 C 5.171875 12.945312 5.175781 12.902344 5.183594 12.855469 C 5.230469 12.328125 5.429688 11.820312 5.773438 11.390625 C 5.808594 11.355469 5.835938 11.324219 5.863281 11.289062 C 5.898438 11.253906 5.925781 11.21875 5.953125 11.1875 Z M 11.3125 7.335938 C 11.3125 7.335938 11.304688 7.332031 11.292969 7.324219 C 11.261719 7.308594 11.226562 7.289062 11.191406 7.265625 C 11.171875 7.253906 11.152344 7.238281 11.136719 7.230469 C 11.109375 7.21875 11.089844 7.203125 11.070312 7.199219 C 11.03125 7.171875 11 7.152344 10.964844 7.136719 C 10.960938 7.132812 10.949219 7.128906 10.945312 7.128906 C 10.710938 7 10.476562 6.890625 10.230469 6.800781 C 10.226562 6.800781 10.222656 6.792969 10.214844 6.792969 C 10.160156 6.773438 10.109375 6.753906 10.054688 6.734375 C 9.625 6.582031 9.179688 6.472656 8.726562 6.414062 L 8.667969 6.40625 C 8.648438 6.398438 8.628906 6.398438 8.609375 6.394531 C 8.578125 6.394531 8.539062 6.390625 8.503906 6.386719 C 8.496094 6.386719 8.488281 6.378906 8.476562 6.378906 C 8.433594 6.375 8.390625 6.375 8.347656 6.375 L 8.300781 6.371094 C 8.261719 6.371094 8.222656 6.363281 8.1875 6.363281 C 8.167969 6.359375 8.148438 6.359375 8.132812 6.359375 L 8.132812 10.398438 C 8.332031 10.414062 8.53125 10.464844 8.734375 10.53125 L 11.648438 7.558594 C 11.535156 7.480469 11.425781 7.40625 11.3125 7.335938 Z M 11.3125 7.335938 "/>
<path fill-rule="nonzero" fill="rgb(41.960784%, 64.313725%, 22.745098%)" fill-opacity="1" d="M 7.730469 6.355469 C 7.679688 6.359375 7.636719 6.359375 7.59375 6.359375 C 7.316406 6.375 7.035156 6.398438 6.757812 6.445312 C 6.757812 6.449219 6.742188 6.449219 6.738281 6.449219 C 6.703125 6.457031 6.667969 6.460938 6.628906 6.472656 C 6.605469 6.476562 6.585938 6.480469 6.558594 6.484375 C 6.535156 6.492188 6.515625 6.496094 6.496094 6.5 C 6.457031 6.511719 6.414062 6.515625 6.378906 6.527344 C 6.371094 6.527344 6.363281 6.527344 6.359375 6.53125 C 5.808594 6.664062 5.265625 6.863281 4.761719 7.132812 C 4.730469 7.148438 4.703125 7.171875 4.667969 7.191406 C 4.628906 7.214844 4.585938 7.234375 4.550781 7.257812 C 4.523438 7.277344 4.488281 7.292969 4.464844 7.308594 C 4.464844 7.308594 4.460938 7.308594 4.460938 7.308594 C 4.460938 7.308594 4.457031 7.308594 4.457031 7.316406 C 4.449219 7.316406 4.4375 7.320312 4.4375 7.324219 L 4.5 7.445312 L 6.46875 10.777344 C 6.511719 10.753906 6.546875 10.730469 6.59375 10.710938 C 6.628906 10.6875 6.671875 10.671875 6.707031 10.644531 C 6.984375 10.515625 7.289062 10.429688 7.59375 10.398438 C 7.636719 10.394531 7.679688 10.386719 7.726562 10.386719 C 7.769531 10.386719 7.816406 10.382812 7.867188 10.382812 L 7.867188 6.355469 C 7.816406 6.355469 7.769531 6.355469 7.730469 6.355469 Z M 7.730469 6.355469 "/>
<path fill-rule="nonzero" fill="rgb(30.196078%, 35.294118%, 19.215686%)" fill-opacity="1" d="M 14.5 12.792969 C 14.5 12.757812 14.492188 12.722656 14.492188 12.6875 C 14.492188 12.667969 14.492188 12.648438 14.492188 12.632812 C 14.488281 12.59375 14.488281 12.546875 14.476562 12.507812 C 14.472656 12.492188 14.472656 12.480469 14.472656 12.472656 C 14.46875 12.425781 14.46875 12.375 14.457031 12.328125 C 14.457031 12.324219 14.457031 12.320312 14.457031 12.316406 L 14.457031 12.308594 C 14.453125 12.261719 14.445312 12.214844 14.4375 12.15625 L 14.4375 12.152344 C 14.398438 11.832031 14.328125 11.515625 14.234375 11.203125 C 14.234375 11.199219 14.234375 11.199219 14.234375 11.191406 C 14.214844 11.152344 14.203125 11.097656 14.191406 11.050781 C 14.191406 11.046875 14.183594 11.035156 14.183594 11.03125 C 14.167969 10.984375 14.15625 10.945312 14.144531 10.902344 L 14.125 10.863281 C 14.113281 10.828125 14.101562 10.792969 14.089844 10.753906 C 14.082031 10.738281 14.074219 10.722656 14.066406 10.703125 C 14.058594 10.671875 14.039062 10.640625 14.03125 10.605469 C 14.019531 10.582031 14.011719 10.558594 14.003906 10.535156 C 13.996094 10.511719 13.984375 10.488281 13.976562 10.464844 C 13.957031 10.433594 13.949219 10.402344 13.933594 10.371094 C 13.925781 10.351562 13.917969 10.332031 13.910156 10.324219 C 13.894531 10.285156 13.882812 10.246094 13.859375 10.214844 C 13.855469 10.199219 13.847656 10.191406 13.847656 10.175781 C 13.824219 10.136719 13.804688 10.09375 13.78125 10.054688 C 13.78125 10.050781 13.78125 10.042969 13.777344 10.039062 C 13.753906 9.988281 13.730469 9.949219 13.710938 9.898438 C 13.710938 9.898438 13.710938 9.898438 13.699219 9.894531 C 13.589844 9.683594 13.460938 9.46875 13.324219 9.269531 L 10.410156 12.242188 C 10.476562 12.445312 10.515625 12.648438 10.539062 12.855469 L 14.503906 12.855469 C 14.503906 12.835938 14.503906 12.816406 14.5 12.792969 Z M 14.5 12.792969 "/>
<path fill-rule="nonzero" fill="rgb(41.960784%, 64.313725%, 22.745098%)" fill-opacity="1" d="M 10.558594 13.132812 C 10.558594 13.175781 10.554688 13.21875 10.550781 13.265625 C 10.550781 13.308594 10.550781 13.355469 10.546875 13.402344 C 10.492188 13.925781 10.296875 14.4375 9.949219 14.867188 C 9.914062 14.902344 9.886719 14.9375 9.859375 14.96875 C 9.828125 15.003906 9.800781 15.039062 9.765625 15.070312 L 12.558594 17.921875 C 12.597656 17.890625 12.621094 17.855469 12.652344 17.820312 C 12.6875 17.789062 12.714844 17.753906 12.746094 17.71875 C 12.953125 17.496094 13.136719 17.257812 13.308594 17.003906 C 13.320312 17 13.324219 16.988281 13.332031 16.976562 C 13.351562 16.945312 13.375 16.917969 13.394531 16.882812 C 13.410156 16.859375 13.425781 16.828125 13.441406 16.804688 C 13.457031 16.789062 13.460938 16.773438 13.472656 16.761719 C 14.109375 15.738281 14.453125 14.574219 14.503906 13.402344 C 14.503906 13.355469 14.503906 13.308594 14.507812 13.265625 C 14.507812 13.21875 14.507812 13.175781 14.507812 13.132812 Z M 10.558594 13.132812 "/>
<path fill-rule="nonzero" fill="rgb(25.882353%, 25.490196%, 26.27451%)" fill-opacity="1" d="M 15.675781 5.15625 C 14.957031 4.417969 13.78125 4.417969 13.0625 5.15625 C 12.484375 5.746094 12.371094 6.621094 12.714844 7.324219 L 8.683594 11.441406 C 7.992188 11.089844 7.128906 11.207031 6.550781 11.792969 C 5.832031 12.53125 5.832031 13.730469 6.550781 14.464844 C 7.273438 15.199219 8.449219 15.199219 9.171875 14.464844 C 9.742188 13.875 9.863281 12.992188 9.519531 12.289062 L 13.546875 8.179688 C 14.246094 8.527344 15.105469 8.410156 15.675781 7.824219 C 16.402344 7.085938 16.402344 5.894531 15.675781 5.15625 Z M 15.675781 5.15625 "/>
</svg>
