<?xml version="1.0" encoding="UTF-8"?>
<svg xmlns="http://www.w3.org/2000/svg" xmlns:xlink="http://www.w3.org/1999/xlink" width="22" height="22" viewBox="0 0 22 22">
<path fill-rule="nonzero" fill="rgb(56.862745%, 83.137255%, 0%)" fill-opacity="1" d="M 6.09375 12.585938 L 0.550781 12.585938 L 0.554688 12.664062 C 0.554688 12.71875 0.558594 12.769531 0.5625 12.820312 C 0.5625 12.84375 0.566406 12.863281 0.566406 12.886719 C 0.578125 13.027344 0.589844 13.167969 0.605469 13.304688 C 0.605469 13.3125 0.609375 13.316406 0.609375 13.324219 C 0.617188 13.394531 0.625 13.46875 0.636719 13.539062 C 0.703125 13.980469 0.796875 14.417969 0.925781 14.84375 C 0.925781 14.847656 0.925781 14.847656 0.925781 14.847656 C 0.945312 14.921875 0.96875 14.992188 0.992188 15.0625 C 0.992188 15.066406 0.996094 15.070312 0.996094 15.074219 C 1.015625 15.132812 1.035156 15.195312 1.058594 15.253906 C 1.0625 15.269531 1.066406 15.285156 1.074219 15.300781 C 1.09375 15.351562 1.109375 15.402344 1.128906 15.457031 C 1.140625 15.480469 1.148438 15.503906 1.15625 15.527344 C 1.175781 15.570312 1.191406 15.613281 1.207031 15.65625 C 1.21875 15.6875 1.234375 15.71875 1.246094 15.753906 C 1.261719 15.785156 1.277344 15.820312 1.289062 15.855469 C 1.308594 15.894531 1.328125 15.933594 1.34375 15.976562 C 1.355469 16 1.367188 16.027344 1.375 16.050781 C 1.398438 16.097656 1.421875 16.148438 1.445312 16.195312 L 1.46875 16.242188 C 1.496094 16.300781 1.523438 16.355469 1.550781 16.410156 C 1.558594 16.417969 1.5625 16.425781 1.566406 16.433594 C 1.597656 16.5 1.632812 16.5625 1.667969 16.628906 C 1.671875 16.640625 1.679688 16.652344 1.6875 16.664062 L 6.421875 13.828125 L 6.4375 13.816406 C 6.253906 13.429688 6.136719 13.011719 6.09375 12.585938 Z M 6.09375 12.585938 "/>
<path fill-rule="nonzero" fill="rgb(56.862745%, 83.137255%, 0%)" fill-opacity="1" d="M 0.992188 15.0625 L 0.8125 15.113281 L 0.8125 15.117188 Z M 0.992188 15.0625 "/>
<path fill-rule="nonzero" fill="rgb(29.803922%, 34.901961%, 18.823529%)" fill-opacity="1" d="M 7.453125 15.117188 L 7.441406 15.128906 L 3.539062 19.015625 C 3.558594 19.035156 3.578125 19.050781 3.597656 19.070312 C 3.632812 19.105469 3.671875 19.136719 3.707031 19.167969 C 3.726562 19.183594 3.746094 19.203125 3.765625 19.21875 C 3.808594 19.257812 3.855469 19.292969 3.898438 19.332031 C 3.910156 19.339844 3.921875 19.351562 3.933594 19.359375 C 3.992188 19.40625 4.046875 19.453125 4.105469 19.5 C 4.164062 19.542969 4.21875 19.582031 4.273438 19.625 C 4.277344 19.628906 4.277344 19.628906 4.28125 19.632812 C 4.515625 19.804688 4.757812 19.96875 5.011719 20.121094 C 5.019531 20.128906 5.027344 20.132812 5.039062 20.140625 L 5.179688 20.222656 C 5.210938 20.238281 5.242188 20.257812 5.269531 20.273438 C 5.296875 20.289062 5.324219 20.304688 5.351562 20.320312 C 5.402344 20.347656 5.453125 20.375 5.503906 20.402344 C 5.65625 20.480469 5.804688 20.550781 5.957031 20.621094 L 6.097656 20.285156 L 8.0625 15.539062 L 8.066406 15.523438 C 7.851562 15.40625 7.644531 15.273438 7.453125 15.117188 Z M 7.453125 15.117188 "/>
<path fill-rule="nonzero" fill="rgb(40.784314%, 63.921569%, 21.960784%)" fill-opacity="1" d="M 7.046875 14.730469 C 6.96875 14.640625 6.894531 14.550781 6.824219 14.457031 C 6.789062 14.40625 6.75 14.355469 6.71875 14.304688 C 6.683594 14.25 6.648438 14.199219 6.617188 14.144531 L 1.875 16.988281 C 1.949219 17.109375 2.023438 17.226562 2.101562 17.339844 C 2.105469 17.34375 2.105469 17.351562 2.109375 17.355469 L 2.113281 17.359375 C 2.113281 17.363281 2.117188 17.363281 2.121094 17.371094 C 2.128906 17.378906 2.132812 17.386719 2.140625 17.398438 L 2.140625 17.402344 C 2.226562 17.523438 2.3125 17.644531 2.402344 17.765625 C 2.402344 17.769531 2.40625 17.769531 2.40625 17.773438 C 2.445312 17.820312 2.484375 17.871094 2.523438 17.921875 C 2.527344 17.929688 2.53125 17.933594 2.539062 17.941406 C 2.578125 17.992188 2.617188 18.042969 2.660156 18.09375 C 2.671875 18.105469 2.679688 18.117188 2.691406 18.128906 C 2.726562 18.171875 2.765625 18.21875 2.804688 18.261719 C 2.820312 18.28125 2.835938 18.296875 2.851562 18.316406 C 2.886719 18.355469 2.917969 18.390625 2.953125 18.425781 C 2.96875 18.449219 2.988281 18.46875 3.007812 18.488281 C 3.015625 18.496094 3.023438 18.507812 3.03125 18.515625 L 3.105469 18.59375 L 3.136719 18.625 C 3.179688 18.667969 3.222656 18.714844 3.265625 18.757812 L 7.175781 14.867188 C 7.132812 14.820312 7.089844 14.777344 7.046875 14.730469 Z M 7.046875 14.730469 "/>
<path fill-rule="nonzero" fill="rgb(29.803922%, 34.901961%, 18.823529%)" fill-opacity="1" d="M 12.230469 15.113281 C 12.1875 15.148438 12.144531 15.183594 12.101562 15.214844 L 12.109375 15.230469 L 14.960938 19.941406 C 15.09375 19.855469 15.222656 19.765625 15.351562 19.671875 C 15.628906 19.46875 15.894531 19.25 16.148438 19.015625 L 12.246094 15.128906 Z M 12.230469 15.113281 "/>
<path fill-rule="nonzero" fill="rgb(56.862745%, 83.137255%, 0%)" fill-opacity="1" d="M 14.601562 20.164062 L 14.605469 20.160156 Z M 14.605469 20.160156 C 14.617188 20.15625 14.632812 20.148438 14.644531 20.140625 C 14.628906 20.148438 14.617188 20.15625 14.605469 20.160156 Z M 14.601562 20.164062 L 14.597656 20.164062 Z M 14.589844 20.15625 L 14.597656 20.167969 Z M 14.601562 20.164062 L 14.605469 20.160156 Z M 14.597656 20.167969 Z M 14.597656 20.164062 L 14.597656 20.167969 C 14.597656 20.164062 14.597656 20.164062 14.601562 20.164062 C 14.597656 20.164062 14.597656 20.164062 14.597656 20.164062 Z M 14.597656 20.164062 "/>
<path fill-rule="nonzero" fill="rgb(56.862745%, 83.137255%, 0%)" fill-opacity="1" d="M 14.605469 20.160156 C 14.617188 20.15625 14.632812 20.148438 14.644531 20.140625 C 14.632812 20.148438 14.617188 20.15625 14.605469 20.160156 Z M 14.644531 20.140625 Z M 14.59375 20.167969 Z M 14.546875 19.980469 L 14.449219 19.820312 L 11.789062 15.421875 C 11.734375 15.457031 11.679688 15.484375 11.625 15.515625 C 11.570312 15.542969 11.511719 15.570312 11.457031 15.597656 C 10.949219 15.839844 10.398438 15.960938 9.839844 15.964844 C 9.476562 15.964844 9.113281 15.910156 8.761719 15.808594 C 8.703125 15.789062 8.644531 15.765625 8.585938 15.746094 C 8.523438 15.722656 8.464844 15.707031 8.40625 15.683594 L 6.445312 20.425781 L 6.367188 20.609375 L 6.300781 20.769531 L 6.316406 20.777344 C 6.324219 20.78125 6.328125 20.78125 6.332031 20.78125 L 6.335938 20.78125 C 6.335938 20.78125 6.335938 20.785156 6.335938 20.785156 C 6.382812 20.804688 6.429688 20.820312 6.476562 20.835938 C 6.535156 20.859375 6.59375 20.882812 6.652344 20.90625 C 6.683594 20.914062 6.710938 20.929688 6.742188 20.9375 C 7.355469 21.152344 7.992188 21.304688 8.640625 21.390625 C 8.664062 21.394531 8.691406 21.398438 8.714844 21.402344 L 8.792969 21.410156 C 8.84375 21.414062 8.894531 21.421875 8.945312 21.425781 L 8.980469 21.429688 C 9.042969 21.433594 9.105469 21.4375 9.164062 21.445312 C 9.183594 21.445312 9.207031 21.445312 9.226562 21.449219 C 9.28125 21.453125 9.335938 21.453125 9.386719 21.457031 C 9.421875 21.457031 9.453125 21.460938 9.488281 21.460938 C 9.527344 21.460938 9.570312 21.464844 9.613281 21.464844 C 9.675781 21.46875 9.738281 21.46875 9.800781 21.46875 L 9.84375 21.46875 C 10.359375 21.46875 10.875 21.425781 11.386719 21.339844 L 11.414062 21.335938 C 11.464844 21.328125 11.519531 21.316406 11.574219 21.308594 C 11.605469 21.300781 11.636719 21.296875 11.667969 21.289062 C 11.699219 21.285156 11.730469 21.277344 11.761719 21.269531 C 11.8125 21.257812 11.867188 21.246094 11.917969 21.234375 L 11.949219 21.230469 C 12.722656 21.046875 13.472656 20.769531 14.179688 20.398438 C 14.226562 20.375 14.269531 20.347656 14.316406 20.324219 C 14.371094 20.292969 14.425781 20.261719 14.480469 20.230469 C 14.515625 20.210938 14.554688 20.191406 14.59375 20.167969 C 14.597656 20.167969 14.597656 20.167969 14.597656 20.164062 L 14.589844 20.152344 L 14.597656 20.164062 C 14.601562 20.164062 14.601562 20.160156 14.605469 20.160156 C 14.617188 20.152344 14.628906 20.148438 14.640625 20.136719 Z M 7.457031 9.308594 C 7.5 9.273438 7.542969 9.238281 7.585938 9.207031 L 7.578125 9.191406 L 4.726562 4.480469 C 4.59375 4.566406 4.464844 4.65625 4.335938 4.75 C 4.058594 4.953125 3.792969 5.171875 3.539062 5.40625 L 7.441406 9.292969 Z M 7.457031 9.308594 "/>
<path fill-rule="nonzero" fill="rgb(29.803922%, 34.901961%, 18.823529%)" fill-opacity="1" d="M 3.265625 5.664062 C 3.222656 5.710938 3.179688 5.753906 3.136719 5.800781 C 3.09375 5.84375 3.050781 5.886719 3.007812 5.933594 C 2.707031 6.253906 2.433594 6.597656 2.183594 6.957031 C 2.15625 6.996094 2.128906 7.035156 2.105469 7.074219 C 2.078125 7.113281 2.050781 7.15625 2.023438 7.195312 C 2.011719 7.210938 2.003906 7.226562 1.992188 7.242188 C 1.113281 8.617188 0.613281 10.203125 0.550781 11.835938 C 0.546875 11.898438 0.546875 11.960938 0.546875 12.023438 C 0.542969 12.085938 0.542969 12.148438 0.542969 12.210938 L 6.070312 12.210938 C 6.070312 12.148438 6.078125 12.085938 6.082031 12.023438 C 6.082031 11.960938 6.085938 11.898438 6.089844 11.835938 C 6.164062 11.101562 6.453125 10.402344 6.925781 9.832031 C 6.964844 9.785156 7.007812 9.742188 7.050781 9.695312 C 7.09375 9.648438 7.132812 9.601562 7.175781 9.554688 Z M 14.675781 4.296875 C 14.621094 4.265625 14.5625 4.230469 14.507812 4.199219 C 14.476562 4.183594 14.449219 4.164062 14.417969 4.148438 C 14.390625 4.132812 14.363281 4.117188 14.332031 4.101562 C 14.285156 4.074219 14.234375 4.046875 14.183594 4.019531 C 14.175781 4.015625 14.167969 4.011719 14.160156 4.007812 C 13.835938 3.839844 13.503906 3.691406 13.164062 3.5625 C 13.15625 3.558594 13.144531 3.554688 13.136719 3.554688 C 12.460938 3.300781 11.761719 3.125 11.050781 3.03125 C 11.023438 3.027344 11 3.023438 10.972656 3.019531 L 10.894531 3.011719 C 10.832031 3.003906 10.765625 3 10.703125 2.992188 C 10.644531 2.988281 10.582031 2.980469 10.523438 2.976562 C 10.5 2.976562 10.476562 2.972656 10.453125 2.972656 C 10.402344 2.96875 10.351562 2.964844 10.300781 2.964844 L 10.21875 2.960938 L 10.21875 8.476562 C 10.503906 8.507812 10.785156 8.566406 11.058594 8.660156 L 15.136719 4.597656 C 14.988281 4.496094 14.832031 4.394531 14.675781 4.296875 Z M 14.675781 4.296875 "/>
<path fill-rule="nonzero" fill="rgb(40.784314%, 63.921569%, 21.960784%)" fill-opacity="1" d="M 5.042969 4.28125 L 5.140625 4.441406 Z M 9.65625 2.957031 C 9.59375 2.957031 9.53125 2.957031 9.46875 2.960938 C 9.078125 2.976562 8.6875 3.015625 8.300781 3.078125 C 8.292969 3.082031 8.285156 3.082031 8.273438 3.085938 C 8.21875 3.09375 8.167969 3.105469 8.113281 3.113281 L 8.019531 3.132812 C 7.988281 3.136719 7.957031 3.144531 7.925781 3.152344 C 7.863281 3.164062 7.800781 3.179688 7.738281 3.191406 C 6.964844 3.371094 6.214844 3.652344 5.507812 4.019531 C 5.460938 4.042969 5.417969 4.070312 5.371094 4.097656 C 5.316406 4.125 5.261719 4.15625 5.207031 4.1875 C 5.167969 4.210938 5.125 4.234375 5.085938 4.257812 C 5.082031 4.257812 5.078125 4.261719 5.078125 4.261719 C 5.066406 4.269531 5.054688 4.273438 5.042969 4.28125 L 5.046875 4.28125 L 5.140625 4.441406 L 7.898438 8.996094 C 7.953125 8.964844 8.007812 8.9375 8.0625 8.90625 C 8.5 8.671875 8.976562 8.527344 9.46875 8.476562 C 9.53125 8.46875 9.59375 8.464844 9.65625 8.460938 C 9.71875 8.460938 9.78125 8.457031 9.84375 8.457031 L 9.84375 2.953125 C 9.78125 2.953125 9.71875 2.953125 9.65625 2.957031 Z M 9.65625 2.957031 "/>
<path fill-rule="nonzero" fill="rgb(29.803922%, 34.901961%, 18.823529%)" fill-opacity="1" d="M 19.132812 11.753906 L 19.125 11.609375 C 19.125 11.582031 19.121094 11.558594 19.121094 11.53125 L 19.105469 11.359375 C 19.105469 11.34375 19.101562 11.328125 19.101562 11.3125 C 19.09375 11.25 19.089844 11.183594 19.082031 11.117188 C 19.078125 11.113281 19.078125 11.109375 19.078125 11.105469 C 19.078125 11.101562 19.078125 11.097656 19.078125 11.097656 C 19.070312 11.027344 19.0625 10.957031 19.050781 10.886719 C 19.050781 10.882812 19.050781 10.882812 19.050781 10.878906 C 18.984375 10.441406 18.890625 10.003906 18.761719 9.578125 C 18.742188 9.507812 18.722656 9.441406 18.699219 9.371094 C 18.695312 9.363281 18.691406 9.355469 18.691406 9.347656 C 18.671875 9.285156 18.652344 9.226562 18.628906 9.167969 C 18.625 9.152344 18.621094 9.136719 18.613281 9.117188 C 18.585938 9.042969 18.558594 8.96875 18.53125 8.894531 C 18.511719 8.851562 18.496094 8.808594 18.480469 8.765625 C 18.464844 8.730469 18.453125 8.699219 18.441406 8.667969 C 18.425781 8.632812 18.410156 8.601562 18.398438 8.570312 L 18.34375 8.445312 L 18.308594 8.371094 C 18.289062 8.324219 18.265625 8.273438 18.242188 8.222656 C 18.234375 8.210938 18.226562 8.195312 18.21875 8.179688 C 18.191406 8.121094 18.164062 8.066406 18.136719 8.007812 C 18.132812 8 18.128906 7.992188 18.121094 7.984375 C 18.089844 7.925781 18.058594 7.863281 18.023438 7.800781 L 18.023438 7.796875 C 17.859375 7.5 17.683594 7.214844 17.492188 6.941406 L 13.410156 11.003906 C 13.503906 11.273438 13.566406 11.554688 13.59375 11.839844 L 19.136719 11.839844 Z M 19.132812 11.753906 "/>
<path fill-rule="nonzero" fill="rgb(40.784314%, 63.921569%, 21.960784%)" fill-opacity="1" d="M 13.617188 12.210938 C 13.617188 12.273438 13.609375 12.335938 13.605469 12.398438 C 13.605469 12.460938 13.601562 12.523438 13.597656 12.585938 C 13.523438 13.320312 13.234375 14.019531 12.761719 14.589844 C 12.722656 14.636719 12.679688 14.679688 12.636719 14.726562 C 12.59375 14.773438 12.554688 14.820312 12.511719 14.867188 L 16.421875 18.757812 C 16.464844 18.710938 16.507812 18.667969 16.550781 18.621094 C 16.59375 18.578125 16.636719 18.53125 16.679688 18.484375 C 16.964844 18.179688 17.230469 17.851562 17.472656 17.507812 C 17.480469 17.496094 17.492188 17.480469 17.5 17.46875 C 17.527344 17.429688 17.558594 17.386719 17.585938 17.34375 C 17.609375 17.304688 17.636719 17.269531 17.660156 17.230469 C 17.671875 17.214844 17.683594 17.195312 17.695312 17.175781 C 18.574219 15.800781 19.074219 14.214844 19.136719 12.582031 C 19.140625 12.519531 19.140625 12.460938 19.140625 12.398438 C 19.144531 12.335938 19.144531 12.273438 19.144531 12.210938 Z M 13.617188 12.210938 "/>
<path fill-rule="nonzero" fill="rgb(24.705882%, 24.705882%, 25.882353%)" fill-opacity="1" d="M 20.789062 1.316406 C 19.777344 0.3125 18.136719 0.3125 17.125 1.316406 C 16.316406 2.121094 16.15625 3.320312 16.636719 4.285156 L 10.996094 9.902344 C 10.027344 9.425781 8.820312 9.585938 8.011719 10.386719 C 7 11.394531 7 13.027344 8.011719 14.035156 C 9.023438 15.039062 10.664062 15.039062 11.675781 14.035156 C 12.460938 13.253906 12.65625 12.058594 12.164062 11.066406 L 17.804688 5.449219 C 18.773438 5.929688 19.980469 5.765625 20.789062 4.964844 C 21.273438 4.480469 21.546875 3.824219 21.546875 3.140625 C 21.546875 2.457031 21.273438 1.800781 20.789062 1.316406 Z M 20.789062 1.316406 "/>
</svg>
