<?xml version="1.0" encoding="UTF-8"?>
<svg xmlns="http://www.w3.org/2000/svg" xmlns:xlink="http://www.w3.org/1999/xlink" width="22" height="22" viewBox="0 0 22 22">
<path fill-rule="nonzero" fill="rgb(23.529412%, 43.137255%, 70.588235%)" fill-opacity="1" d="M 16.015625 10.277344 C 16.042969 10.4375 16.066406 10.597656 16.097656 10.753906 L 17.640625 10.753906 L 17.640625 10.277344 Z M 16.273438 11.464844 C 16.304688 11.574219 16.335938 11.679688 16.375 11.789062 C 16.464844 11.832031 16.550781 11.882812 16.636719 11.9375 L 18.585938 11.9375 L 18.585938 11.464844 Z M 13.105469 11.683594 C 13.03125 11.710938 12.960938 11.742188 12.890625 11.777344 C 12.960938 11.742188 13.03125 11.710938 13.105469 11.683594 Z M 6.015625 17.625 L 6.015625 18.101562 L 11.714844 18.101562 L 11.714844 17.625 Z M 9.332031 18.8125 L 9.332031 19.285156 L 14.023438 19.285156 L 14.023438 18.8125 Z M 9.332031 18.8125 "/>
<path fill-rule="nonzero" fill="rgb(80%, 80%, 80%)" fill-opacity="1" d="M 10.503906 2.792969 C 9.660156 2.792969 8.832031 2.890625 8.339844 3.089844 C 6.984375 3.585938 5.941406 4.941406 5.632812 6.582031 C 5.226562 8.503906 5.253906 10.007812 4.847656 11.425781 C 5.03125 11.285156 5.238281 11.171875 5.457031 11.09375 C 5.769531 10.96875 6.300781 10.90625 6.839844 10.90625 C 7.378906 10.90625 7.929688 10.96875 8.289062 11.09375 C 9.074219 11.378906 9.691406 12.117188 9.949219 13.03125 L 11.621094 13.03125 C 11.960938 12.398438 12.484375 11.910156 13.105469 11.683594 C 13.777344 11.417969 15.367188 11.417969 16.132812 11.683594 C 16.214844 11.714844 16.296875 11.75 16.375 11.789062 C 15.847656 10.265625 15.914062 8.671875 15.472656 6.582031 C 15.164062 4.941406 14.125 3.585938 12.765625 3.089844 C 12.207031 2.894531 11.347656 2.792969 10.503906 2.792969 Z M 10.503906 2.792969 "/>
<path fill-rule="nonzero" fill="rgb(90.588235%, 90.980392%, 91.372549%)" fill-opacity="1" d="M 7.78125 8.558594 C 7.464844 8.558594 7.207031 8.828125 7.207031 9.164062 C 7.207031 9.496094 7.464844 9.769531 7.78125 9.769531 C 8.097656 9.769531 8.355469 9.496094 8.355469 9.164062 C 8.355469 8.828125 8.097656 8.558594 7.78125 8.558594 Z M 13.589844 8.558594 C 13.273438 8.558594 13.015625 8.828125 13.015625 9.164062 C 13.015625 9.496094 13.273438 9.769531 13.589844 9.769531 C 13.742188 9.769531 13.886719 9.703125 13.996094 9.589844 C 14.105469 9.476562 14.164062 9.324219 14.164062 9.164062 C 14.164062 9 14.105469 8.847656 13.996094 8.734375 C 13.886719 8.621094 13.742188 8.558594 13.589844 8.558594 Z M 13.589844 8.558594 "/>
<path fill-rule="nonzero" fill="rgb(65.490196%, 66.27451%, 67.45098%)" fill-opacity="1" d="M 8.75 8.714844 L 6.613281 9.289062 L 6.675781 9.515625 L 8.8125 8.945312 Z M 12.792969 8.714844 L 12.730469 8.945312 L 14.867188 9.515625 L 14.925781 9.289062 Z M 8.964844 9.058594 L 6.816406 10.300781 L 6.933594 10.507812 L 9.082031 9.265625 Z M 12.578125 9.058594 L 12.460938 9.265625 L 14.609375 10.507812 L 14.726562 10.300781 Z M 9.121094 9.472656 L 7.640625 10.953125 C 7.742188 10.964844 7.835938 10.980469 7.929688 11 L 9.289062 9.640625 Z M 12.421875 9.472656 L 12.253906 9.640625 L 14.113281 11.5 C 14.21875 11.492188 14.324219 11.488281 14.433594 11.484375 Z M 9.191406 10.011719 L 8.511719 11.191406 C 8.582031 11.226562 8.652344 11.261719 8.71875 11.304688 L 9.398438 10.128906 Z M 12.351562 10.011719 L 12.144531 10.128906 L 13.054688 11.703125 C 13.070312 11.699219 13.085938 11.691406 13.105469 11.683594 C 13.15625 11.664062 13.21875 11.644531 13.28125 11.625 Z M 12.351562 10.011719 "/>
<path fill-rule="nonzero" fill="rgb(100%, 100%, 100%)" fill-opacity="1" d="M 12.589844 8.738281 C 12.59375 9.707031 11.765625 10.496094 10.746094 10.496094 C 9.726562 10.496094 8.902344 9.707031 8.902344 8.738281 C 8.902344 7.769531 9.726562 6.980469 10.746094 6.980469 C 11.765625 6.980469 12.589844 7.769531 12.589844 8.738281 Z M 12.589844 8.738281 "/>
<path fill-rule="nonzero" fill="rgb(50.196078%, 50.196078%, 50.196078%)" fill-opacity="1" d="M 11.535156 8.421875 C 11.472656 8.261719 11.472656 7.941406 11.285156 7.941406 C 11.101562 7.941406 10.929688 7.820312 10.746094 7.820312 C 10.5625 7.820312 10.390625 7.941406 10.207031 7.941406 C 10.019531 7.941406 10.019531 8.261719 9.957031 8.421875 C 9.898438 8.582031 10.746094 9.101562 10.746094 9.101562 C 10.746094 9.101562 11.597656 8.582031 11.535156 8.421875 Z M 11.535156 8.421875 "/>
<path fill-rule="nonzero" fill="rgb(23.529412%, 43.137255%, 70.588235%)" fill-opacity="1" d="M 9.867188 12.769531 C 9.921875 12.921875 9.96875 13.078125 10 13.242188 L 11.515625 13.242188 C 11.589844 13.074219 11.679688 12.917969 11.777344 12.769531 Z M 17.457031 12.769531 C 17.558594 12.917969 17.648438 13.078125 17.722656 13.242188 L 19.625 13.242188 L 19.625 12.769531 Z M 17.457031 12.769531 "/>
<path fill-rule="nonzero" fill="rgb(80%, 80%, 80%)" fill-opacity="1" d="M 6.839844 10.90625 C 6.300781 10.90625 5.769531 10.96875 5.457031 11.09375 C 4.585938 11.410156 3.921875 12.273438 3.726562 13.320312 C 3.621094 13.808594 3.5625 14.25 3.511719 14.664062 L 10.230469 14.664062 C 10.179688 14.25 10.121094 13.808594 10.019531 13.320312 C 9.820312 12.273438 9.15625 11.410156 8.289062 11.09375 C 7.929688 10.96875 7.378906 10.90625 6.839844 10.90625 Z M 6.839844 10.90625 "/>
<path fill-rule="nonzero" fill="rgb(90.588235%, 90.980392%, 91.372549%)" fill-opacity="1" d="M 5.097656 14.582031 C 5.019531 14.585938 4.945312 14.613281 4.882812 14.664062 L 5.324219 14.664062 C 5.257812 14.609375 5.179688 14.582031 5.097656 14.582031 Z M 8.8125 14.582031 C 8.734375 14.585938 8.660156 14.613281 8.597656 14.664062 L 9.039062 14.664062 C 8.972656 14.609375 8.894531 14.582031 8.8125 14.582031 Z M 8.8125 14.582031 "/>
<path fill-rule="nonzero" fill="rgb(65.490196%, 66.27451%, 67.45098%)" fill-opacity="1" d="M 5.707031 14.640625 L 5.625 14.664062 L 5.710938 14.664062 Z M 8.3125 14.640625 L 8.308594 14.664062 L 8.398438 14.664062 Z M 8.3125 14.640625 "/>
<path fill-rule="nonzero" fill="rgb(100%, 100%, 100%)" fill-opacity="1" d="M 6.996094 13.578125 C 6.359375 13.578125 5.839844 14.058594 5.816406 14.664062 L 8.167969 14.664062 C 8.148438 14.0625 7.628906 13.582031 6.996094 13.578125 Z M 6.996094 13.578125 "/>
<path fill-rule="nonzero" fill="rgb(50.196078%, 50.196078%, 50.196078%)" fill-opacity="1" d="M 6.996094 14.113281 C 6.878906 14.113281 6.769531 14.1875 6.648438 14.1875 C 6.53125 14.1875 6.53125 14.394531 6.492188 14.496094 C 6.476562 14.53125 6.535156 14.597656 6.617188 14.664062 L 7.371094 14.664062 C 7.453125 14.597656 7.511719 14.53125 7.496094 14.496094 C 7.457031 14.394531 7.457031 14.1875 7.339844 14.1875 C 7.222656 14.1875 7.113281 14.113281 6.996094 14.113281 Z M 6.996094 14.113281 "/>
<path fill-rule="nonzero" fill="rgb(53.72549%, 17.254902%, 62.745098%)" fill-opacity="1" d="M 15.765625 0.253906 L 6.1875 0.28125 C 6.117188 0.28125 6.046875 0.3125 6.003906 0.371094 L 0.0507812 7.886719 C 0.0078125 7.941406 -0.0117188 8.015625 0.0078125 8.085938 L 2.164062 17.429688 C 2.179688 17.5 2.230469 17.558594 2.292969 17.589844 L 10.9375 21.726562 C 11.003906 21.757812 11.078125 21.753906 11.140625 21.722656 L 19.761719 17.539062 C 19.828125 17.507812 19.875 17.445312 19.890625 17.375 L 21.996094 8.019531 C 22.011719 7.949219 21.992188 7.875 21.949219 7.820312 L 15.953125 0.339844 C 15.90625 0.285156 15.839844 0.25 15.765625 0.253906 Z M 15.652344 0.726562 L 21.507812 8.027344 L 19.453125 17.160156 L 11.039062 21.246094 L 2.601562 17.210938 L 0.492188 8.089844 L 6.304688 0.753906 Z M 15.652344 0.726562 "/>
<path fill-rule="nonzero" fill="rgb(80%, 80%, 80%)" fill-opacity="1" d="M 18.328125 16.453125 C 18.226562 15.746094 18.175781 14.976562 17.984375 14.066406 C 17.769531 12.949219 17.058594 12.023438 16.132812 11.683594 C 15.367188 11.417969 13.777344 11.417969 13.105469 11.683594 C 12.175781 12.023438 11.464844 12.949219 11.253906 14.066406 C 11.0625 14.976562 11.011719 15.746094 10.90625 16.453125 "/>
<path fill-rule="nonzero" fill="rgb(90.588235%, 90.980392%, 91.372549%)" fill-opacity="1" d="M 12.722656 15.414062 C 12.503906 15.414062 12.328125 15.601562 12.328125 15.828125 C 12.328125 16.058594 12.503906 16.242188 12.722656 16.242188 C 12.9375 16.242188 13.113281 16.058594 13.113281 15.828125 C 13.113281 15.601562 12.9375 15.414062 12.722656 15.414062 Z M 16.695312 15.414062 C 16.476562 15.414062 16.300781 15.601562 16.300781 15.828125 C 16.300781 16.058594 16.476562 16.242188 16.695312 16.242188 C 16.910156 16.242188 17.085938 16.058594 17.085938 15.828125 C 17.085938 15.601562 16.910156 15.414062 16.695312 15.414062 Z M 16.695312 15.414062 "/>
<path fill-rule="nonzero" fill="rgb(65.490196%, 66.27451%, 67.45098%)" fill-opacity="1" d="M 13.375 15.488281 L 11.914062 15.878906 L 11.976562 16.105469 L 13.433594 15.714844 Z M 16.15625 15.488281 L 16.097656 15.714844 L 17.558594 16.105469 L 17.617188 15.878906 Z M 13.511719 15.726562 L 12.042969 16.574219 L 12.160156 16.777344 L 13.628906 15.929688 Z M 16.019531 15.726562 L 15.902344 15.929688 L 17.371094 16.777344 L 17.488281 16.574219 Z M 16.019531 15.726562 "/>
<path fill-rule="nonzero" fill="rgb(100%, 100%, 100%)" fill-opacity="1" d="M 16.011719 15.539062 C 16.011719 16.199219 15.445312 16.738281 14.75 16.738281 C 14.050781 16.738281 13.488281 16.199219 13.488281 15.539062 C 13.488281 14.878906 14.050781 14.339844 14.75 14.339844 C 15.445312 14.339844 16.011719 14.878906 16.011719 15.539062 Z M 16.011719 15.539062 "/>
<path fill-rule="nonzero" fill="rgb(50.196078%, 50.196078%, 50.196078%)" fill-opacity="1" d="M 15.289062 15.324219 C 15.246094 15.214844 15.246094 14.996094 15.117188 14.996094 C 14.992188 14.996094 14.875 14.914062 14.75 14.914062 C 14.625 14.914062 14.507812 14.996094 14.378906 14.996094 C 14.253906 14.996094 14.253906 15.214844 14.210938 15.324219 C 14.167969 15.433594 14.75 15.789062 14.75 15.789062 C 14.75 15.789062 15.332031 15.433594 15.289062 15.324219 Z M 15.289062 15.324219 "/>
<path fill-rule="nonzero" fill="rgb(37.647059%, 37.647059%, 35.686275%)" fill-opacity="1" d="M 10.746094 6.804688 C 9.636719 6.804688 8.722656 7.667969 8.722656 8.738281 C 8.722656 9.808594 9.636719 10.671875 10.746094 10.671875 C 11.855469 10.671875 12.769531 9.808594 12.769531 8.738281 C 12.769531 7.667969 11.855469 6.804688 10.746094 6.804688 Z M 10.746094 7.160156 C 11.675781 7.160156 12.414062 7.871094 12.414062 8.738281 C 12.414062 9.609375 11.675781 10.316406 10.746094 10.316406 C 9.820312 10.316406 9.078125 9.609375 9.078125 8.738281 C 9.078125 7.871094 9.820312 7.160156 10.746094 7.160156 Z M 6.996094 13.398438 C 6.265625 13.398438 5.65625 13.960938 5.636719 14.664062 L 5.992188 14.664062 C 6.011719 14.160156 6.445312 13.753906 6.996094 13.753906 C 7.542969 13.753906 7.976562 14.160156 7.996094 14.664062 L 8.351562 14.664062 C 8.332031 13.960938 7.726562 13.398438 6.996094 13.398438 Z M 14.75 14.164062 C 13.960938 14.164062 13.308594 14.777344 13.308594 15.539062 C 13.308594 16.300781 13.960938 16.914062 14.75 16.914062 C 15.539062 16.914062 16.191406 16.300781 16.191406 15.539062 C 16.191406 14.777344 15.539062 14.164062 14.75 14.164062 Z M 14.75 14.519531 C 15.355469 14.519531 15.835938 14.976562 15.835938 15.539062 C 15.835938 16.097656 15.355469 16.558594 14.75 16.558594 C 14.144531 16.558594 13.664062 16.097656 13.664062 15.539062 C 13.664062 14.976562 14.144531 14.519531 14.75 14.519531 Z M 14.75 14.519531 "/>
<path fill-rule="nonzero" fill="rgb(23.529412%, 43.137255%, 70.588235%)" fill-opacity="1" d="M 2.742188 14.664062 L 2.742188 15.136719 L 11.074219 15.136719 C 11.09375 14.984375 11.117188 14.824219 11.144531 14.664062 Z M 6.964844 16.441406 L 6.964844 16.914062 L 19.28125 16.914062 L 19.28125 16.441406 L 18.328125 16.441406 L 18.328125 16.453125 L 10.90625 16.453125 L 10.90625 16.441406 Z M 6.964844 16.441406 "/>
<path fill-rule="nonzero" fill="rgb(0%, 0%, 0%)" fill-opacity="1" d="M 10.503906 2.617188 C 9.648438 2.617188 8.8125 2.710938 8.277344 2.921875 C 6.855469 3.445312 5.78125 4.851562 5.460938 6.546875 C 5.175781 7.890625 5.101562 9.023438 4.949219 10.054688 C 4.886719 10.492188 4.808594 10.914062 4.695312 11.320312 C 4.117188 11.777344 3.699219 12.484375 3.550781 13.289062 C 3.445312 13.789062 3.386719 14.242188 3.332031 14.664062 L 3.691406 14.664062 C 3.742188 14.257812 3.796875 13.828125 3.898438 13.359375 L 3.898438 13.355469 C 4.085938 12.359375 4.71875 11.550781 5.515625 11.261719 L 5.519531 11.257812 C 5.789062 11.148438 6.3125 11.082031 6.839844 11.082031 C 7.363281 11.082031 7.90625 11.148438 8.226562 11.261719 C 9.023438 11.550781 9.65625 12.359375 9.84375 13.355469 L 9.84375 13.359375 C 9.945312 13.828125 10.003906 14.257812 10.050781 14.664062 L 10.410156 14.664062 C 10.359375 14.242188 10.300781 13.789062 10.195312 13.289062 C 9.984375 12.1875 9.285156 11.269531 8.347656 10.925781 L 8.347656 10.921875 C 7.953125 10.785156 7.390625 10.726562 6.839844 10.726562 C 6.285156 10.726562 5.75 10.785156 5.390625 10.925781 C 5.300781 10.960938 5.214844 11 5.132812 11.042969 C 5.199219 10.730469 5.257812 10.417969 5.304688 10.105469 C 5.457031 9.058594 5.53125 7.933594 5.808594 6.617188 L 5.808594 6.613281 C 6.109375 5.027344 7.117188 3.726562 8.402344 3.253906 L 8.40625 3.253906 C 8.855469 3.074219 9.675781 2.972656 10.503906 2.972656 C 11.332031 2.972656 12.183594 3.074219 12.707031 3.253906 C 13.992188 3.726562 15 5.027344 15.296875 6.613281 L 15.300781 6.617188 C 15.578125 7.933594 15.652344 9.058594 15.804688 10.105469 C 15.875 10.578125 15.964844 11.035156 16.09375 11.488281 C 15.683594 11.363281 15.132812 11.304688 14.582031 11.304688 C 13.992188 11.304688 13.421875 11.367188 13.042969 11.519531 C 12.046875 11.882812 11.300781 12.859375 11.082031 14.03125 C 10.886719 14.953125 10.832031 15.730469 10.730469 16.429688 L 11.082031 16.480469 C 11.1875 15.761719 11.238281 14.996094 11.425781 14.105469 L 11.429688 14.101562 C 11.628906 13.035156 12.308594 12.164062 13.164062 11.851562 L 13.167969 11.851562 L 13.171875 11.847656 C 13.460938 11.734375 14.019531 11.660156 14.582031 11.660156 C 15.144531 11.660156 15.726562 11.730469 16.074219 11.851562 C 16.929688 12.164062 17.609375 13.035156 17.808594 14.101562 L 17.808594 14.105469 C 17.996094 14.996094 18.046875 15.761719 18.152344 16.480469 L 18.507812 16.429688 C 18.402344 15.730469 18.351562 14.953125 18.15625 14.03125 C 17.960938 12.992188 17.351562 12.105469 16.519531 11.664062 C 16.347656 11.144531 16.238281 10.617188 16.15625 10.054688 C 16.007812 9.027344 15.933594 7.890625 15.648438 6.550781 C 15.328125 4.851562 14.253906 3.441406 12.828125 2.921875 C 12.230469 2.710938 11.363281 2.617188 10.503906 2.617188 Z M 7.828125 4.757812 C 7.457031 4.757812 7.109375 4.929688 6.882812 5.21875 L 6.773438 5.359375 L 7.054688 5.578125 L 7.164062 5.4375 C 7.316406 5.246094 7.539062 5.128906 7.78125 5.113281 C 8.003906 5.105469 8.238281 5.195312 8.394531 5.351562 L 8.523438 5.480469 L 8.773438 5.226562 L 8.648438 5.101562 C 8.429688 4.886719 8.136719 4.761719 7.828125 4.757812 Z M 13.5625 4.757812 C 13.257812 4.761719 12.960938 4.886719 12.746094 5.101562 L 12.617188 5.226562 L 12.867188 5.480469 L 12.996094 5.351562 C 13.160156 5.195312 13.378906 5.109375 13.609375 5.113281 C 13.84375 5.125 14.082031 5.25 14.226562 5.4375 L 14.335938 5.578125 L 14.617188 5.359375 L 14.507812 5.21875 C 14.28125 4.929688 13.933594 4.757812 13.5625 4.757812 Z M 7.820312 6.324219 C 7.328125 6.324219 6.929688 6.734375 6.929688 7.238281 C 6.929688 7.742188 7.328125 8.148438 7.820312 8.148438 C 8.308594 8.148438 8.707031 7.742188 8.707031 7.238281 C 8.707031 6.734375 8.308594 6.324219 7.820312 6.324219 Z M 13.570312 6.324219 C 13.082031 6.324219 12.683594 6.734375 12.683594 7.238281 C 12.683594 7.742188 13.082031 8.148438 13.570312 8.148438 C 14.0625 8.148438 14.460938 7.742188 14.460938 7.238281 C 14.460938 6.734375 14.0625 6.324219 13.570312 6.324219 Z M 10.746094 7.640625 C 10.617188 7.640625 10.507812 7.683594 10.421875 7.710938 C 10.332031 7.742188 10.261719 7.761719 10.207031 7.761719 C 10.109375 7.761719 10.011719 7.816406 9.960938 7.878906 C 9.910156 7.941406 9.882812 8.007812 9.867188 8.066406 C 9.828125 8.191406 9.808594 8.316406 9.792969 8.359375 C 9.753906 8.457031 9.792969 8.535156 9.820312 8.585938 C 9.851562 8.636719 9.886719 8.679688 9.929688 8.722656 C 10.011719 8.804688 10.117188 8.886719 10.222656 8.964844 C 10.332031 9.046875 10.441406 9.117188 10.523438 9.171875 L 10.519531 9.242188 C 10.480469 9.277344 10.382812 9.363281 10.21875 9.417969 C 10.125 9.449219 10.027344 9.460938 9.945312 9.4375 C 9.875 9.421875 9.804688 9.359375 9.730469 9.265625 C 9.734375 9.226562 9.738281 9.210938 9.746094 9.148438 C 9.761719 9.042969 9.78125 8.910156 9.792969 8.871094 L 9.445312 8.785156 C 9.425781 8.867188 9.410156 8.988281 9.394531 9.101562 C 9.378906 9.210938 9.367188 9.308594 9.367188 9.308594 L 9.359375 9.371094 L 9.394531 9.425781 C 9.519531 9.621094 9.683594 9.742188 9.855469 9.785156 C 10.027344 9.828125 10.195312 9.800781 10.335938 9.753906 C 10.515625 9.695312 10.664062 9.59375 10.742188 9.535156 C 10.824219 9.59375 10.972656 9.695312 11.152344 9.753906 C 11.289062 9.800781 11.457031 9.828125 11.628906 9.785156 C 11.800781 9.742188 11.964844 9.621094 12.089844 9.425781 L 12.125 9.371094 L 12.117188 9.308594 C 12.117188 9.308594 12.105469 9.210938 12.089844 9.101562 C 12.074219 8.988281 12.058594 8.867188 12.039062 8.785156 L 11.691406 8.871094 C 11.703125 8.910156 11.722656 9.042969 11.738281 9.148438 C 11.746094 9.210938 11.75 9.226562 11.753906 9.261719 C 11.679688 9.359375 11.609375 9.421875 11.539062 9.441406 C 11.457031 9.460938 11.359375 9.449219 11.265625 9.417969 C 11.101562 9.363281 11.003906 9.277344 10.964844 9.242188 L 10.960938 9.175781 C 11.042969 9.121094 11.15625 9.050781 11.269531 8.964844 C 11.375 8.886719 11.480469 8.804688 11.5625 8.722656 C 11.605469 8.679688 11.640625 8.636719 11.671875 8.585938 C 11.703125 8.535156 11.738281 8.457031 11.699219 8.359375 C 11.683594 8.316406 11.664062 8.191406 11.625 8.066406 C 11.605469 8.007812 11.585938 7.941406 11.53125 7.878906 C 11.480469 7.816406 11.382812 7.761719 11.285156 7.761719 C 11.230469 7.761719 11.160156 7.742188 11.074219 7.710938 C 10.984375 7.683594 10.878906 7.640625 10.746094 7.640625 Z M 10.746094 7.996094 C 10.800781 7.996094 10.867188 8.019531 10.957031 8.046875 C 11.039062 8.078125 11.144531 8.105469 11.261719 8.113281 C 11.265625 8.117188 11.277344 8.136719 11.285156 8.171875 C 11.304688 8.234375 11.324219 8.328125 11.351562 8.421875 C 11.34375 8.433594 11.332031 8.449219 11.3125 8.472656 C 11.25 8.53125 11.15625 8.605469 11.058594 8.679688 C 10.90625 8.789062 10.8125 8.847656 10.746094 8.890625 C 10.683594 8.847656 10.585938 8.789062 10.433594 8.679688 C 10.335938 8.605469 10.242188 8.53125 10.183594 8.472656 C 10.160156 8.449219 10.148438 8.433594 10.140625 8.421875 C 10.167969 8.328125 10.1875 8.234375 10.207031 8.171875 C 10.210938 8.152344 10.222656 8.132812 10.230469 8.113281 C 10.351562 8.105469 10.453125 8.078125 10.535156 8.046875 C 10.621094 8.019531 10.695312 7.996094 10.746094 7.996094 Z M 5.085938 12.09375 C 4.84375 12.105469 4.617188 12.222656 4.472656 12.414062 L 4.363281 12.554688 L 4.644531 12.773438 L 4.753906 12.628906 C 4.839844 12.523438 4.964844 12.457031 5.101562 12.449219 C 5.230469 12.445312 5.355469 12.496094 5.445312 12.585938 L 5.574219 12.710938 L 5.824219 12.457031 L 5.695312 12.332031 C 5.535156 12.171875 5.3125 12.085938 5.085938 12.09375 Z M 8.839844 12.09375 C 8.609375 12.085938 8.390625 12.171875 8.226562 12.332031 L 8.101562 12.457031 L 8.351562 12.707031 L 8.476562 12.585938 C 8.570312 12.496094 8.695312 12.445312 8.824219 12.449219 C 8.960938 12.457031 9.085938 12.523438 9.171875 12.628906 L 9.277344 12.773438 L 9.5625 12.554688 L 9.453125 12.414062 C 9.304688 12.222656 9.078125 12.105469 8.839844 12.09375 Z M 16.675781 12.765625 C 16.453125 12.769531 16.238281 12.859375 16.078125 13.015625 L 15.949219 13.140625 L 16.199219 13.394531 L 16.328125 13.269531 C 16.425781 13.171875 16.5625 13.121094 16.703125 13.125 C 16.847656 13.128906 16.996094 13.207031 17.085938 13.320312 L 17.195312 13.460938 L 17.476562 13.246094 L 17.367188 13.105469 C 17.210938 12.902344 16.976562 12.78125 16.71875 12.769531 C 16.707031 12.769531 16.691406 12.765625 16.675781 12.765625 Z M 12.753906 12.765625 C 12.738281 12.765625 12.722656 12.769531 12.707031 12.769531 C 12.453125 12.78125 12.21875 12.902344 12.0625 13.105469 L 11.953125 13.246094 L 12.234375 13.460938 L 12.34375 13.320312 C 12.4375 13.203125 12.574219 13.132812 12.722656 13.125 C 12.863281 13.121094 13 13.171875 13.101562 13.269531 L 13.230469 13.394531 L 13.480469 13.140625 L 13.351562 13.015625 C 13.191406 12.859375 12.976562 12.769531 12.753906 12.765625 Z M 5.121094 13.160156 C 4.808594 13.160156 4.554688 13.417969 4.554688 13.738281 C 4.554688 13.894531 4.613281 14.042969 4.71875 14.152344 C 4.828125 14.261719 4.972656 14.324219 5.121094 14.324219 C 5.273438 14.324219 5.417969 14.261719 5.523438 14.152344 C 5.628906 14.042969 5.691406 13.894531 5.691406 13.738281 C 5.691406 13.417969 5.4375 13.160156 5.121094 13.160156 Z M 8.800781 13.160156 C 8.652344 13.160156 8.507812 13.21875 8.398438 13.328125 C 8.292969 13.4375 8.230469 13.585938 8.230469 13.738281 C 8.230469 13.894531 8.292969 14.042969 8.398438 14.152344 C 8.503906 14.261719 8.652344 14.324219 8.800781 14.324219 C 8.953125 14.324219 9.097656 14.261719 9.203125 14.152344 C 9.3125 14.042969 9.371094 13.894531 9.371094 13.738281 C 9.371094 13.417969 9.117188 13.160156 8.800781 13.160156 Z M 12.746094 13.894531 C 12.410156 13.894531 12.140625 14.171875 12.140625 14.515625 C 12.140625 14.859375 12.410156 15.136719 12.746094 15.136719 C 13.082031 15.136719 13.355469 14.859375 13.355469 14.515625 C 13.355469 14.171875 13.082031 13.894531 12.746094 13.894531 Z M 16.683594 13.894531 C 16.347656 13.894531 16.074219 14.171875 16.074219 14.515625 C 16.074219 14.859375 16.347656 15.136719 16.683594 15.136719 C 17.015625 15.136719 17.289062 14.859375 17.289062 14.515625 C 17.289062 14.171875 17.015625 13.894531 16.683594 13.894531 Z M 6.996094 13.933594 C 6.898438 13.933594 6.820312 13.964844 6.765625 13.984375 C 6.707031 14 6.671875 14.011719 6.648438 14.011719 C 6.570312 14.011719 6.484375 14.058594 6.441406 14.109375 C 6.402344 14.160156 6.382812 14.210938 6.371094 14.253906 C 6.34375 14.339844 6.332031 14.417969 6.324219 14.433594 C 6.289062 14.523438 6.324219 14.59375 6.347656 14.632812 C 6.355469 14.644531 6.363281 14.652344 6.367188 14.664062 L 6.910156 14.664062 C 6.882812 14.644531 6.859375 14.628906 6.832031 14.609375 C 6.769531 14.5625 6.710938 14.515625 6.679688 14.484375 L 6.679688 14.480469 C 6.6875 14.4375 6.703125 14.382812 6.710938 14.355469 C 6.773438 14.34375 6.835938 14.332031 6.878906 14.320312 C 6.9375 14.300781 6.976562 14.289062 6.996094 14.289062 C 7.015625 14.289062 7.050781 14.300781 7.109375 14.320312 C 7.152344 14.332031 7.214844 14.34375 7.277344 14.355469 C 7.285156 14.382812 7.300781 14.4375 7.3125 14.480469 L 7.308594 14.484375 C 7.277344 14.515625 7.21875 14.5625 7.15625 14.609375 C 7.128906 14.628906 7.105469 14.644531 7.078125 14.664062 L 7.621094 14.664062 C 7.628906 14.65625 7.636719 14.644531 7.640625 14.632812 C 7.664062 14.59375 7.699219 14.523438 7.664062 14.433594 C 7.660156 14.417969 7.644531 14.339844 7.617188 14.253906 C 7.605469 14.199219 7.578125 14.152344 7.546875 14.109375 C 7.503906 14.058594 7.421875 14.011719 7.339844 14.011719 C 7.320312 14.011719 7.28125 14.003906 7.222656 13.984375 C 7.167969 13.964844 7.09375 13.933594 6.996094 13.933594 Z M 14.75 14.734375 C 14.648438 14.734375 14.570312 14.765625 14.507812 14.785156 C 14.449219 14.808594 14.40625 14.816406 14.378906 14.816406 C 14.296875 14.816406 14.210938 14.863281 14.167969 14.917969 C 14.125 14.96875 14.109375 15.019531 14.09375 15.066406 C 14.066406 15.15625 14.050781 15.242188 14.042969 15.257812 C 14.007812 15.351562 14.042969 15.421875 14.066406 15.464844 C 14.09375 15.507812 14.121094 15.535156 14.152344 15.566406 C 14.210938 15.628906 14.285156 15.683594 14.359375 15.738281 C 14.421875 15.785156 14.480469 15.824219 14.53125 15.859375 C 14.496094 15.886719 14.453125 15.921875 14.371094 15.949219 C 14.3125 15.96875 14.257812 15.972656 14.214844 15.960938 C 14.183594 15.953125 14.148438 15.917969 14.113281 15.878906 C 14.117188 15.855469 14.117188 15.855469 14.121094 15.828125 C 14.128906 15.753906 14.144531 15.664062 14.148438 15.644531 L 13.804688 15.558594 C 13.789062 15.621094 13.777344 15.703125 13.769531 15.777344 C 13.757812 15.855469 13.75 15.921875 13.75 15.921875 L 13.742188 15.984375 L 13.777344 16.039062 C 13.867188 16.179688 13.996094 16.273438 14.128906 16.308594 C 14.257812 16.339844 14.382812 16.320312 14.484375 16.285156 C 14.578125 16.253906 14.667969 16.207031 14.746094 16.148438 C 14.808594 16.195312 14.898438 16.25 15.007812 16.285156 C 15.109375 16.320312 15.234375 16.339844 15.367188 16.308594 C 15.496094 16.273438 15.625 16.179688 15.714844 16.039062 L 15.75 15.984375 L 15.742188 15.921875 C 15.742188 15.921875 15.734375 15.855469 15.722656 15.777344 C 15.714844 15.703125 15.703125 15.621094 15.6875 15.558594 L 15.339844 15.644531 C 15.347656 15.664062 15.363281 15.753906 15.371094 15.828125 C 15.375 15.855469 15.375 15.855469 15.378906 15.878906 C 15.34375 15.917969 15.308594 15.953125 15.277344 15.960938 C 15.234375 15.972656 15.179688 15.96875 15.121094 15.949219 C 15.042969 15.921875 15 15.886719 14.964844 15.859375 C 15.015625 15.824219 15.078125 15.785156 15.140625 15.738281 C 15.214844 15.683594 15.285156 15.628906 15.347656 15.566406 C 15.378906 15.535156 15.40625 15.503906 15.429688 15.464844 C 15.457031 15.421875 15.488281 15.351562 15.453125 15.257812 C 15.445312 15.242188 15.433594 15.15625 15.402344 15.066406 C 15.390625 15.019531 15.371094 14.96875 15.328125 14.917969 C 15.285156 14.863281 15.203125 14.816406 15.117188 14.816406 C 15.09375 14.816406 15.050781 14.808594 14.992188 14.785156 C 14.929688 14.765625 14.851562 14.734375 14.75 14.734375 Z M 14.75 15.089844 C 14.773438 15.089844 14.816406 15.101562 14.875 15.121094 C 14.9375 15.140625 15 15.152344 15.0625 15.160156 C 15.0625 15.164062 15.0625 15.164062 15.066406 15.171875 C 15.074219 15.199219 15.089844 15.257812 15.101562 15.3125 L 15.097656 15.316406 C 15.042969 15.367188 14.988281 15.410156 14.929688 15.453125 C 14.84375 15.515625 14.800781 15.542969 14.75 15.574219 C 14.699219 15.542969 14.65625 15.519531 14.570312 15.453125 C 14.511719 15.414062 14.457031 15.367188 14.402344 15.316406 C 14.398438 15.3125 14.398438 15.3125 14.398438 15.308594 C 14.410156 15.257812 14.421875 15.199219 14.433594 15.171875 C 14.433594 15.164062 14.433594 15.164062 14.4375 15.160156 C 14.5 15.152344 14.5625 15.140625 14.621094 15.121094 C 14.683594 15.101562 14.726562 15.089844 14.75 15.089844 Z M 14.75 15.089844 "/>
<path fill-rule="nonzero" fill="rgb(53.72549%, 17.254902%, 62.745098%)" fill-opacity="1" d="M 7.820312 6.148438 C 7.535156 6.148438 7.261719 6.265625 7.066406 6.46875 C 6.941406 6.59375 6.851562 6.746094 6.800781 6.914062 C 6.765625 7.039062 6.75 7.164062 6.753906 7.292969 C 6.773438 7.632812 6.945312 7.945312 7.222656 8.140625 C 7.292969 8.1875 7.371094 8.230469 7.453125 8.261719 C 7.707031 8.355469 7.984375 8.347656 8.234375 8.242188 C 8.328125 8.199219 8.417969 8.144531 8.496094 8.078125 C 8.589844 8 8.667969 7.90625 8.730469 7.800781 C 8.863281 7.582031 8.910156 7.324219 8.875 7.074219 C 8.851562 6.933594 8.804688 6.796875 8.730469 6.675781 C 8.652344 6.539062 8.542969 6.425781 8.414062 6.335938 C 8.34375 6.285156 8.265625 6.246094 8.1875 6.214844 C 8.070312 6.171875 7.945312 6.148438 7.820312 6.148438 Z M 13.570312 6.148438 C 13.445312 6.148438 13.320312 6.171875 13.203125 6.214844 C 13.109375 6.253906 13.015625 6.304688 12.933594 6.367188 C 12.835938 6.441406 12.753906 6.53125 12.6875 6.632812 C 12.527344 6.875 12.46875 7.171875 12.527344 7.457031 C 12.570312 7.664062 12.671875 7.855469 12.816406 8.007812 C 12.890625 8.082031 12.972656 8.144531 13.0625 8.195312 C 13.15625 8.246094 13.253906 8.28125 13.355469 8.304688 C 13.464844 8.328125 13.574219 8.332031 13.679688 8.320312 C 13.890625 8.300781 14.089844 8.214844 14.25 8.078125 C 14.355469 7.988281 14.445312 7.878906 14.507812 7.753906 C 14.609375 7.5625 14.652344 7.34375 14.632812 7.128906 C 14.613281 6.96875 14.5625 6.8125 14.484375 6.675781 C 14.394531 6.527344 14.269531 6.398438 14.125 6.308594 C 14.035156 6.253906 13.9375 6.210938 13.839844 6.183594 C 13.75 6.160156 13.660156 6.148438 13.570312 6.148438 Z M 7.820312 6.503906 C 7.855469 6.503906 7.890625 6.503906 7.925781 6.511719 C 8.007812 6.523438 8.085938 6.550781 8.160156 6.589844 C 8.21875 6.625 8.273438 6.667969 8.324219 6.714844 C 8.386719 6.785156 8.441406 6.863281 8.476562 6.949219 C 8.507812 7.027344 8.527344 7.113281 8.53125 7.199219 C 8.535156 7.285156 8.523438 7.375 8.5 7.457031 C 8.472656 7.546875 8.425781 7.632812 8.367188 7.707031 C 8.308594 7.78125 8.238281 7.839844 8.160156 7.886719 C 8.023438 7.960938 7.863281 7.988281 7.710938 7.964844 C 7.535156 7.9375 7.378906 7.84375 7.269531 7.707031 C 7.210938 7.632812 7.167969 7.546875 7.140625 7.457031 C 7.117188 7.386719 7.109375 7.3125 7.109375 7.238281 C 7.109375 7.164062 7.117188 7.089844 7.140625 7.019531 C 7.167969 6.925781 7.210938 6.84375 7.269531 6.769531 C 7.328125 6.695312 7.398438 6.636719 7.480469 6.589844 C 7.574219 6.539062 7.675781 6.507812 7.78125 6.503906 C 7.792969 6.503906 7.804688 6.503906 7.820312 6.503906 Z M 13.570312 6.503906 C 13.644531 6.503906 13.714844 6.515625 13.78125 6.535156 C 13.871094 6.5625 13.953125 6.609375 14.023438 6.667969 C 14.09375 6.730469 14.152344 6.804688 14.195312 6.886719 C 14.242188 6.972656 14.269531 7.066406 14.277344 7.160156 C 14.292969 7.308594 14.265625 7.457031 14.195312 7.589844 C 14.152344 7.671875 14.09375 7.746094 14.023438 7.804688 C 13.96875 7.851562 13.910156 7.886719 13.847656 7.914062 C 13.671875 7.992188 13.472656 7.992188 13.296875 7.914062 C 13.210938 7.878906 13.132812 7.824219 13.070312 7.757812 C 13.003906 7.691406 12.953125 7.613281 12.917969 7.523438 C 12.882812 7.445312 12.863281 7.363281 12.863281 7.277344 C 12.859375 7.214844 12.863281 7.148438 12.875 7.089844 C 12.894531 6.996094 12.929688 6.90625 12.980469 6.824219 C 13.03125 6.746094 13.097656 6.679688 13.175781 6.628906 C 13.242188 6.582031 13.316406 6.546875 13.394531 6.527344 C 13.453125 6.511719 13.511719 6.503906 13.570312 6.503906 Z M 5.101562 12.980469 C 5.097656 12.980469 5.089844 12.980469 5.082031 12.980469 C 4.6875 13.003906 4.375 13.335938 4.375 13.738281 C 4.375 14.15625 4.710938 14.5 5.121094 14.5 C 5.535156 14.5 5.867188 14.15625 5.867188 13.738281 C 5.867188 13.324219 5.535156 12.980469 5.121094 12.980469 Z M 8.78125 12.980469 C 8.777344 12.980469 8.769531 12.980469 8.761719 12.980469 C 8.367188 13.003906 8.054688 13.335938 8.054688 13.738281 C 8.054688 14.15625 8.390625 14.5 8.800781 14.5 C 9.214844 14.5 9.546875 14.15625 9.546875 13.738281 C 9.546875 13.324219 9.214844 12.980469 8.800781 12.980469 Z M 5.121094 13.335938 C 5.335938 13.335938 5.511719 13.511719 5.511719 13.738281 C 5.511719 13.96875 5.335938 14.144531 5.121094 14.144531 C 4.90625 14.144531 4.730469 13.96875 4.730469 13.738281 C 4.730469 13.511719 4.90625 13.335938 5.121094 13.335938 Z M 8.800781 13.335938 C 9.019531 13.335938 9.191406 13.511719 9.191406 13.738281 C 9.191406 13.96875 9.019531 14.144531 8.800781 14.144531 C 8.585938 14.144531 8.410156 13.96875 8.410156 13.738281 C 8.410156 13.511719 8.585938 13.335938 8.800781 13.335938 Z M 12.746094 13.714844 C 12.3125 13.714844 11.960938 14.078125 11.960938 14.515625 C 11.960938 14.953125 12.3125 15.316406 12.746094 15.316406 C 13.179688 15.316406 13.53125 14.953125 13.53125 14.515625 C 13.53125 14.078125 13.179688 13.714844 12.746094 13.714844 Z M 16.683594 13.714844 C 16.246094 13.714844 15.898438 14.078125 15.898438 14.515625 C 15.898438 14.953125 16.246094 15.316406 16.683594 15.316406 C 17.117188 15.316406 17.46875 14.953125 17.46875 14.515625 C 17.46875 14.078125 17.117188 13.714844 16.683594 13.714844 Z M 12.734375 14.070312 L 12.746094 14.070312 C 12.984375 14.070312 13.175781 14.265625 13.175781 14.515625 C 13.175781 14.765625 12.984375 14.960938 12.746094 14.960938 C 12.511719 14.960938 12.316406 14.765625 12.316406 14.515625 C 12.316406 14.273438 12.496094 14.082031 12.726562 14.070312 C 12.730469 14.070312 12.734375 14.070312 12.734375 14.070312 Z M 16.671875 14.070312 L 16.683594 14.070312 C 16.917969 14.070312 17.113281 14.265625 17.113281 14.515625 C 17.113281 14.765625 16.917969 14.960938 16.683594 14.960938 C 16.445312 14.960938 16.253906 14.765625 16.253906 14.515625 C 16.253906 14.273438 16.433594 14.082031 16.660156 14.070312 C 16.664062 14.070312 16.667969 14.070312 16.671875 14.070312 Z M 16.671875 14.070312 "/>
<path fill-rule="nonzero" fill="rgb(100%, 100%, 100%)" fill-opacity="1" d="M 7.523438 6.527344 C 7.28125 6.527344 7.085938 6.730469 7.085938 6.980469 C 7.085938 7.101562 7.132812 7.21875 7.214844 7.300781 C 7.296875 7.386719 7.40625 7.4375 7.523438 7.4375 C 7.640625 7.4375 7.75 7.386719 7.832031 7.300781 C 7.914062 7.21875 7.960938 7.101562 7.960938 6.980469 C 7.960938 6.730469 7.765625 6.527344 7.523438 6.527344 Z M 13.273438 6.527344 C 13.03125 6.527344 12.835938 6.730469 12.835938 6.980469 C 12.835938 7.101562 12.882812 7.21875 12.964844 7.300781 C 13.046875 7.386719 13.15625 7.4375 13.273438 7.4375 C 13.390625 7.4375 13.5 7.386719 13.582031 7.300781 C 13.664062 7.21875 13.710938 7.101562 13.710938 6.980469 C 13.710938 6.730469 13.515625 6.527344 13.273438 6.527344 Z M 4.933594 13.285156 C 4.777344 13.285156 4.652344 13.417969 4.652344 13.578125 C 4.652344 13.652344 4.683594 13.726562 4.734375 13.78125 C 4.789062 13.835938 4.859375 13.867188 4.933594 13.867188 C 5.007812 13.867188 5.078125 13.835938 5.132812 13.78125 C 5.183594 13.726562 5.210938 13.652344 5.210938 13.578125 C 5.210938 13.417969 5.085938 13.285156 4.933594 13.285156 Z M 8.648438 13.328125 C 8.496094 13.328125 8.371094 13.457031 8.371094 13.617188 C 8.371094 13.777344 8.496094 13.910156 8.648438 13.90625 C 8.722656 13.910156 8.792969 13.878906 8.847656 13.824219 C 8.898438 13.769531 8.929688 13.695312 8.929688 13.617188 C 8.929688 13.542969 8.898438 13.46875 8.847656 13.414062 C 8.792969 13.359375 8.722656 13.328125 8.648438 13.328125 Z M 12.546875 14.03125 C 12.378906 14.03125 12.246094 14.167969 12.246094 14.339844 C 12.246094 14.421875 12.277344 14.5 12.332031 14.558594 C 12.390625 14.617188 12.464844 14.648438 12.546875 14.648438 C 12.625 14.648438 12.699219 14.617188 12.757812 14.558594 C 12.8125 14.5 12.84375 14.421875 12.84375 14.339844 C 12.84375 14.167969 12.710938 14.03125 12.546875 14.03125 Z M 16.539062 14.070312 C 16.460938 14.070312 16.386719 14.101562 16.328125 14.160156 C 16.273438 14.21875 16.242188 14.300781 16.242188 14.382812 C 16.242188 14.550781 16.375 14.691406 16.539062 14.691406 C 16.707031 14.691406 16.839844 14.550781 16.839844 14.382812 C 16.839844 14.300781 16.808594 14.21875 16.753906 14.160156 C 16.695312 14.101562 16.621094 14.070312 16.539062 14.070312 Z M 16.539062 14.070312 "/>
</svg>
