<?xml version="1.0" encoding="UTF-8"?>
<svg xmlns="http://www.w3.org/2000/svg" xmlns:xlink="http://www.w3.org/1999/xlink" width="22" height="22.677814" viewBox="0 0 22 22.677814">
<path fill-rule="nonzero" fill="rgb(0%, 0%, 0%)" fill-opacity="1" stroke-width="37.395302" stroke-linecap="butt" stroke-linejoin="miter" stroke="rgb(0%, 0%, 0%)" stroke-opacity="1" stroke-miterlimit="4" d="M 323.209096 324.206418 C 326.047628 300.654272 325.20374 297.202003 342.771954 300.96114 L 347.221545 301.344726 C 360.723752 301.958462 378.4454 299.196647 388.802207 294.36347 C 411.203597 284.006663 424.475653 266.668601 402.381132 271.19491 C 352.054721 281.628434 348.602452 264.59724 348.602452 264.59724 C 401.767395 185.80879 423.938634 85.769705 404.759361 61.220237 C 352.515024 -5.52363 262.065576 26.08381 260.531234 26.850981 L 260.070932 26.927698 C 250.09771 24.933054 238.973732 23.628863 226.468847 23.475429 C 203.760588 23.091844 186.422526 29.459362 173.380621 39.355867 C 173.380621 39.355867 11.967866 -27.157849 19.486141 122.977494 C 21.020482 154.891803 65.209526 364.636324 117.914166 301.268008 C 137.170155 278.176165 155.812408 258.53659 155.812408 258.53659 C 165.018458 264.673957 176.065719 267.819358 187.726717 266.668601 L 188.570605 265.90143 C 188.340453 268.81668 188.417171 271.655212 188.95419 274.954047 C 175.375265 290.144031 179.364554 292.752412 152.206705 298.352759 C 124.818704 304.029824 140.929292 314.079762 151.439534 316.76486 C 164.17457 319.910261 193.71065 324.436569 213.73381 296.511549 L 212.889922 299.733667 C 218.260118 303.953107 217.876533 330.343785 218.643704 349.139472 C 219.410874 368.011876 220.638348 385.580089 224.474202 395.936896 C 228.310057 406.293703 232.836365 432.99125 268.509811 425.319541 C 298.352759 418.952023 321.137734 409.745972 323.209096 324.206418 " transform="matrix(0.0509176, 0, 0, 0.0509176, 0.000000000000002171, 0)"/>
<path fill-rule="nonzero" fill="rgb(20%, 40.392157%, 56.862745%)" fill-opacity="1" d="M 20.488281 13.808594 C 17.925781 14.339844 17.75 13.472656 17.75 13.472656 C 20.457031 9.457031 21.585938 4.367188 20.609375 3.117188 C 17.949219 -0.28125 13.34375 1.328125 13.265625 1.367188 L 13.242188 1.371094 C 12.734375 1.265625 12.167969 1.203125 11.53125 1.195312 C 10.371094 1.175781 9.492188 1.5 8.828125 2.003906 C 8.828125 2.003906 0.609375 -1.382812 0.992188 6.261719 C 1.070312 7.886719 3.320312 18.566406 6.003906 15.339844 C 6.984375 14.164062 7.933594 13.164062 7.933594 13.164062 C 8.402344 13.476562 8.964844 13.636719 9.558594 13.578125 L 9.601562 13.539062 C 9.589844 13.6875 9.59375 13.832031 9.621094 14 C 8.929688 14.773438 9.132812 14.90625 7.75 15.191406 C 6.351562 15.480469 7.175781 15.992188 7.710938 16.128906 C 8.359375 16.289062 9.863281 16.519531 10.882812 15.097656 L 10.839844 15.261719 C 11.113281 15.476562 11.300781 16.671875 11.269531 17.753906 C 11.238281 18.835938 11.21875 19.578125 11.429688 20.160156 C 11.644531 20.738281 11.855469 22.046875 13.671875 21.65625 C 15.191406 21.332031 15.976562 20.488281 16.085938 19.082031 C 16.164062 18.082031 16.339844 18.230469 16.351562 17.335938 L 16.492188 16.914062 C 16.65625 15.558594 16.519531 15.121094 17.453125 15.324219 L 17.679688 15.34375 C 18.367188 15.375 19.269531 15.234375 19.796875 14.988281 C 20.9375 14.460938 21.613281 13.578125 20.488281 13.808594 Z M 20.488281 13.808594 "/>
<path fill="none" stroke-width="12.4651" stroke-linecap="round" stroke-linejoin="round" stroke="rgb(100%, 100%, 100%)" stroke-opacity="1" stroke-miterlimit="4" d="M 215.881888 286.46161 C 214.500981 336.02085 216.188757 385.886958 221.021933 398.008258 C 225.931827 410.129558 236.288634 433.681704 271.96208 426.009995 C 301.728311 419.642477 312.622138 407.291025 317.30188 379.979742 C 320.754149 359.879864 327.428536 304.106541 328.349141 292.675694 " transform="matrix(0.0509176, 0, 0, 0.0509176, 0.000000000000002171, 0)"/>
<path fill="none" stroke-width="12.4651" stroke-linecap="round" stroke-linejoin="round" stroke="rgb(100%, 100%, 100%)" stroke-opacity="1" stroke-miterlimit="4" d="M 173.073753 38.281827 C 173.073753 38.281827 11.58428 -27.771586 19.102555 122.363757 C 20.713614 154.278066 64.902657 364.022587 117.53058 300.654272 C 136.78657 277.485711 154.201349 259.380478 154.201349 259.380478 " transform="matrix(0.0509176, 0, 0, 0.0509176, 0.000000000000002171, 0)"/>
<path fill="none" stroke-width="12.4651" stroke-linecap="round" stroke-linejoin="round" stroke="rgb(100%, 100%, 100%)" stroke-opacity="1" stroke-miterlimit="4" d="M 260.3778 26.237244 C 254.777453 27.92502 350.213511 -8.669031 404.452493 60.6065 C 423.631765 85.079252 401.38381 185.118336 348.295584 263.983503 " transform="matrix(0.0509176, 0, 0, 0.0509176, 0.000000000000002171, 0)"/>
<path fill="none" stroke-width="12.4651" stroke-linecap="round" stroke-linejoin="bevel" stroke="rgb(100%, 100%, 100%)" stroke-opacity="1" stroke-miterlimit="4" d="M 348.295584 263.983503 C 348.295584 263.983503 351.747853 281.014697 402.074263 270.581173 C 424.092068 266.054865 410.820011 283.392927 388.495339 293.749734 C 370.159954 302.265331 328.962878 304.490126 328.349141 292.675694 C 326.584648 262.372444 349.98336 271.578495 348.295584 263.983503 C 346.761242 257.078965 336.327718 250.404578 329.42318 233.603536 C 323.36253 218.950572 246.568724 106.790188 350.673814 123.437796 C 354.509668 122.670625 323.515964 24.396034 226.085261 22.861693 C 128.731275 21.250634 131.953393 142.617068 131.953393 142.617068 " transform="matrix(0.0509176, 0, 0, 0.0509176, 0.000000000000002171, 0)"/>
<path fill="none" stroke-width="12.4651" stroke-linecap="round" stroke-linejoin="round" stroke="rgb(100%, 100%, 100%)" stroke-opacity="1" stroke-miterlimit="4" d="M 188.570605 274.34031 C 174.99168 289.530294 179.057686 292.138675 151.899836 297.739022 C 124.435118 303.416087 140.545707 313.466026 151.055948 316.151124 C 163.867702 319.296524 193.403781 323.822833 213.350224 295.897812 C 219.410874 287.382215 213.350224 273.803291 204.988062 270.351022 C 200.922056 268.663246 195.55186 266.591884 188.570605 274.34031 Z M 188.570605 274.34031 " transform="matrix(0.0509176, 0, 0, 0.0509176, 0.000000000000002171, 0)"/>
<path fill="none" stroke-width="12.4651" stroke-linecap="round" stroke-linejoin="round" stroke="rgb(100%, 100%, 100%)" stroke-opacity="1" stroke-miterlimit="4" d="M 187.726717 274.033442 C 186.345809 265.13426 190.641966 254.547301 195.244991 242.119133 C 202.149529 223.47688 218.106684 204.834628 205.371647 145.762469 C 195.858728 101.72686 131.953393 136.633135 131.953393 142.617068 C 131.876676 148.601001 134.791925 172.843601 130.879354 201.152207 C 125.739309 238.053127 154.354783 269.276982 187.343131 266.054865 " transform="matrix(0.0509176, 0, 0, 0.0509176, 0.000000000000002171, 0)"/>
<path fill-rule="nonzero" fill="rgb(100%, 100%, 100%)" fill-opacity="1" stroke-width="4.155" stroke-linecap="butt" stroke-linejoin="miter" stroke="rgb(100%, 100%, 100%)" stroke-opacity="1" stroke-miterlimit="4" d="M 172.536733 141.696463 C 172.229865 143.767825 176.219153 149.214738 181.512633 149.905192 C 186.729395 150.672363 191.178986 146.376206 191.485854 144.381561 C 191.792722 142.3102 187.726717 140.085404 182.509955 139.318234 C 177.293193 138.62778 172.766884 139.701819 172.536733 141.696463 Z M 172.536733 141.696463 " transform="matrix(0.0509176, 0, 0, 0.0509176, 0.000000000000002171, 0)"/>
<path fill-rule="nonzero" fill="rgb(100%, 100%, 100%)" fill-opacity="1" stroke-width="2.0775" stroke-linecap="butt" stroke-linejoin="miter" stroke="rgb(100%, 100%, 100%)" stroke-opacity="1" stroke-miterlimit="4" d="M 331.954844 137.553741 C 332.261712 139.548385 328.195707 144.995298 322.978945 145.762469 C 317.762183 146.452923 313.235874 142.233483 312.929006 140.162122 C 312.698855 138.167477 316.688143 135.942682 321.904905 135.175511 C 327.198384 134.40834 331.647976 135.482379 331.954844 137.553741 Z M 331.954844 137.553741 " transform="matrix(0.0509176, 0, 0, 0.0509176, 0.000000000000002171, 0)"/>
<path fill="none" stroke-width="12.4651" stroke-linecap="round" stroke-linejoin="round" stroke="rgb(100%, 100%, 100%)" stroke-opacity="1" stroke-miterlimit="4" d="M 350.673814 123.437796 C 351.517702 139.394951 347.221545 150.288777 346.684525 167.319971 C 345.917354 192.099591 358.498957 220.408197 339.473119 248.79352 " transform="matrix(0.0509176, 0, 0, 0.0509176, 0.000000000000002171, 0)"/>
</svg>
