<?xml version="1.0" encoding="UTF-8"?>
<svg xmlns="http://www.w3.org/2000/svg" xmlns:xlink="http://www.w3.org/1999/xlink" width="21.342445" height="22" viewBox="0 0 21.342445 22">
<path fill-rule="nonzero" fill="rgb(0%, 0%, 0%)" fill-opacity="1" stroke-width="37.395302" stroke-linecap="butt" stroke-linejoin="miter" stroke="rgb(0%, 0%, 0%)" stroke-opacity="1" stroke-miterlimit="4" d="M 323.203114 324.231164 C 326.050022 300.665094 325.180133 297.18554 342.736065 300.981417 L 347.243669 301.376821 C 360.6874 301.930386 378.480573 299.162559 388.840154 294.338632 C 411.220013 283.979051 424.505583 266.660362 402.362966 271.167966 C 352.067596 281.606628 348.588042 264.604262 348.588042 264.604262 C 401.73032 185.839814 423.952017 85.802637 404.73539 61.208517 C 352.54208 -5.535654 262.073677 26.096655 260.492062 26.887462 L 260.096658 26.966543 C 250.132481 24.910443 238.982092 23.645151 226.48733 23.486989 C 203.791149 23.091585 186.393379 29.497128 173.345052 39.382224 C 173.345052 39.382224 11.941197 -27.124705 19.45387 122.9706 C 21.035485 154.919232 65.241637 364.641438 117.909431 301.29774 C 137.205139 278.206155 155.78912 258.515043 155.78912 258.515043 C 165.041571 264.683343 176.033798 267.846574 187.737752 266.660362 L 188.607641 265.869554 C 188.370398 268.795543 188.449479 271.642451 188.923964 274.963843 C 175.401152 290.147351 179.35519 292.757017 152.230486 298.371752 C 124.789458 304.065567 140.921935 314.108825 151.439678 316.797571 C 164.171682 319.881722 193.747891 324.468406 213.755326 296.473813 L 212.885437 299.716125 C 218.26293 303.986486 217.867526 330.320383 218.658334 349.141607 C 219.449141 368.041912 220.635353 385.597843 224.510311 395.957424 C 228.306188 406.317005 232.813792 432.967225 268.47922 425.29639 C 298.371752 418.969928 321.147014 409.717478 323.203114 324.231164 " transform="matrix(0.0493957, 0, 0, 0.0493957, 0.000000000000002106, 0)"/>
<path fill-rule="nonzero" fill="rgb(20%, 40.392157%, 56.862745%)" fill-opacity="1" d="M 19.875 13.394531 C 17.390625 13.910156 17.21875 13.070312 17.21875 13.070312 C 19.84375 9.175781 20.941406 4.238281 19.992188 3.023438 C 17.414062 -0.273438 12.945312 1.289062 12.867188 1.328125 L 12.847656 1.332031 C 12.355469 1.226562 11.804688 1.167969 11.1875 1.160156 C 10.0625 1.140625 9.207031 1.457031 8.5625 1.945312 C 8.5625 1.945312 0.589844 -1.339844 0.960938 6.074219 C 1.039062 7.652344 3.222656 18.011719 5.824219 14.882812 C 6.777344 13.742188 7.695312 12.769531 7.695312 12.769531 C 8.152344 13.074219 8.695312 13.230469 9.273438 13.171875 L 9.316406 13.132812 C 9.304688 13.277344 9.308594 13.417969 9.332031 13.582031 C 8.664062 14.332031 8.859375 14.460938 7.519531 14.738281 C 6.160156 15.019531 6.960938 15.515625 7.480469 15.648438 C 8.109375 15.800781 9.570312 16.027344 10.558594 14.644531 L 10.515625 14.804688 C 10.78125 15.015625 10.964844 16.171875 10.933594 17.222656 C 10.902344 18.273438 10.882812 18.992188 11.089844 19.558594 C 11.296875 20.117188 11.5 21.386719 13.261719 21.007812 C 14.738281 20.695312 15.5 19.875 15.605469 18.511719 C 15.679688 17.542969 15.851562 17.6875 15.863281 16.816406 L 16 16.410156 C 16.160156 15.09375 16.027344 14.667969 16.929688 14.867188 L 17.152344 14.886719 C 17.816406 14.914062 18.695312 14.777344 19.207031 14.539062 C 20.3125 14.027344 20.96875 13.171875 19.875 13.394531 Z M 19.875 13.394531 "/>
<path fill="none" stroke-width="12.4651" stroke-linecap="round" stroke-linejoin="round" stroke="rgb(100%, 100%, 100%)" stroke-opacity="1" stroke-miterlimit="4" d="M 215.890507 286.430555 C 214.467053 336.014199 216.20683 385.914166 221.030757 398.013524 C 225.933765 410.112882 236.293346 433.678952 271.958774 426.008117 C 301.693144 419.681655 312.606291 407.265974 317.272056 379.983108 C 320.75161 359.896592 327.394395 304.144648 328.343364 292.677936 " transform="matrix(0.0493957, 0, 0, 0.0493957, 0.000000000000002106, 0)"/>
<path fill="none" stroke-width="12.4651" stroke-linecap="round" stroke-linejoin="round" stroke="rgb(100%, 100%, 100%)" stroke-opacity="1" stroke-miterlimit="4" d="M 173.107809 38.275094 C 173.107809 38.275094 11.545793 -27.757351 19.137547 122.337954 C 20.719162 154.286586 64.925314 364.008792 117.514027 300.665094 C 136.809735 277.494428 154.207505 259.384931 154.207505 259.384931 " transform="matrix(0.0493957, 0, 0, 0.0493957, 0.000000000000002106, 0)"/>
<path fill="none" stroke-width="12.4651" stroke-linecap="round" stroke-linejoin="round" stroke="rgb(100%, 100%, 100%)" stroke-opacity="1" stroke-miterlimit="4" d="M 260.412981 26.254816 C 254.798246 27.915512 350.248738 -8.698885 404.419066 60.575871 C 423.635694 85.09091 401.413997 185.128087 348.271719 263.971616 " transform="matrix(0.0493957, 0, 0, 0.0493957, 0.000000000000002106, 0)"/>
<path fill="none" stroke-width="12.4651" stroke-linecap="round" stroke-linejoin="bevel" stroke="rgb(100%, 100%, 100%)" stroke-opacity="1" stroke-miterlimit="4" d="M 348.271719 263.971616 C 348.271719 263.971616 351.751273 281.053063 402.046643 270.614401 C 424.110179 266.027716 410.824609 283.425486 388.523831 293.785067 C 370.177092 302.246709 328.97601 304.460971 328.343364 292.677936 C 326.603587 262.390001 350.011496 271.56337 348.271719 263.971616 C 346.769184 257.091589 336.330522 250.369723 329.450495 233.6046 C 323.361275 218.974657 246.573846 106.759042 350.644142 123.445085 C 354.5191 122.654277 323.519437 24.356878 226.091926 22.854343 C 128.743496 21.272728 131.985808 142.582631 131.985808 142.582631 " transform="matrix(0.0493957, 0, 0, 0.0493957, 0.000000000000002106, 0)"/>
<path fill="none" stroke-width="12.4651" stroke-linecap="round" stroke-linejoin="round" stroke="rgb(100%, 100%, 100%)" stroke-opacity="1" stroke-miterlimit="4" d="M 188.607641 274.331197 C 175.005748 289.514705 179.038867 292.124371 151.914162 297.739105 C 124.473135 303.432921 140.526531 313.476179 151.044274 316.164925 C 163.855359 319.328156 193.431568 323.83576 213.359922 295.920248 C 219.449141 287.379524 213.359922 273.777632 204.97736 270.377158 C 200.944241 268.637381 195.566748 266.581281 188.607641 274.331197 Z M 188.607641 274.331197 " transform="matrix(0.0493957, 0, 0, 0.0493957, 0.000000000000002106, 0)"/>
<path fill="none" stroke-width="12.4651" stroke-linecap="round" stroke-linejoin="round" stroke="rgb(100%, 100%, 100%)" stroke-opacity="1" stroke-miterlimit="4" d="M 187.737752 274.014874 C 186.314298 265.157828 190.663741 254.561004 195.250425 242.145323 C 202.130452 223.482261 218.104768 204.819199 205.372764 145.745862 C 195.883072 101.697872 131.985808 136.651574 131.985808 142.582631 C 131.906727 148.59277 134.753635 172.870567 130.878677 201.181483 C 125.738427 238.033123 154.365666 269.270028 187.342348 266.027716 " transform="matrix(0.0493957, 0, 0, 0.0493957, 0.000000000000002106, 0)"/>
<path fill-rule="nonzero" fill="rgb(100%, 100%, 100%)" fill-opacity="1" stroke-width="4.155" stroke-linecap="butt" stroke-linejoin="miter" stroke="rgb(100%, 100%, 100%)" stroke-opacity="1" stroke-miterlimit="4" d="M 172.554244 141.712743 C 172.237921 143.768843 176.191959 149.225416 181.490371 149.937143 C 186.709702 150.64887 191.217306 146.378508 191.454548 144.401489 C 191.770871 142.345389 187.737752 140.052047 182.518421 139.34032 C 177.29909 138.628593 172.791486 139.735724 172.554244 141.712743 Z M 172.554244 141.712743 " transform="matrix(0.0493957, 0, 0, 0.0493957, 0.000000000000002106, 0)"/>
<path fill-rule="nonzero" fill="rgb(100%, 100%, 100%)" fill-opacity="1" stroke-width="2.0775" stroke-linecap="butt" stroke-linejoin="miter" stroke="rgb(100%, 100%, 100%)" stroke-opacity="1" stroke-miterlimit="4" d="M 331.98108 137.521462 C 332.297403 139.577562 328.185203 145.034135 322.965872 145.745862 C 317.746541 146.457589 313.238937 142.266308 312.922614 140.131127 C 312.685371 138.154108 316.718491 135.939847 321.937822 135.149039 C 327.236233 134.437312 331.664757 135.465362 331.98108 137.521462 Z M 331.98108 137.521462 " transform="matrix(0.0493957, 0, 0, 0.0493957, 0.000000000000002106, 0)"/>
<path fill="none" stroke-width="12.4651" stroke-linecap="round" stroke-linejoin="round" stroke="rgb(100%, 100%, 100%)" stroke-opacity="1" stroke-miterlimit="4" d="M 350.644142 123.445085 C 351.51403 139.419401 347.243669 150.253466 346.690103 167.334913 C 345.899295 192.087194 358.473138 220.398111 339.493753 248.788108 " transform="matrix(0.0493957, 0, 0, 0.0493957, 0.000000000000002106, 0)"/>
</svg>
