<?xml version="1.0" encoding="UTF-8"?>
<svg xmlns="http://www.w3.org/2000/svg" xmlns:xlink="http://www.w3.org/1999/xlink" width="22px" height="25px" viewBox="0 0 22 25" version="1.1">
<g id="surface1">
<path style=" stroke:none;fill-rule:nonzero;fill:rgb(40.392157%,22.745098%,72.156864%);fill-opacity:1;" d="M 11 0 L 22 6.242188 L 22 18.726562 L 11 24.964844 L 0 18.726562 L 0 6.242188 Z M 11 0 "/>
<path style=" stroke:none;fill-rule:nonzero;fill:rgb(100%,100%,100%);fill-opacity:1;" d="M 2.996094 18.621094 C 4.457031 20.460938 9.105469 19.058594 13.492188 15.691406 C 17.882812 12.320312 20.390625 8.230469 18.925781 6.390625 C 17.464844 4.550781 12.816406 5.953125 8.429688 9.320312 C 4.042969 12.6875 1.535156 16.78125 2.996094 18.621094 Z M 3.621094 18.140625 C 3.136719 17.53125 3.347656 16.335938 4.273438 14.828125 C 5.246094 13.238281 6.894531 11.484375 8.917969 9.933594 C 10.9375 8.382812 13.070312 7.230469 14.871094 6.6875 C 16.582031 6.171875 17.816406 6.257812 18.300781 6.867188 C 18.785156 7.480469 18.574219 8.675781 17.652344 10.183594 C 16.679688 11.773438 15.027344 13.523438 13.003906 15.078125 C 10.984375 16.628906 8.855469 17.78125 7.050781 18.324219 C 5.339844 18.839844 4.105469 18.75 3.621094 18.140625 Z M 3.621094 18.140625 "/>
<path style=" stroke:none;fill-rule:nonzero;fill:rgb(100%,100%,100%);fill-opacity:1;" d="M 18.925781 18.621094 C 20.390625 16.78125 17.882812 12.6875 13.492188 9.320312 C 9.105469 5.953125 4.457031 4.550781 2.996094 6.390625 C 1.535156 8.230469 4.042969 12.320312 8.429688 15.691406 C 12.816406 19.058594 17.464844 20.460938 18.925781 18.621094 Z M 18.300781 18.140625 C 17.816406 18.75 16.582031 18.839844 14.871094 18.324219 C 13.070312 17.78125 10.9375 16.628906 8.917969 15.078125 C 6.894531 13.523438 5.246094 11.773438 4.273438 10.183594 C 3.347656 8.675781 3.136719 7.480469 3.621094 6.867188 C 4.105469 6.257812 5.339844 6.171875 7.050781 6.6875 C 8.855469 7.230469 10.984375 8.382812 13.003906 9.933594 C 15.027344 11.484375 16.679688 13.238281 17.652344 14.828125 C 18.574219 16.335938 18.785156 17.53125 18.300781 18.140625 Z M 18.300781 18.140625 "/>
<path style=" stroke:none;fill-rule:nonzero;fill:rgb(100%,100%,100%);fill-opacity:1;" d="M 10.960938 14.160156 C 11.890625 14.160156 12.644531 13.417969 12.644531 12.503906 C 12.644531 11.589844 11.890625 10.851562 10.960938 10.851562 C 10.03125 10.851562 9.277344 11.589844 9.277344 12.503906 C 9.277344 13.417969 10.03125 14.160156 10.960938 14.160156 Z M 10.960938 14.160156 "/>
</g>
</svg>
