<?xml version="1.0" encoding="UTF-8"?>
<svg xmlns="http://www.w3.org/2000/svg" xmlns:xlink="http://www.w3.org/1999/xlink" width="22" height="22" viewBox="0 0 22 22">
<path fill-rule="nonzero" fill="rgb(100%, 100%, 100%)" fill-opacity="1" d="M 3.300781 0 L 18.699219 0 C 20.523438 0 22 1.476562 22 3.300781 L 22 18.699219 C 22 20.523438 20.523438 22 18.699219 22 L 3.300781 22 C 1.476562 22 0 20.523438 0 18.699219 L 0 3.300781 C 0 1.476562 1.476562 0 3.300781 0 Z M 3.300781 0 "/>
<path fill-rule="nonzero" fill="rgb(40.392157%, 22.745098%, 72.156863%)" fill-opacity="1" d="M 11 0 L 20.539062 5.5 L 20.539062 16.5 L 11 22 L 1.460938 16.5 L 1.460938 5.5 Z M 11 0 "/>
<path fill="none" stroke-width="16" stroke-linecap="butt" stroke-linejoin="miter" stroke="rgb(100%, 100%, 100%)" stroke-opacity="1" stroke-miterlimit="4" d="M 75.022262 0.0431893 C 74.996574 108.194929 41.429018 195.994761 -0.00924901 195.939069 C -41.430735 196.010842 -75.03117 108.236015 -75.022262 -0.0431893 C -74.996574 -108.194929 -41.429018 -195.994761 0.00924901 -195.939069 C 41.430735 -196.010842 75.03117 -108.236015 75.022262 0.0431893 Z M 75.022262 0.0431893 " transform="matrix(0.0261577, 0.0340894, -0.0340894, 0.0261577, 11, 11)"/>
<path fill="none" stroke-width="16" stroke-linecap="butt" stroke-linejoin="miter" stroke="rgb(100%, 100%, 100%)" stroke-opacity="1" stroke-miterlimit="4" d="M 75.022262 -0.0431893 C 75.03117 108.236015 41.430735 196.010842 0.00924901 195.939069 C -41.429018 195.994761 -74.996574 108.194929 -75.022262 0.0431893 C -75.03117 -108.236015 -41.430735 -196.010842 -0.00924901 -195.939069 C 41.429018 -195.994761 74.996574 -108.194929 75.022262 -0.0431893 Z M 75.022262 -0.0431893 " transform="matrix(0.0261577, -0.0340894, 0.0340894, 0.0261577, 11, 11)"/>
<path fill-rule="nonzero" fill="rgb(100%, 100%, 100%)" fill-opacity="1" d="M 12.460938 11 C 12.460938 11.808594 11.808594 12.460938 11 12.460938 C 10.191406 12.460938 9.539062 11.808594 9.539062 11 C 9.539062 10.191406 10.191406 9.539062 11 9.539062 C 11.808594 9.539062 12.460938 10.191406 12.460938 11 Z M 12.460938 11 "/>
</svg>
