<?xml version="1.0" encoding="UTF-8"?>
<svg xmlns="http://www.w3.org/2000/svg" xmlns:xlink="http://www.w3.org/1999/xlink" width="22px" height="21px" viewBox="0 0 22 21" version="1.1">
<g id="surface1">
<path style=" stroke:none;fill-rule:nonzero;fill:rgb(38.039216%,85.490197%,98.431373%);fill-opacity:1;" d="M 12.917969 10.5 C 12.917969 11.660156 12.058594 12.605469 11 12.605469 C 9.941406 12.605469 9.082031 11.660156 9.082031 10.5 C 9.082031 9.339844 9.941406 8.394531 11 8.394531 C 12.058594 8.394531 12.917969 9.339844 12.917969 10.5 Z M 12.917969 10.5 "/>
<path style="fill:none;stroke-width:1;stroke-linecap:butt;stroke-linejoin:miter;stroke:rgb(38.039216%,85.490197%,98.431373%);stroke-opacity:1;stroke-miterlimit:4;" d="M 11.001832 -0.000000000000001776 C 11.001832 2.318128 6.07963 4.202321 0 4.202321 C -6.07963 4.202321 -11.001832 2.318128 -11.001832 -0.000000000000001776 C -11.001832 -2.318128 -6.07963 -4.202321 0 -4.202321 C 6.07963 -4.202321 11.001832 -2.318128 11.001832 -0.000000000000001776 Z M 11.001832 -0.000000000000001776 " transform="matrix(0.934859,0,0,1.026219,11,10.5)"/>
<path style="fill:none;stroke-width:1;stroke-linecap:butt;stroke-linejoin:miter;stroke:rgb(38.039216%,85.490197%,98.431373%);stroke-opacity:1;stroke-miterlimit:4;" d="M 10.999303 -0.00387886 C 11.006406 2.320978 6.075752 4.207445 -0.00544363 4.204133 C -6.077957 4.201008 -11.002091 2.323026 -10.999303 0.00387886 C -11.006406 -2.320978 -6.075752 -4.207445 0.00544363 -4.204133 C 6.077957 -4.201008 11.002091 -2.323026 10.999303 -0.00387886 Z M 10.999303 -0.00387886 " transform="matrix(0.467429,0.888732,-0.809609,0.51311,11,10.5)"/>
<path style="fill:none;stroke-width:1;stroke-linecap:butt;stroke-linejoin:miter;stroke:rgb(38.039216%,85.490197%,98.431373%);stroke-opacity:1;stroke-miterlimit:4;" d="M 10.999303 0.00387886 C 11.002091 2.323026 6.077957 4.201008 0.00544363 4.204133 C -6.075752 4.207445 -11.006406 2.320978 -10.999303 -0.00387886 C -11.002091 -2.323026 -6.077957 -4.201008 -0.00544363 -4.204133 C 6.075752 -4.207445 11.006406 -2.320978 10.999303 0.00387886 Z M 10.999303 0.00387886 " transform="matrix(-0.467429,0.888732,-0.809609,-0.51311,11,10.5)"/>
</g>
</svg>
