<?xml version="1.0" encoding="UTF-8"?>
<svg xmlns="http://www.w3.org/2000/svg" xmlns:xlink="http://www.w3.org/1999/xlink" width="22" height="22" viewBox="0 0 22 22">
<rect x="-2.2" y="-2.2" width="26.4" height="26.4" fill="rgb(13.333333%, 13.333333%, 13.333333%)" fill-opacity="1"/>
<path fill-rule="nonzero" fill="rgb(0%, 84.705882%, 100%)" fill-opacity="1" d="M 12.824219 10.988281 C 12.824219 12.003906 12 12.828125 10.984375 12.828125 C 9.96875 12.828125 9.144531 12.003906 9.144531 10.988281 C 9.144531 9.96875 9.96875 9.148438 10.984375 9.148438 C 12 9.148438 12.824219 9.96875 12.824219 10.988281 Z M 12.824219 10.988281 "/>
<path fill="none" stroke-width="144.745605" stroke-linecap="butt" stroke-linejoin="miter" stroke="rgb(0%, 84.705882%, 100%)" stroke-opacity="1" stroke-miterlimit="10" d="M 1806.729819 1191.850574 C 2212.794274 1191.850574 2589.945911 1250.318716 2874.576533 1347.979787 C 3217.675297 1466.201084 3428.417609 1644.818043 3428.417609 1806.729819 C 3428.417609 1975.709173 3204.825156 2165.891259 2836.668617 2287.967598 C 2558.463065 2379.846106 2192.234048 2428.034135 1806.729819 2428.034135 C 1410.945478 2428.034135 1037.006376 2383.058641 755.588289 2286.682584 C 398.996877 2165.248752 184.399523 1972.496638 184.399523 1806.729819 C 184.399523 1646.103057 386.146736 1468.771112 724.105443 1351.192322 C 1009.378573 1251.60373 1396.167815 1191.850574 1806.729819 1191.850574 Z M 1806.729819 1191.850574 " transform="matrix(0.0060797, 0, 0, 0.0060797, 0, 0)"/>
<path fill="none" stroke-width="144.745605" stroke-linecap="butt" stroke-linejoin="miter" stroke="rgb(0%, 84.705882%, 100%)" stroke-opacity="1" stroke-miterlimit="10" d="M 1270.878941 1501.538971 C 1473.911168 1149.445109 1712.92379 851.321839 1939.728778 654.072175 C 2213.436781 416.344567 2473.652135 323.181045 2614.361179 403.494426 C 2760.210279 488.305357 2813.538363 776.791021 2735.152504 1156.512687 C 2676.041855 1443.713337 2534.690305 1784.88458 2341.93819 2118.988245 C 2144.688526 2461.444501 1918.526046 2763.422814 1694.291086 2959.387463 C 1410.945478 3206.752677 1137.237475 3296.703664 993.958403 3213.820254 C 854.534374 3133.506873 801.206289 2870.078984 868.027022 2518.627628 C 924.567642 2221.146865 1065.919193 1856.845369 1270.878941 1501.538971 Z M 1270.878941 1501.538971 " transform="matrix(0.0060797, 0, 0, 0.0060797, 0, 0)"/>
<path fill="none" stroke-width="144.745605" stroke-linecap="butt" stroke-linejoin="miter" stroke="rgb(0%, 84.705882%, 100%)" stroke-opacity="1" stroke-miterlimit="10" d="M 1271.521448 2119.630752 C 1067.846714 1768.179396 929.707699 1412.230492 871.882064 1117.319757 C 801.848796 761.370852 851.321839 488.947864 991.388375 407.991976 C 1137.237475 323.181045 1414.158013 421.484624 1703.928691 679.12995 C 1923.023595 873.809585 2148.543569 1166.792799 2341.295683 1500.253957 C 2539.830361 1842.710214 2688.249489 2189.021513 2746.075123 2480.719713 C 2818.67842 2850.161265 2759.567771 3132.221859 2616.2887 3215.105269 C 2477.507177 3295.41865 2223.074386 3210.607719 1951.293905 2976.735154 C 1722.561396 2779.48549 1477.123704 2474.937149 1271.521448 2119.630752 Z M 1271.521448 2119.630752 " transform="matrix(0.0060797, 0, 0, 0.0060797, 0, 0)"/>
</svg>
