<?xml version="1.0" encoding="UTF-8"?>
<svg xmlns="http://www.w3.org/2000/svg" xmlns:xlink="http://www.w3.org/1999/xlink" width="20px" height="18px" viewBox="0 0 20 18" version="1.1">
<g id="surface1">
<path style=" stroke:none;fill-rule:nonzero;fill:rgb(38.039216%,85.490197%,98.431373%);fill-opacity:1;" d="M 11.742188 9 C 11.742188 9.996094 10.960938 10.804688 10 10.804688 C 9.039062 10.804688 8.257812 9.996094 8.257812 9 C 8.257812 8.003906 9.039062 7.195312 10 7.195312 C 10.960938 7.195312 11.742188 8.003906 11.742188 9 Z M 11.742188 9 "/>
<path style="fill:none;stroke-width:1;stroke-linecap:butt;stroke-linejoin:miter;stroke:rgb(38.039216%,85.490197%,98.431373%);stroke-opacity:1;stroke-miterlimit:4;" d="M 11.003508 0 C 11.003508 2.318128 6.07629 4.201052 0 4.201052 C -6.07629 4.201052 -11.003508 2.318128 -11.003508 0 C -11.003508 -2.318128 -6.07629 -4.201052 0 -4.201052 C 6.07629 -4.201052 11.003508 -2.318128 11.003508 0 Z M 11.003508 0 " transform="matrix(0.849871,0,0,0.879616,10,9)"/>
<path style="fill:none;stroke-width:1;stroke-linecap:butt;stroke-linejoin:miter;stroke:rgb(38.039216%,85.490197%,98.431373%);stroke-opacity:1;stroke-miterlimit:4;" d="M 11.000325 -0.00184506 C 11.00366 2.319388 6.075437 4.202917 -0.00102253 4.202823 C -6.077482 4.202729 -11.000836 2.320858 -11.000325 0.00184506 C -11.00366 -2.319388 -6.075437 -4.202917 0.00102253 -4.202823 C 6.077482 -4.202729 11.000836 -2.320858 11.000325 -0.00184506 Z M 11.000325 -0.00184506 " transform="matrix(0.424935,0.76177,-0.736009,0.439808,10,9)"/>
<path style="fill:none;stroke-width:1;stroke-linecap:butt;stroke-linejoin:miter;stroke:rgb(38.039216%,85.490197%,98.431373%);stroke-opacity:1;stroke-miterlimit:4;" d="M 11.000325 0.00184506 C 11.000836 2.320858 6.077482 4.202729 0.00102253 4.202823 C -6.075437 4.202917 -11.00366 2.319388 -11.000325 -0.00184506 C -11.000836 -2.320858 -6.077482 -4.202729 -0.00102253 -4.202823 C 6.075437 -4.202917 11.00366 -2.319388 11.000325 0.00184506 Z M 11.000325 0.00184506 " transform="matrix(-0.424935,0.76177,-0.736009,-0.439808,10,9)"/>
</g>
</svg>
