<?xml version="1.0" encoding="UTF-8"?>
<svg xmlns="http://www.w3.org/2000/svg" xmlns:xlink="http://www.w3.org/1999/xlink" width="22" height="21" viewBox="0 0 22 21">
<path fill-rule="nonzero" fill="rgb(38.039216%, 85.490196%, 98.431373%)" fill-opacity="1" d="M 12.917969 10.5 C 12.917969 11.660156 12.058594 12.605469 11 12.605469 C 9.941406 12.605469 9.082031 11.660156 9.082031 10.5 C 9.082031 9.339844 9.941406 8.394531 11 8.394531 C 12.058594 8.394531 12.917969 9.339844 12.917969 10.5 Z M 12.917969 10.5 "/>
<path fill="none" stroke-width="1" stroke-linecap="butt" stroke-linejoin="miter" stroke="rgb(38.039216%, 85.490196%, 98.431373%)" stroke-opacity="1" stroke-miterlimit="4" d="M 11.001826 0 C 11.001826 2.318127 6.079627 4.202319 0 4.202319 C -6.079627 4.202319 -11.001826 2.318127 -11.001826 0 C -11.001826 -2.318127 -6.079627 -4.202319 0 -4.202319 C 6.079627 -4.202319 11.001826 -2.318127 11.001826 0 Z M 11.001826 0 " transform="matrix(0.934859, 0, 0, 1.026219, 11, 10.5)"/>
<path fill="none" stroke-width="1" stroke-linecap="butt" stroke-linejoin="miter" stroke="rgb(38.039216%, 85.490196%, 98.431373%)" stroke-opacity="1" stroke-miterlimit="4" d="M 10.999298 -0.00387901 C 11.006399 2.320979 6.075747 4.207447 -0.00544527 4.204134 C -6.077955 4.201009 -11.002086 2.323027 -10.999298 0.00387901 C -11.006399 -2.320979 -6.075747 -4.207447 0.00544527 -4.204134 C 6.077955 -4.201009 11.002086 -2.323027 10.999298 -0.00387901 Z M 10.999298 -0.00387901 " transform="matrix(0.467429, 0.888732, -0.809609, 0.51311, 11, 10.5)"/>
<path fill="none" stroke-width="1" stroke-linecap="butt" stroke-linejoin="miter" stroke="rgb(38.039216%, 85.490196%, 98.431373%)" stroke-opacity="1" stroke-miterlimit="4" d="M 10.999298 0.00387901 C 11.002086 2.323027 6.077955 4.201009 0.00544527 4.204134 C -6.075747 4.207447 -11.006399 2.320979 -10.999298 -0.00387901 C -11.002086 -2.323027 -6.077955 -4.201009 -0.00544527 -4.204134 C 6.075747 -4.207447 11.006399 -2.320979 10.999298 0.00387901 Z M 10.999298 0.00387901 " transform="matrix(-0.467429, 0.888732, -0.809609, -0.51311, 11, 10.5)"/>
</svg>
