<?xml version="1.0" encoding="UTF-8"?>
<svg xmlns="http://www.w3.org/2000/svg" xmlns:xlink="http://www.w3.org/1999/xlink" width="22px" height="22px" viewBox="0 0 22 22" version="1.1">
<g id="surface1">
<path style=" stroke:none;fill-rule:nonzero;fill:rgb(0%,47.843137%,80.000001%);fill-opacity:1;" d="M 0.34375 10.984375 L 0.34375 21.726562 L 21.828125 21.726562 L 21.828125 0.242188 L 0.34375 0.242188 Z M 17.65625 10.125 C 18.171875 10.242188 18.636719 10.515625 19.003906 10.898438 C 19.199219 11.105469 19.375 11.335938 19.519531 11.585938 C 19.519531 11.617188 18.589844 12.242188 18.019531 12.59375 C 18 12.609375 17.921875 12.515625 17.828125 12.378906 C 17.617188 12.015625 17.238281 11.789062 16.816406 11.773438 C 16.171875 11.734375 15.746094 12.070312 15.75 12.632812 C 15.746094 12.773438 15.777344 12.910156 15.847656 13.035156 C 15.988281 13.335938 16.257812 13.507812 17.085938 13.871094 C 18.628906 14.535156 19.285156 14.96875 19.695312 15.589844 C 20.15625 16.277344 20.253906 17.386719 19.945312 18.210938 C 19.601562 19.105469 18.761719 19.710938 17.566406 19.910156 C 17.023438 19.972656 16.472656 19.96875 15.933594 19.890625 C 15.105469 19.757812 14.335938 19.367188 13.75 18.769531 C 13.550781 18.546875 13.164062 17.976562 13.1875 17.941406 C 13.253906 17.890625 13.320312 17.847656 13.390625 17.8125 L 14.179688 17.359375 L 14.796875 17 L 14.925781 17.191406 C 15.140625 17.503906 15.421875 17.769531 15.742188 17.976562 C 16.429688 18.335938 17.367188 18.285156 17.828125 17.867188 C 18.148438 17.550781 18.203125 17.050781 17.945312 16.675781 C 17.773438 16.4375 17.429688 16.238281 16.472656 15.816406 C 15.367188 15.34375 14.882812 15.042969 14.453125 14.574219 C 14.175781 14.261719 13.976562 13.894531 13.859375 13.503906 C 13.777344 13.046875 13.765625 12.582031 13.820312 12.128906 C 14.046875 11.050781 14.851562 10.304688 16.03125 10.085938 C 16.570312 10.015625 17.117188 10.035156 17.65625 10.125 Z M 12.617188 11.027344 L 12.617188 11.90625 L 9.824219 11.90625 L 9.824219 19.851562 L 7.84375 19.851562 L 7.84375 11.90625 L 5.050781 11.90625 L 5.050781 11.046875 C 5.039062 10.753906 5.050781 10.453125 5.074219 10.15625 C 5.085938 10.144531 6.792969 10.136719 8.855469 10.140625 L 12.601562 10.140625 Z M 12.617188 11.027344 "/>
</g>
</svg>
