<?xml version="1.0" encoding="UTF-8"?>
<svg xmlns="http://www.w3.org/2000/svg" xmlns:xlink="http://www.w3.org/1999/xlink" width="20px" height="20px" viewBox="0 0 20 20" version="1.1">
<g id="surface1">
<path style=" stroke:none;fill-rule:nonzero;fill:rgb(0%,47.843137%,80.000001%);fill-opacity:1;" d="M 0.3125 9.984375 L 0.3125 19.75 L 19.84375 19.75 L 19.84375 0.21875 L 0.3125 0.21875 Z M 16.050781 9.203125 C 16.519531 9.3125 16.945312 9.558594 17.273438 9.90625 C 17.453125 10.097656 17.613281 10.304688 17.742188 10.53125 C 17.742188 10.558594 16.898438 11.128906 16.382812 11.445312 C 16.367188 11.460938 16.289062 11.378906 16.207031 11.253906 C 16.015625 10.925781 15.671875 10.71875 15.289062 10.703125 C 14.699219 10.664062 14.316406 10.972656 14.320312 11.484375 C 14.316406 11.613281 14.34375 11.738281 14.40625 11.851562 C 14.535156 12.121094 14.777344 12.28125 15.535156 12.609375 C 16.933594 13.210938 17.53125 13.609375 17.90625 14.171875 C 18.320312 14.796875 18.414062 15.804688 18.132812 16.554688 C 17.820312 17.367188 17.054688 17.917969 15.96875 18.101562 C 15.476562 18.15625 14.976562 18.152344 14.484375 18.085938 C 13.730469 17.960938 13.035156 17.605469 12.5 17.0625 C 12.320312 16.863281 11.96875 16.34375 11.992188 16.308594 C 12.050781 16.265625 12.109375 16.226562 12.171875 16.195312 L 12.890625 15.78125 L 13.453125 15.457031 L 13.570312 15.628906 C 13.765625 15.914062 14.019531 16.152344 14.308594 16.339844 C 14.933594 16.667969 15.789062 16.621094 16.210938 16.242188 C 16.5 15.957031 16.546875 15.5 16.316406 15.160156 C 16.160156 14.945312 15.847656 14.761719 14.976562 14.378906 C 13.96875 13.945312 13.53125 13.675781 13.136719 13.25 C 12.886719 12.964844 12.707031 12.632812 12.601562 12.273438 C 12.523438 11.859375 12.511719 11.4375 12.566406 11.023438 C 12.773438 10.046875 13.503906 9.367188 14.570312 9.167969 C 15.0625 9.105469 15.5625 9.121094 16.050781 9.207031 Z M 11.46875 10.023438 L 11.46875 10.824219 L 8.929688 10.824219 L 8.929688 18.046875 L 7.132812 18.046875 L 7.132812 10.820312 L 4.589844 10.820312 L 4.589844 10.039062 C 4.582031 9.773438 4.589844 9.503906 4.613281 9.234375 C 4.621094 9.222656 6.175781 9.214844 8.050781 9.21875 L 11.457031 9.21875 Z M 11.46875 10.023438 "/>
</g>
</svg>
