<?xml version="1.0" encoding="UTF-8"?>
<svg xmlns="http://www.w3.org/2000/svg" xmlns:xlink="http://www.w3.org/1999/xlink" width="20px" height="20px" viewBox="0 0 20 20" version="1.1">
<g id="surface1">
<path style=" stroke:none;fill-rule:nonzero;fill:rgb(39.607844%,30.980393%,94.117647%);fill-opacity:1;" d="M 12.289062 0 C 12.289062 0.0351562 12.289062 0.0703125 12.289062 0.109375 C 12.289062 1.375 11.261719 2.402344 9.996094 2.402344 C 8.726562 2.402344 7.703125 1.375 7.703125 0.109375 C 7.703125 0.0703125 7.703125 0.0351562 7.703125 0 L 0 0 L 0 20 L 20 20 L 20 0 Z M 12.289062 0 "/>
<path style=" stroke:none;fill-rule:nonzero;fill:rgb(100%,100%,100%);fill-opacity:1;" d="M 4.644531 10.777344 L 5.972656 10.777344 L 6.875 15.597656 L 6.890625 15.597656 L 7.980469 10.777344 L 9.21875 10.777344 L 10.203125 15.65625 L 10.222656 15.65625 L 11.253906 10.777344 L 12.554688 10.777344 L 10.863281 17.859375 L 9.546875 17.859375 L 8.574219 13.039062 L 8.546875 13.039062 L 7.507812 17.859375 L 6.164062 17.859375 Z M 14.046875 10.777344 L 16.136719 10.777344 L 18.210938 17.859375 L 16.84375 17.859375 L 16.394531 16.285156 L 14.011719 16.285156 L 13.664062 17.859375 L 12.332031 17.859375 Z M 14.84375 12.523438 L 14.265625 15.121094 L 16.0625 15.121094 L 15.398438 12.523438 Z M 14.84375 12.523438 "/>
</g>
</svg>
