<?xml version="1.0" encoding="UTF-8"?>
<svg xmlns="http://www.w3.org/2000/svg" xmlns:xlink="http://www.w3.org/1999/xlink" width="22px" height="22px" viewBox="0 0 22 22" version="1.1">
<g id="surface1">
<path style=" stroke:none;fill-rule:nonzero;fill:rgb(39.607844%,30.980393%,94.117647%);fill-opacity:1;" d="M 13.515625 0 C 13.515625 0.0390625 13.515625 0.0742188 13.515625 0.121094 C 13.515625 1.511719 12.390625 2.644531 10.996094 2.644531 C 9.597656 2.644531 8.472656 1.511719 8.472656 0.121094 C 8.472656 0.0742188 8.472656 0.0390625 8.472656 0 L 0 0 L 0 22 L 22 22 L 22 0 Z M 13.515625 0 "/>
<path style=" stroke:none;fill-rule:nonzero;fill:rgb(100%,100%,100%);fill-opacity:1;" d="M 5.109375 11.855469 L 6.570312 11.855469 L 7.5625 17.15625 L 7.578125 17.15625 L 8.78125 11.855469 L 10.140625 11.855469 L 11.222656 17.222656 L 11.242188 17.222656 L 12.378906 11.855469 L 13.8125 11.855469 L 11.949219 19.644531 L 10.5 19.644531 L 9.433594 14.339844 L 9.402344 14.339844 L 8.257812 19.644531 L 6.777344 19.644531 Z M 15.453125 11.855469 L 17.75 11.855469 L 20.035156 19.644531 L 18.527344 19.644531 L 18.03125 17.914062 L 15.414062 17.914062 L 15.027344 19.644531 L 13.5625 19.644531 Z M 16.328125 13.777344 L 15.691406 16.632812 L 17.667969 16.632812 L 16.941406 13.777344 Z M 16.328125 13.777344 "/>
</g>
</svg>
