<?xml version="1.0" encoding="UTF-8"?>
<svg xmlns="http://www.w3.org/2000/svg" xmlns:xlink="http://www.w3.org/1999/xlink" width="22" height="14.587806" viewBox="0 0 22 14.587806">
<path fill-rule="nonzero" fill="rgb(89.411765%, 30.196078%, 14.901961%)" fill-opacity="1" d="M 7.507812 14.53125 L 3.320312 3.082031 L 14.8125 0.0078125 L 16.90625 12.015625 L 12.546875 14.578125 Z M 7.507812 14.53125 "/>
<path fill-rule="nonzero" fill="rgb(94.509804%, 39.607843%, 16.078431%)" fill-opacity="1" d="M 12.289062 13.582031 L 15.808594 11.511719 L 14.019531 1.246094 L 9.324219 2.503906 Z M 12.289062 13.582031 "/>
<path fill-rule="nonzero" fill="rgb(93.72549%, 93.72549%, 93.72549%)" fill-opacity="1" d="M 20.28125 5.933594 L 20.816406 7.773438 L 16.714844 8.933594 C 16.714844 8.933594 16.714844 11.398438 14.726562 12.378906 C 12.738281 13.359375 11.191406 12.527344 11.191406 12.527344 L 10.945312 11.816406 L 13.894531 11.011719 L 14.546875 8.488281 L 12.648438 6.617188 L 9.914062 7.441406 L 9.675781 6.792969 C 9.675781 6.792969 10.953125 3.972656 14.726562 5.578125 C 14.726562 5.578125 15.917969 6.320312 16.183594 6.972656 Z M 20.816406 5.792969 L 21.46875 5.605469 L 21.996094 7.488281 L 21.3125 7.695312 Z M 20.816406 5.792969 "/>
<path fill-rule="nonzero" fill="rgb(73.72549%, 73.72549%, 73.72549%)" fill-opacity="1" d="M 21.046875 5.710938 L 21.46875 5.605469 L 21.996094 7.488281 L 21.3125 7.695312 L 21.132812 7.0625 L 21.40625 6.957031 Z M 19.828125 6.046875 L 20.28125 5.933594 L 20.816406 7.773438 L 16.714844 8.933594 C 16.714844 8.933594 16.671875 11.082031 15.246094 12.058594 C 13.820312 13.03125 12.214844 13.003906 11.191406 12.527344 L 11.078125 12.199219 C 11.078125 12.199219 13.863281 12.855469 15.246094 10.757812 C 16.078125 9.378906 16.0625 8.382812 16.0625 8.382812 L 20.175781 7.269531 Z M 9.675781 6.792969 L 12.082031 6.09375 L 12.648438 6.617188 L 9.914062 7.441406 Z M 9.675781 6.792969 "/>
<path fill-rule="nonzero" fill="rgb(93.72549%, 93.72549%, 93.72549%)" fill-opacity="1" d="M 1.195312 8.097656 L 1.675781 9.957031 L 5.789062 8.855469 C 5.789062 8.855469 7.054688 10.972656 9.265625 10.796875 C 11.476562 10.617188 12.378906 9.113281 12.378906 9.113281 L 12.226562 8.375 L 9.28125 9.195312 L 7.425781 7.363281 L 8.101562 4.78125 L 10.875 4.09375 L 10.746094 3.414062 C 10.746094 3.414062 8.203125 1.640625 5.785156 4.953125 C 5.785156 4.953125 5.140625 6.195312 5.246094 6.894531 Z M 0.664062 8.253906 L 0.00390625 8.425781 L 0.515625 10.3125 L 1.210938 10.140625 Z M 0.664062 8.253906 "/>
<path fill-rule="nonzero" fill="rgb(73.72549%, 73.72549%, 73.72549%)" fill-opacity="1" d="M 0.421875 8.300781 L 0.00390625 8.425781 L 0.515625 10.3125 L 1.210938 10.140625 L 1.042969 9.507812 L 0.753906 9.554688 Z M 1.640625 7.96875 L 1.195312 8.097656 L 1.675781 9.957031 L 5.789062 8.855469 C 5.789062 8.855469 6.929688 10.679688 8.652344 10.785156 C 10.375 10.890625 11.738281 10.046875 12.378906 9.113281 L 12.308594 8.773438 C 12.308594 8.773438 10.246094 10.765625 7.988281 9.671875 C 6.566406 8.910156 6.070312 8.046875 6.070312 8.046875 L 1.964844 9.195312 Z M 10.746094 3.414062 L 8.320312 4.042969 L 8.101562 4.78125 L 10.875 4.09375 Z M 10.746094 3.414062 "/>
</svg>
